<ttFont>
<head>
    <!-- Most of this table will be recalculated by the compiler -->
    <tableVersion value="1.0"/>
    <fontRevision value="1.002"/>
    <checkSumAdjustment value="0xb0332fb1"/>
    <magicNumber value="0x5f0f3cf5"/>
    <flags value="00000000 00001011"/>
    <unitsPerEm value="1000"/>
    <created value="Thu Jan 14 16:27:38 2016"/>
    <modified value="Thu Jan  2 08:45:00 2020"/>
    <xMin value="-1628"/>
    <yMin value="-281"/>
    <xMax value="592"/>
    <yMax value="1137"/>
    <macStyle value="00000000 00000000"/>
    <lowestRecPPEM value="8"/>
    <fontDirectionHint value="2"/>
    <indexToLocFormat value="0"/>
    <glyphDataFormat value="0"/>
  </head>
          <CharString index="0">
            -38 -29 -30 -37 -38 29 -29 38 39 28 29 38 hvcurveto
            37 -28 30 -39 vhcurveto
            return
          </CharString>
          <CharString index="1">
            -221 -173 -90 -148 0 -144 0 -141 89 -145 218 -172 rrcurveto
            30 31 rlineto
            -211 160 -82 136 0 132 0 134 83 138 214 161 rrcurveto
            return
          </CharString>
          <CharString index="2">
            221 173 90 148 0 144 0 141 -89 145 -218 172 rrcurveto
            -30 -32 rlineto
            211 -160 82 -136 0 -131 0 -134 -83 -138 -214 -161 rrcurveto
            return
          </CharString>
          <CharString index="3">
            22 -9 rlineto
            86 85 22 91 -28 116 rrcurveto
            -75 -6 rlineto
            52 -116 -3 -77 -76 -84 rrcurveto
            return
          </CharString>
          <CharString index="4">
            133 85 131 198 196 -75 117 -130 -133 -85 -130 -199 -195 75 -118 130 hvcurveto
            return
          </CharString>
          <CharString index="5">
            45 4 rlineto
            -62 207 -64 205 -69 209 rrcurveto
            -64 hlineto
            return
          </CharString>
          <CharString index="6">
            -69 -210 -64 -206 -62 -207 rrcurveto
            44 hlineto
            21 71 21 71 21 70 rrcurveto
            238 hlineto
            21 -71 22 -71 21 -72 rrcurveto
            return
          </CharString>
          <CharString index="7">
            7 hlineto
            36 -111 35 -110 34 -111 rrcurveto
            -216 hlineto
            34 110 34 110 36 112 rrcurveto
            return
          </CharString>
          <CharString index="8">
            -285 -11 -71 107 0 172 0 151 61 115 289 12 rrcurveto
            -3 43 rlineto
            -299 -14 -93 -146 0 -168 0 -182 85 -136 312 17 rrcurveto
            return
          </CharString>
          <CharString index="9">
            0 236 -114 104 -281 -42 rrcurveto
            -622 vlineto
            252 -42 143 120 0 246 rrcurveto
            return
          </CharString>
          <CharString index="10">
            0 -203 -105 -104 -200 31 rrcurveto
            547 vlineto
            212 27 93 -84 0 -214 rrcurveto
            return
          </CharString>
          <CharString index="11">
            -321 257 278 36 -278 247 318 40 -363 -620 361 hlineto
            return
          </CharString>
          <CharString index="12">
            -3 80 2 98 0 128 rrcurveto
            -45 hlineto
            0 -110 1 -94 0 -73 -244 -27 -73 117 0 180 0 151 61 118 283 10 rrcurveto
            -3 43 rlineto
            -297 -12 -89 -147 0 -173 0 -209 113 -141 294 61 rrcurveto
            return
          </CharString>
          <CharString index="13">
            166 37 -377 -37 166 -546 -166 -37 377 hlineto
            4 37 -170 0 rlineto
            return
          </CharString>
          <CharString index="14">
            50 7 -240 310 226 307 -49 0 -214 -290 -78 0 0 290 -45 0 rlineto
            return
          </CharString>
          <CharString index="15">
            4 40 -326 0 0 580 -45 0 0 -620 rlineto
            return
          </CharString>
          <CharString index="16">
            54 620 -43 hlineto
            1 -549 -4 0 -257 549 -63 0 0 -620 43 0 -1 563 5 0 rlineto
            return
          </CharString>
          <CharString index="17">
            141 0 90 121 -1 213 -1 202 -79 114 -135 0 rrcurveto
            -141 -90 -120 -214 -201 81 -115 135 hvcurveto
            return
          </CharString>
          <CharString index="18">
            116 63 -101 -185 -184 -65 -102 -112 -117 -62 101 185 184 64 102 113 hvcurveto
            return
          </CharString>
          <CharString index="19">
            47 10 -151 266 rlineto
            62 44 48 61 0 85 0 125 -96 82 -259 -45 rrcurveto
            -618 45 243 vlineto
            162 4 rlineto
            return
          </CharString>
          <CharString index="20">
            189 30 76 -65 0 -100 0 -76 -40 -53 -56 -37 rrcurveto
            -169 -3 rlineto
            return
          </CharString>
          <CharString index="21">
            -1 -45 rlineto
            272 -20 108 98 0 90 0 150 -333 44 0 124 0 60 65 54 235 -15 rrcurveto
            -3 44 rlineto
            -252 15 -89 -84 0 -83 0 -146 333 -42 0 -129 0 -69 -89 -69 -246 23 rrcurveto
            return
          </CharString>
          <CharString index="22">
            208 40 -458 hlineto
            -4 -40 209 0 0 -580 45 0 rlineto
            return
          </CharString>
          <CharString index="23">
            121 71 72 134 hvcurveto
            429 -45 -433 vlineto
            -112 -46 -50 -94 -90 -55 56 120 vhcurveto
            419 -45 -428 vlineto
            -135 69 -72 114 vhcurveto
            return
          </CharString>
          <CharString index="24">
            57 hlineto
            16 117 22 236 13 267 rrcurveto
            -43 hlineto
            -8 -199 -20 -272 -11 -98 rrcurveto
            -3 hlineto
            -34 121 -40 146 -32 121 rrcurveto
            -35 hlineto
            -32 -119 -34 -129 -39 -140 rrcurveto
            -4 hlineto
            -10 98 -20 272 -8 199 rrcurveto
            -46 hlineto
            13 -267 21 -236 16 -117 rrcurveto
            60 0 100 365 rlineto
            return
          </CharString>
          <CharString index="25">
            204 413 -47 0 -179 -366 rlineto
            return
          </CharString>
          <CharString index="26">
            -178 367 -49 -2 204 -413 0 -206 rlineto
            return
          </CharString>
          <CharString index="27">
            4 41 -360 -1 356 540 0 40 -393 0 -5 -41 352 1 -358 -540 0 -40 rlineto
            return
          </CharString>
          <CharString index="28">
            314 0 4 38 -276 0 0 792 274 0 0 38 -316 0 rlineto
            return
          </CharString>
          <CharString index="29">
            1 -38 314 0 0 868 -314 0 0 -39 273 0 0 -791 rlineto
            return
          </CharString>
          <CharString index="30">
            -56 44 -80 83 -43 53 rrcurveto
            -41 -39 rlineto
            51 -50 90 -70 63 -41 rrcurveto
            return
          </CharString>
          <CharString index="31">
            39 3 rlineto
            -3 71 -2 58 0 109 0 181 -78 56 -262 12 rrcurveto
            -6 -40 rlineto
            224 -10 71 -37 6 -133 -224 19 -108 -72 0 -103 rrcurveto
            return
          </CharString>
          <CharString index="32">
            -77 62 -47 88 vhcurveto
            83 0 64 39 41 37 rrcurveto
            1 -21 2 -27 2 -18 rrcurveto
            return
          </CharString>
          <CharString index="33">
            0 -145 84 -105 282 13 rrcurveto
            6 38 rlineto
            -260 -9 -68 83 0 131 0 114 64 85 256 7 rrcurveto
            -3 43 rlineto
            -270 -12 -91 -114 0 -129 rrcurveto
            return
          </CharString>
          <CharString index="34">
            -91 -66 70 132 143 90 80 109 hvcurveto
            32 0 28 -6 32 -9 0 -162 1 -95 2 -98 rrcurveto
            -37 -30 -50 -25 -50 0 rrcurveto
            return
          </CharString>
          <CharString index="35">
            43 3 rlineto
            -5 113 -2 157 0 203 rrcurveto
            0 227 rlineto
            return
          </CharString>
          <CharString index="36">
            -23 5 -23 2 -25 0 rrcurveto
            -138 -126 -99 -174 -142 81 -86 106 hvcurveto
            63 0 53 29 37 32 rrcurveto
            return
          </CharString>
          <CharString index="37">
            6 40 rlineto
            -256 8 -73 59 -4 132 rrcurveto
            352 10 rlineto
            18 147 -68 106 -127 0 -122 0 -96 -112 0 -144 0 -155 82 -83 288 -8 rrcurveto
            return
          </CharString>
          <CharString index="38">
            99 0 50 -75 -4 -109 rrcurveto
            -312 -9 rlineto
            6 119 65 74 96 0 rrcurveto
            return
          </CharString>
          <CharString index="39">
            254 13 67 91 0 154 0 27 0 335 -1 18 -46 14 -42 8 -45 0 rrcurveto
            -131 -120 -94 -158 -131 80 -77 107 hvcurveto
            63 0 53 26 38 29 rrcurveto
            -2 vlineto
            0 -149 -39 -45 -243 -17 rrcurveto
            return
          </CharString>
          <CharString index="40">
            -91 -66 62 119 130 87 73 105 hvcurveto
            36 0 33 -7 36 -11 rrcurveto
            -315 vlineto
            -38 -28 -51 -23 -51 0 rrcurveto
            return
          </CharString>
          <CharString index="41">
            47 8 -211 242 rlineto
            70 73 67 77 64 82 rrcurveto
            return
          </CharString>
          <CharString index="42">
            -44 4 rlineto
            -62 -78 -63 -72 -68 -70 rrcurveto
            -94 -2 0 441 rlineto
            return
          </CharString>
          <CharString index="43">
            -44 -4 0 -697 44 0 0 225 90 2 rlineto
            return
          </CharString>
          <CharString index="44">
            4 35 -167 0 0 661 -194 0 -4 -31 154 -7 0 -623 -166 0 0 -35 rlineto
            return
          </CharString>
          <CharString index="45">
            74 44 -39 -102 hvcurveto
            -311 44 323 vlineto
            118 -60 49 -90 vhcurveto
            -71 0 -55 -30 -43 -33 rrcurveto
            return
          </CharString>
          <CharString index="46">
            -4 54 -40 -3 rlineto
            4 -113 2 -163 0 -202 rrcurveto
            44 hlineto
            return
          </CharString>
          <CharString index="47">
            0 187 -2 127 -3 83 rrcurveto
            47 33 50 22 59 0 rrcurveto
            return
          </CharString>
          <CharString index="48">
            118 99 103 156 152 -86 94 -119 -117 -100 -103 -155 -153 88 -94 117 hvcurveto
            return
          </CharString>
          <CharString index="49">
            -97 -70 80 138 133 70 78 97 98 70 -80 -137 -134 -70 -78 -98 hvcurveto
            return
          </CharString>
          <CharString index="50">
            -1 125 -2 113 -2 96 52 42 77 29 113 10 rrcurveto
            -3 46 rlineto
            -109 -12 -80 -37 -50 -46 rrcurveto
            return
          </CharString>
          <CharString index="51">
            -1 24 -2 38 -1 17 rrcurveto
            -169 0 -3 -31 131 -7 rlineto
            3 -109 1 -130 3 -168 rrcurveto
            -141 -35 hlineto
            return
          </CharString>
          <CharString index="52">
            -238 21 -74 -78 0 -67 0 -120 285 -10 0 -106 0 -50 -61 -53 -233 21 rrcurveto
            return
          </CharString>
          <CharString index="53">
            -2 -42 rlineto
            259 -19 81 79 0 71 0 125 -285 14 0 99 0 44 49 50 221 -21 rrcurveto
            return
          </CharString>
          <CharString index="54">
            -178 3 -48 27 0 93 rrcurveto
            291 215 36 -215 142 vlineto
            return
          </CharString>
          <CharString index="55">
            -44 -4 0 -138 -95 0 -6 -36 101 0 0 -298 rlineto
            -112 69 -43 197 vhcurveto
            return
          </CharString>
          <CharString index="56">
            40 3 rlineto
            -4 113 -2 163 0 202 rrcurveto
            -44 hlineto
            return
          </CharString>
          <CharString index="57">
            0 -187 2 -127 3 -83 -47 -33 -50 -23 -58 0 rrcurveto
            -73 -42 38 103 hvcurveto
            0 314 rlineto
            return
          </CharString>
          <CharString index="58">
            -44 -4 0 -322 rlineto
            -119 59 -48 88 vhcurveto
            71 0 54 32 43 32 rrcurveto
            return
          </CharString>
          <CharString index="59">
            45 hlineto
            18 127 19 176 13 177 rrcurveto
            -43 hlineto
            -11 -149 -10 -137 -13 -130 rrcurveto
            -3 hlineto
            -7 16 -97 274 -4 11 rrcurveto
            -32 hlineto
            -4 -11 -95 -273 -7 -16 rrcurveto
            -4 hlineto
            -14 130 -11 137 -10 148 rrcurveto
            -46 hlineto
            13 -177 19 -176 20 -127 rrcurveto
            43 0 111 307 rlineto
            return
          </CharString>
          <CharString index="60">
            148 24 41 45 58 139 rrcurveto
            return
          </CharString>
          <CharString index="61">
            75 178 55 141 48 131 rrcurveto
            -42 hlineto
            -44 -118 -66 -178 -53 -123 rrcurveto
            -5 hlineto
            return
          </CharString>
          <CharString index="62">
            -66 143 -62 133 -58 144 rrcurveto
            -45 -2 rlineto
            61 -145 80 -178 71 -149 -44 -94 -24 -26 -133 -22 rrcurveto
            return
          </CharString>
          <CharString index="63">
            3 39 -351 0 343 403 0 38 -383 0 -4 -39 337 0 -342 -403 0 -38 rlineto
            return
          </CharString>
          <CharString index="64">
            16 39 rlineto
            -191 59 -79 42 0 58 0 64 91 43 0 62 0 38 -33 41 -83 19 rrcurveto
            return
          </CharString>
          <CharString index="65">
            87 21 33 41 0 36 0 56 -101 51 0 58 0 51 82 47 196 57 rrcurveto
            -14 40 rlineto
            -224 -71 -82 -66 0 -65 0 -73 103 -46 0 -50 0 -33 -39 -30 -137 -10 rrcurveto
            -1 -34 rlineto
            return
          </CharString>
          <CharString index="66">
            0 -50 -95 -44 0 -78 rrcurveto
            0 -72 80 -46 219 -71 rrcurveto
            return
          </CharString>
          <CharString index="67">
            223 71 81 66 0 65 0 74 -103 45 0 50 0 33 40 31 136 10 rrcurveto
            2 33 rlineto
            return
          </CharString>
          <CharString index="68">
            0 50 95 45 0 77 0 72 -79 46 -219 71 rrcurveto
            -16 -39 rlineto
            191 -59 79 -41 0 -59 0 -64 -92 -43 0 -62 0 -38 34 -41 85 -19 rrcurveto
            return
          </CharString>
          <CharString index="69">
            -88 -21 -34 -41 0 -36 0 -56 100 -50 0 -59 0 -50 -82 -48 -195 -56 rrcurveto
            return
          </CharString>
          <CharString index="70">
            2 130 -47 0 1 -130 rlineto
            return
          </CharString>
          <CharString index="71">
            36 26 -176 230 176 221 -34 29 -173 -227 -3 -47 rlineto
            return
          </CharString>
          <CharString index="72">
            -318 -39 318 hlineto
            return
          </CharString>
          <CharString index="73">
            35 -237 vlineto
            144 104 78 70 0 80 0 65 -57 51 -199 -2 rrcurveto
            -3 -34 rlineto
            173 -2 48 -34 0 -53 0 -69 -82 -67 -153 -111 rrcurveto
            4 -33 rlineto
            return
          </CharString>
          <CharString index="74">
            196 7 74 50 0 64 0 48 -47 41 -140 19 rrcurveto
            179 143 -3 33 -258 0 0 -35 213 1 0 -2 -178 -143 -1 -21 rlineto
            149 -15 49 -33 0 -39 0 -43 -63 -32 -173 -6 rrcurveto
            return
          </CharString>
          <CharString index="75">
            16 -21 rlineto
            63 41 91 70 51 52 rrcurveto
            -43 37 rlineto
            -42 -55 -79 -81 -57 -43 rrcurveto
            return
          </CharString>
          <CharString index="76">
            3 34 -120 0 0 379 -38 -3 0 -61 -129 -19 1 -28 128 11 0 -279 -134 0 0 -34 rlineto
            return
          </CharString>
          <CharString index="77">
            173 227 3 47 -174 232 -36 -26 176 -230 -176 -221 rlineto
            return
          </CharString>
          <CharString index="78">
            424 33 -424 hlineto
            return
          </CharString>
          <CharString index="79">
            3 34 -60 0 1 146 -37 -3 1 -143 -176 0 rlineto
            4 50 33 145 24 82 rrcurveto
            -41 4 rlineto
            -33 -122 -19 -123 0 -70 rrcurveto
            208 1 -1 -89 37 0 -1 89 rlineto
            return
          </CharString>
          <CharString index="80">
            196 7 74 50 0 64 0 48 -47 41 -140 19 rrcurveto
            179 143 -3 33 -258 0 0 -35 213 1 0 -2 rlineto
            return
          </CharString>
          <CharString index="81">
            -178 -143 -1 -21 rlineto
            149 -15 49 -33 0 -39 0 -43 -63 -32 -173 -6 rrcurveto
            return
          </CharString>
          <CharString index="82">
            29 28 -166 148 -1 0 -169 -152 25 -23 142 126 rlineto
            return
          </CharString>
          <CharString index="83">
            45 0 42 49 35 87 rrcurveto
            -30 12 rlineto
            -27 -64 -28 -45 -33 0 -47 0 -34 118 -64 0 -46 0 -41 -49 -35 -87 rrcurveto
            29 -12 rlineto
            27 64 29 45 33 0 rrcurveto
            47 0 34 -118 64 0 rrcurveto
            return
          </CharString>
          <CharString index="84">
            -78 -51 -44 -61 -56 54 -45 75 78 51 44 61 hvcurveto
            56 -54 45 -75 vhcurveto
            return
          </CharString>
          <CharString index="85">
            57 36 -30 -42 -42 -35 -30 -58 -57 -36 30 42 42 35 30 58 hvcurveto
            return
          </CharString>
          <CharString index="86">
            6 -342 -127 hlineto
            40 115 41 116 40 111 rrcurveto
            return
          </CharString>
          <CharString index="87">
            230 0 5 40 -190 0 0 257 163 0 0 36 -163 0 0 247 187 0 0 40 -266 0 rlineto
            -76 -207 -73 -206 -72 -207 rrcurveto
            47 hlineto
            22 66 23 68 24 68 rrcurveto
            139 hlineto
            return
          </CharString>
          <CharString index="88">
            0 236 -114 104 -281 -42 rrcurveto
            -288 -79 -35 79 -299 vlineto
            252 -42 143 120 0 246 rrcurveto
            return
          </CharString>
          <CharString index="89">
            261 155 vlineto
            2 35 -157 0 0 251 rlineto
            212 27 93 -84 0 -214 0 -203 -105 -104 -200 31 rrcurveto
            return
          </CharString>
          <CharString index="90">
            45 0 42 49 35 87 rrcurveto
            -30 12 rlineto
            -27 -64 -28 -45 -33 0 -47 0 -34 118 -64 0 -46 0 -41 -49 -35 -87 rrcurveto
            29 -12 rlineto
            27 64 29 45 33 0 47 0 34 -118 64 0 rrcurveto
            return
          </CharString>
          <CharString index="91">
            184 64 102 113 vhcurveto
            48 0 38 -17 29 -33 rrcurveto
            -250 -442 rlineto
            -28 49 -14 69 0 88 rrcurveto
            return
          </CharString>
          <CharString index="92">
            -48 0 -39 17 -29 33 rrcurveto
            251 441 rlineto
            28 -48 14 -69 0 -88 0 -184 -65 -102 -112 0 rrcurveto
            return
          </CharString>
          <CharString index="93">
            141 0 90 121 -1 213 rrcurveto
            return
          </CharString>
          <CharString index="94">
            -1 104 -21 81 -39 54 rrcurveto
            42 72 rlineto
            return
          </CharString>
          <CharString index="95">
            -31 17 -35 -62 rlineto
            -34 33 -44 17 -52 0 -141 0 -90 -120 0 -214 0 -104 22 -81 40 -54 rrcurveto
            -41 -72 rlineto
            return
          </CharString>
          <CharString index="96">
            31 -17 34 61 rlineto
            35 -32 43 -17 52 0 rrcurveto
            return
          </CharString>
          <CharString index="97">
            -72 -49 34 61 hvcurveto
            0 83 80 46 209 -22 0 -59 1 -38 1 -36 -43 -38 -64 -31 -63 0 rrcurveto
            return
          </CharString>
          <CharString index="98">
            45 0 42 49 35 87 rrcurveto
            -30 12 rlineto
            -27 -64 -28 -45 -33 0 rrcurveto
            return
          </CharString>
          <CharString index="99">
            -47 0 -34 118 -64 0 -46 0 -41 -49 -35 -87 rrcurveto
            29 -12 rlineto
            27 64 29 45 33 0 rrcurveto
            47 0 34 -118 64 0 rrcurveto
            return
          </CharString>
          <CharString index="100">
            5 40 rlineto
            -160 4 -42 60 -1 130 rrcurveto
            214 6 rlineto
            10 157 -41 94 -83 0 -56 0 -42 -40 -22 -64 rrcurveto
            return
          </CharString>
          <CharString index="101">
            60 0 25 -63 -4 -119 rrcurveto
            -172 -4 rlineto
            3 124 34 62 54 0 rrcurveto
            return
          </CharString>
          <CharString index="102">
            0 75 59 26 101 4 0 -44 5 -39 12 -32 -25 -43 -37 -34 -44 0 rrcurveto
            return
          </CharString>
          <CharString index="103">
            3 35 -196 0 0 445 -233 0 -4 -30 193 -8 0 -407 -196 0 0 -35 rlineto
            return
          </CharString>
          <CharString index="104">
            0 187 -2 127 -3 83 47 33 50 22 59 0 rrcurveto
            return
          </CharString>
          <CharString index="105">
            133 70 78 97 vhcurveto
            39 0 35 -13 28 -25 rrcurveto
            -226 -328 rlineto
            -27 37 -16 52 0 66 rrcurveto
            return
          </CharString>
          <CharString index="106">
            -38 0 -34 12 -28 24 rrcurveto
            226 329 rlineto
            27 -37 15 -52 0 -64 0 -134 -70 -78 -98 0 rrcurveto
            return
          </CharString>
          <CharString index="107">
            0 77 -22 62 -37 42 rrcurveto
            42 59 rlineto
            return
          </CharString>
          <CharString index="108">
            -29 20 -38 -55 rlineto
            -33 27 -42 14 -46 0 -117 0 -100 -103 0 -155 0 -78 23 -63 38 -43 rrcurveto
            -42 -59 rlineto
            return
          </CharString>
          <CharString index="109">
            29 -20 39 55 rlineto
            33 -25 40 -14 45 0 rrcurveto
            return
          </CharString>
          <CharString index="110">
            67 0 61 53 56 90 rrcurveto
            -29 15 rlineto
            -53 -78 -42 -42 -57 0 -52 0 -38 34 -54 90 rrcurveto
            -33 -20 rlineto
            56 -96 54 -46 64 0 rrcurveto
            return
          </CharString>
          <CharString index="111">
            5 38 rlineto
            -91 11 -35 16 0 26 rrcurveto
            return
          </CharString>
          <CharString index="112">
            5 130 -46 0 -3 -130 rlineto
            return
          </CharString>
          <CharString index="113">
            169 151 -25 24 -142 -127 -140 127 -29 -28 166 -147 rlineto
            return
          </CharString>
          <CharString index="114">
            20 -9 rlineto
            64 93 8 81 -19 72 rrcurveto
            -58 -2 rlineto
            25 -71 12 -69 -52 -95 rrcurveto
            return
          </CharString>
          <CharString index="115">
            21 -7 rlineto
            53 70 9 71 -15 57 -8 0 -45 -3 -7 0 24 -56 10 -57 -42 -75 rrcurveto
            return
          </CharString>
          <CharString index="116">
            -21 7 rlineto
            -53 -70 -9 -71 15 -57 rrcurveto
            60 3 rlineto
            -24 56 -10 57 42 75 rrcurveto
            return
          </CharString>
          <CharString index="117">
            21 -7 rlineto
            53 70 9 71 -15 57 -8 0 -45 -3 -7 0 rrcurveto
            24 -56 10 -57 -42 -75 rrcurveto
            return
          </CharString>
          <CharString index="118">
            22 -16 rlineto
            47 53 59 80 31 54 rrcurveto
            -50 25 rlineto
            -25 -56 -45 -86 -39 -54 rrcurveto
            return
          </CharString>
          <CharString index="119">
            22 -15 rlineto
            48 53 58 80 32 54 rrcurveto
            -52 23 rlineto
            -24 -57 -45 -84 -39 -54 rrcurveto
            return
          </CharString>
          <CharString index="120">
            -78 -51 -44 -61 -56 54 -45 75 78 51 44 61 56 -54 45 -75 hvcurveto
            return
          </CharString>
          <CharString index="121">
            -23 9 rlineto
            -85 -86 -20 -91 29 -117 rrcurveto
            71 8 rlineto
            -50 116 5 77 73 84 rrcurveto
            return
          </CharString>
          <CharString index="122">
            23 -9 rlineto
            85 86 20 91 -29 117 rrcurveto
            -71 -8 rlineto
            50 -116 -5 -77 -73 -84 rrcurveto
            return
          </CharString>
          <CharString index="123">
            4 86 -79 0 -4 -86 rlineto
            return
          </CharString>
          <CharString index="124">
            30 30 -248 225 252 222 -29 31 -256 -229 -3 -47 rlineto
            return
          </CharString>
          <CharString index="125">
            256 229 3 47 -254 232 -30 -30 248 -225 -252 -222 rlineto
            return
          </CharString>
          <CharString index="126">
            97 63 85 127 125 -55 76 -95 -98 -62 -86 -126 -125 55 -76 95 hvcurveto
            return
          </CharString>
          <CharString index="127">
            75 41 -65 -109 -107 -40 -64 -78 -75 -41 65 109 107 40 64 78 hvcurveto
            return
          </CharString>
          <CharString index="128">
            0 53 -52 45 -170 13 rrcurveto
            10 122 195 0 4 35 -231 0 -14 -187 rlineto
            170 -10 52 -32 0 -39 0 -51 -63 -35 -169 -14 rrcurveto
            3 -37 rlineto
            183 15 82 52 0 70 rrcurveto
            return
          </CharString>
          <CharString index="129">
            78 68 53 82 hvcurveto
            0 120 -152 33 -98 -92 12 79 57 61 122 50 rrcurveto
            -15 33 rlineto
            -146 -62 -69 -91 0 -111 rrcurveto
            -101 59 -54 84 vhcurveto
            return
          </CharString>
          <CharString index="130">
            -66 -46 42 85 hvcurveto
            8 vlineto
            94 79 122 -20 0 -98 rrcurveto
            -59 -48 -37 -56 vhcurveto
            return
          </CharString>
          <CharString index="131">
            47 125 65 124 79 119 rrcurveto
            33 -282 vlineto
            -3 -35 245 0 1 -3 rlineto
            -80 -116 -65 -120 -46 -122 rrcurveto
            return
          </CharString>
          <CharString index="132">
            91 59 48 56 hvcurveto
            0 50 -53 30 -56 27 rrcurveto
            return
          </CharString>
          <CharString index="133">
            63 28 39 33 0 49 rrcurveto
            55 -56 37 -73 -89 -51 -52 -48 vhcurveto
            0 -48 47 -30 52 -26 rrcurveto
            return
          </CharString>
          <CharString index="134">
            -65 -27 -42 -38 0 -50 rrcurveto
            -56 54 -38 80 vhcurveto
            return
          </CharString>
          <CharString index="135">
            33 33 29 63 61 36 -27 -39 vhcurveto
            0 -38 -36 -28 -57 -23 rrcurveto
            -52 26 -48 26 0 41 rrcurveto
            return
          </CharString>
          <CharString index="136">
            -64 -38 30 41 hvcurveto
            0 38 35 32 61 22 57 -27 54 -26 0 -42 rrcurveto
            -38 -40 -30 -65 vhcurveto
            return
          </CharString>
          <CharString index="137">
            146 62 70 90 0 112 rrcurveto
            101 -60 54 -84 -78 -67 -54 -81 vhcurveto
            0 -120 149 -32 99 89 -12 -78 -57 -60 -122 -49 rrcurveto
            return
          </CharString>
          <CharString index="138">
            59 49 38 56 65 45 -42 -85 vhcurveto
            -9 vlineto
            -93 -79 -122 21 0 97 rrcurveto
            return
          </CharString>
          <CharString index="139">
            42 7 -82 263 rlineto
            33 38 26 61 0 90 0 125 -54 72 -148 -35 rrcurveto
            return
          </CharString>
          <CharString index="140">
            84 15 32 -49 0 -101 0 -76 -16 -55 -26 -38 rrcurveto
            -74 -3 rlineto
            return
          </CharString>
          <CharString index="141">
            193 -104 106 -125 -127 -98 -125 -186 -185 90 -110 128 125 111 113 194 vhcurveto
            return
          </CharString>
          <CharString index="142">
            165 81 114 111 105 93 -100 -172 -173 -96 -101 -107 -107 -80 103 164 vhcurveto
            return
          </CharString>
          <CharString index="143">
            32 0 61 239 3 0 -1 -288 34 0 0 323 -55 0 -56 -226 -2 0 -60 226 -55 0 0 -323 33 0 -1 288 3 0 rlineto
            return
          </CharString>
          <CharString index="144">
            63 28 39 33 0 49 rrcurveto
            55 -56 37 -73 -89 -51 -52 -48 vhcurveto
            return
          </CharString>
          <CharString index="145">
            0 -48 47 -30 52 -26 rrcurveto
            return
          </CharString>
          <CharString index="146">
            50 0 33 46 37 95 rrcurveto
            -31 12 rlineto
            -27 -65 -26 -51 -35 0 -55 0 -46 122 -79 0 -50 0 -36 -47 -37 -96 rrcurveto
            31 -12 rlineto
            28 66 26 52 35 0 57 0 46 -122 79 0 rrcurveto
            return
          </CharString>
          <CharString index="147">
            9 7 6 9 9 7 -6 -9 -9 -7 -7 -9 vhcurveto
            -9 -7 6 10 hvcurveto
            return
          </CharString>
          <CharString index="148">
            8 -2 3 -4 -4 -2 -3 -8 -9 2 -3 4 vhcurveto
            4 2 3 9 hvcurveto
            return
          </CharString>
          <CharString index="149">
            -6 2 -3 5 vhcurveto
            4 0 2 2 1 4 rrcurveto
            5 hlineto
            return
          </CharString>
          <CharString index="150">
            -23.83398 -48 -29.33301 -37 -37.58301 0 -55.91699 0 -29.33301 100 -91.66699 0 -91.66699 0 -25.66602 -100 -55.91699 0 -55.91699 0 -29.33301 100 -91.66699 0 -81.58301 0 -39.41699 -70 -27.5 -58 rrcurveto
            55 -30 rlineto
            23.83398 48 27.5 37 39.41602 0 58.66699 0 32.08301 -100 86.16699 0 86.16699 0 29.33301 100 57.75 0 58.66699 0 32.08301 -100 86.16699 0 80.66602 0 40.33398 69 27.5 57 rrcurveto
            return
          </CharString>
          <CharString index="151">
            77 0 -5.5 -202 174.16602 68 23.83398 -79 -177.83398 -58 112.75 -160 -61.41602 -49 -104.5 168 -104.5 -168 -61.41699 49 112.75 160 -177.83301 58 23.83301 79 174.16699 -68 rlineto
            return
          </CharString>
          <CharString index="152">
            77 0 -5.5 -202 174.16699 68 23.83301 -79 -177.83301 -58 112.75 -160 -61.41699 -49 -104.5 168 -104.5 -168 -61.41602 49 112.75 160 -177.83398 58 23.83398 79 174.16602 -68 rlineto
            return
          </CharString>
          <CharString index="153">
            0 -89 323.58398 -217 -323.58398 -218 0 -90 389.58398 265 0 86 rlineto
            return
          </CharString>
          <CharString index="154">
            390.5 880 -61.41602 32 -391.41699 -882 rlineto
            return
          </CharString>
          <CharString index="155">
            77 0 -5.5 -202 174.16699 68 23.83301 -79 -177.83301 -58 112.75 -160 -61.41699 -49 -104.5 168 -104.5 -168 -61.41699 49 112.75 160 -177.83301 58 23.83301 79 174.16699 -68 rlineto
            return
          </CharString>
          <CharString index="156">
            -68.75 -909 68.75 hlineto
            return
          </CharString>
          <CharString index="157">
            0 622 462.91699 -310 rlineto
            return
          </CharString>
          <CharString index="158">
            -132.91699 0 26.58398 222 134.75 0 rlineto
            return
          </CharString>
          <CharString index="159">
            -45 31.16699 -37 42.16699 43.08301 31.16699 37 45 44 -31.16699 36 -43.08301 -42.16699 -31.16699 -36 -44 vhcurveto
            return
          </CharString>
          <CharString index="160">
            -46 31.16699 -35 42.16699 43.08301 31.16699 35 46 44 -31.16699 37 -43.08301 -42.16699 -31.16699 -37 -44 vhcurveto
            return
          </CharString>
          <CharString index="161">
            -506.91602 -72 506.91602 hlineto
            return
          </CharString>
          <CharString index="162">
            -45 31.16699 -37 42.16602 43.08398 31.16602 37 45 44 -31.16602 36 -43.08398 -42.16602 -31.16699 -36 -44 vhcurveto
            return
          </CharString>
          <CharString index="163">
            -46 31.16699 -35 42.16602 43.08398 31.16602 35 46 44 -31.16602 37 -43.08398 -42.16602 -31.16699 -37 -44 vhcurveto
            return
          </CharString>
          <CharString index="164">
            -66.91699 29 -19.25 30 0 47 0 57 36.66699 39 49.5 9 rrcurveto
            return
          </CharString>
          <CharString index="165">
            0 -101 -55 -38 -60.5 -14 rrcurveto
            290 vlineto
            68.75 -32 46.75 -52 0 -53 rrcurveto
            return
          </CharString>
          <CharString index="166">
            -905.66602 -72 905.66602 hlineto
            return
          </CharString>
          <CharString index="167">
            -86.16699 0 rlineto
            return
          </CharString>
          <CharString index="168">
            9.16699 -462 68.75 0 rlineto
            return
          </CharString>
          <CharString index="169">
            -34.83301 -26.58301 -30 -37 -38 26.58301 -29 34.83301 35.75 25.66699 29 38 37 -25.66699 30 -35.75 hvcurveto
            return
          </CharString>
          <CharString index="170">
            -30.25 -65 363 -204 -363 -204 30.25 -65 405.16602 226 0 85 rlineto
            return
          </CharString>
          <CharString index="171">
            -30.25 -65 363 -204 -363 -204 30.25 -65 405.16699 226 0 85 rlineto
            return
          </CharString>
          <CharString index="172">
            348.33398 72 -348.33398 hlineto
            return
          </CharString>
          <CharString index="173">
            -389.58301 -262 0 -87 389.58301 -265 0 89 -323.58301 219 323.58301 217 rlineto
            return
          </CharString>
          <CharString index="174">
            -462.91699 312 462.91699 310 rlineto
            return
          </CharString>
          <CharString index="175">
            44 -31.16699 36 -42.16602 -43.08398 -31.16602 -36 -44 -45 31.16602 -37 43.08398 42.16602 31.16699 37 45 vhcurveto
            return
          </CharString>
          <CharString index="176">
            44 -31.16699 37 -42.16602 -43.08398 -31.16602 -37 -44 -46 31.16602 -35 43.08398 42.16602 31.16699 35 46 vhcurveto
            return
          </CharString>
          <CharString index="177">
            -405.16699 -227 0 -85 405.16699 -226 30.25 65 -363 204 363 204 rlineto
            return
          </CharString>
          <CharString index="178">
            -405.16602 -227 0 -85 405.16602 -226 30.25 65 -363 204 363 204 rlineto
            return
          </CharString>
          <CharString index="179">
            -71.5 -249 -223.66699 -70 223.66699 -249 71.5 249 225.5 70 -225.5 hlineto
            return
          </CharString>
          <CharString index="180">
            -423.5 -65 423.5 hlineto
            return
          </CharString>
          <CharString index="181">
            81.58301 66 -73.33301 hlineto
            21.08301 167 -65.08301 0 -21.08301 -167 -133.83398 0 21.08398 167 -65.08398 0 -21.08301 -167 -81.58301 0 0 -66 74.25 0 -28.41699 -222 -79.75 0 0 -64 72.41699 0 -20.16699 -170 rlineto
            65.08301 0 21.08398 170 132.91602 0 -20.16602 -170 65.08301 0 19.25 170 83.41699 0 0 64 -74.25 0 rlineto
            return
          </CharString>
          <CharString index="182">
            26.58301 222 134.75 0 -28.41602 -222 rlineto
            return
          </CharString>
          <CharString index="183">
            -285.08301 0 26.58301 222 286.91699 0 rlineto
            return
          </CharString>
          <CharString index="184">
            26.58398 222 134.75 0 -28.41699 -222 rlineto
            return
          </CharString>
          <CharString index="185">
            -85.25 -49.5 -74 -86 -85 49.5 -77 85.25 86.16699 48.58301 77 85 86 -48.58301 74 -86.16699 hvcurveto
            return
          </CharString>
          <CharString index="186">
            -50 34.83301 -38 45.83301 46.75 33.91699 38 50 49 -33.91699 39 -46.75 -45.83301 -34.83301 -39 -49 vhcurveto
            return
          </CharString>
          <CharString index="187">
            -34.83301 -25.66699 -30 -37 -38 25.66699 -29 34.83301 35.75 26.58398 29 38 37 -26.58398 30 -35.75 hvcurveto
            return
          </CharString>
          <CharString index="188">
            -34.83398 -26.58301 -30 -37 -38 26.58301 -29 34.83398 35.75 25.66602 29 38 37 -25.66602 30 -35.75 hvcurveto
            return
          </CharString>
          <CharString index="189">
            -73.33398 0 -65.08301 -31 -53.16699 -68 rrcurveto
            54.08398 -45 rlineto
            38.5 51 48.58301 23 43.08301 0 61.41699 0 46.75 -33 0 -57 0 -113 -162.25 1 0 -162 rrcurveto
            -39 77 34 vlineto
            0 147 165.91699 -23 0 160 rrcurveto
            79 -68.75 76 -112.75 vhcurveto
            return
          </CharString>
          <CharString index="190">
            -34.83301 -26.58398 -30 -37 -38 26.58398 -29 34.83301 35.75 25.66699 29 38 37 -25.66699 30 -35.75 hvcurveto
            return
          </CharString>
          <CharString index="191">
            390.5 880 -61.41699 32 -391.41602 -882 rlineto
            return
          </CharString>
          <CharString index="192">
            -483.08301 0 -33 -72 516.08301 0 rlineto
            return
          </CharString>
          <CharString index="193">
            -567.41699 0 -33 -72 600.41699 0 rlineto
            return
          </CharString>
          <CharString index="194">
            -69.66699 -801 69.66699 hlineto
            return
          </CharString>
          <CharString index="195">
            -599.5 -72 599.5 hlineto
            return
          </CharString>
          <CharString index="196">
            -506.91699 -72 506.91699 hlineto
            return
          </CharString>
          <CharString index="197">
            -1455.66602 -72 1455.66602 hlineto
            return
          </CharString>
          <CharString index="198">
            -590.33301 -72 590.33301 hlineto
            return
          </CharString>
          <CharString index="199">
            -57.75 -54 209.91699 -251 -209.91699 -251 57.75 -54 248.41699 305 rlineto
            return
          </CharString>
          <CharString index="200">
            -248.41699 -305 248.41699 -305 57.75 54 -209.91699 251 209.91699 251 rlineto
            return
          </CharString>
          <CharString index="201">
            395.08301 72 -395.08301 hlineto
            return
          </CharString>
          <CharString index="202">
            -57.75 54 -248.41699 -305 248.41699 -305 57.75 54 -209.91699 251 rlineto
            return
          </CharString>
          <CharString index="203">
            -352 -237 0 -87 348.33398 -237 41.25 61 -323.58398 219 323.58398 217 rlineto
            return
          </CharString>
          <CharString index="204">
            -389.58398 -262 0 -87 389.58398 -265 0 89 -323.58398 219 323.58398 217 rlineto
            return
          </CharString>
          <CharString index="205">
            0 -89 323.58301 -217 -323.58301 -218 0 -90 389.58301 265 0 86 rlineto
            return
          </CharString>
          <CharString index="206">
            -801 69.66699 801 vlineto
            return
          </CharString>
          <CharString index="207">
            -50 34.83398 -38 45.83301 46.75 33.91699 38 50 49 -33.91699 39 -46.75 -45.83301 -34.83398 -39 -49 vhcurveto
            return
          </CharString>
        <CharString name=".notdef">
          -200 50 900 50 hstem
          5 54 432 54 vstem
          5 -200 rmoveto
          540 1000 -540 hlineto
          77 -50 rmoveto
          386 0 -193 -390 rlineto
          216 316 rmoveto
          0 -752 -186 376 rlineto
          -246 -376 rmoveto
          0 752 186 -376 rlineto
          30 -60 rmoveto
          193 -390 -386 0 rlineto
          endchar
        </CharString>
        <CharString name="A">
          19 -21 23 -21 23 -21 210 36 332 43 hstemhm
          48 454 hintmask 10011100
          457 -2 rmoveto
          hintmask 00111100
          -102 callsubr
          hintmask 01011100
          -101 callsubr
          hintmask 00111100
          -187 582 rmoveto
          -100 callsubr
          endchar
        </CharString>
        <CharString name="AE">
          0 40 162 36 59 36 247 40 hstem
          267 45 vstem
          261 580 rmoveto
          -21 callsubr
          6 -580 rmoveto
          -20 callsubr
          endchar
        </CharString>
        <CharString name="AEacute">
          0 40 162 36 59 36 247 40 hstem
          267 45 vstem
          229 717 rmoveto
          -32 callsubr
          32 -137 rmoveto
          -21 callsubr
          6 -580 rmoveto
          -20 callsubr
          endchar
        </CharString>
        <CharString name="Aacute">
          19 -21 23 -21 23 -21 210 36 332 43 hstemhm
          48 454 hintmask 00111100
          186 717 rmoveto
          -32 callsubr
          hintmask 10011100
          271 -719 rmoveto
          hintmask 00111100
          -102 callsubr
          hintmask 01011100
          -101 callsubr
          hintmask 00111100
          -187 582 rmoveto
          -100 callsubr
          endchar
        </CharString>
        <CharString name="Abreve">
          19 -21 23 -21 23 -21 210 36 332 43 82 38 hstemhm
          48 454 hintmask 00111110
          270 705 rmoveto
          3 callsubr
          hintmask 10011110
          187 -707 rmoveto
          hintmask 00111110
          -102 callsubr
          hintmask 01011110
          -101 callsubr
          hintmask 00111110
          -187 582 rmoveto
          -100 callsubr
          endchar
        </CharString>
        <CharString name="Acircumflex">
          19 -21 23 -21 23 -21 210 36 332 43 hstemhm
          48 454 hintmask 00111100
          413 700 rmoveto
          -25 callsubr
          hintmask 10011100
          184 -829 rmoveto
          hintmask 00111100
          -102 callsubr
          hintmask 01011100
          -101 callsubr
          hintmask 00111100
          -187 582 rmoveto
          -100 callsubr
          endchar
        </CharString>
        <CharString name="Adieresis">
          19 -21 23 -21 23 -21 210 36 332 43 82 130 hstemhm
          144.5 45.5 171.5 45.5 hintmask 00111111
          406 705 rmoveto
          -37 callsubr
          -173 hmoveto
          -37 callsubr
          hintmask 10011111
          312 -707 rmoveto
          hintmask 00111111
          -102 callsubr
          hintmask 01011111
          -101 callsubr
          hintmask 00111111
          -187 582 rmoveto
          -100 callsubr
          endchar
        </CharString>
        <CharString name="Agrave">
          19 -21 23 -21 23 -21 210 36 332 43 hstemhm
          48 454 hintmask 00111100
          360 708 rmoveto
          -77 callsubr
          hintmask 10011100
          113 -690 rmoveto
          hintmask 00111100
          -102 callsubr
          hintmask 01011100
          -101 callsubr
          hintmask 00111100
          -187 582 rmoveto
          -100 callsubr
          endchar
        </CharString>
        <CharString name="Amacron">
          19 -21 23 -21 23 -21 210 36 332 43 131 39 hstemhm
          48 454 hintmask 00111110
          433 793 rmoveto
          -35 callsubr
          hintmask 10011110
          24 -756 rmoveto
          hintmask 00111110
          -102 callsubr
          hintmask 01011110
          -101 callsubr
          hintmask 00111110
          -187 582 rmoveto
          -100 callsubr
          endchar
        </CharString>
        <CharString name="Aogonek">
          21 -21 23 -21 210 36 332 43 hstemhm
          319 40 hintmask 01111000
          480 -203 rmoveto
          5 38 rlineto
          -91 11 -35 16 0 26 0 25 30 33 113 56 -62 207 -64 205 -69 209 rrcurveto
          -64 hlineto
          hintmask 10111000
          -69 -210 -64 -206 -62 -207 rrcurveto
          44 hlineto
          21 71 21 71 21 70 rrcurveto
          238 hlineto
          21 -68 20 -68 20 -69 -101 -54 -34 -36 0 -37 rrcurveto
          0 -43 42 -26 119 -14 rrcurveto
          -210 783 rmoveto
          -100 callsubr
          endchar
        </CharString>
        <CharString name="Aring">
          19 -21 23 -21 23 -21 210 36 332 43 60 31 144 31 hstemhm
          144 36 186 36 hintmask 0011111110000000
          273 889 rmoveto
          -23 callsubr
          -31 vmoveto
          -22 callsubr
          hintmask 1001111110000000
          184 -860 rmoveto
          hintmask 0011111110000000
          -102 callsubr
          hintmask 0101111110000000
          -101 callsubr
          hintmask 0011111110000000
          -187 582 rmoveto
          -100 callsubr
          endchar
        </CharString>
        <CharString name="Aringacute">
          19 -21 23 -21 23 -21 210 36 332 43 60 31 144 31 hstemhm
          144 36 186 36 hintmask 0011111110000000
          186 958 rmoveto
          -32 callsubr
          87 -69 rmoveto
          13 callsubr
          -31 vmoveto
          -22 callsubr
          hintmask 1001111110000000
          184 -860 rmoveto
          hintmask 0011111110000000
          -102 callsubr
          hintmask 0101111110000000
          -101 callsubr
          hintmask 0011111110000000
          -187 582 rmoveto
          -100 callsubr
          endchar
        </CharString>
        <CharString name="Atilde">
          19 -21 23 -21 23 -21 210 36 332 43 82 39 79 39 hstemhm
          48 454 hintmask 00111111
          351 705 rmoveto
          -24 callsubr
          hintmask 10011111
          106 -707 rmoveto
          hintmask 00111111
          -102 callsubr
          hintmask 01011111
          -101 callsubr
          hintmask 00111111
          -187 582 rmoveto
          -100 callsubr
          endchar
        </CharString>
        <CharString name="B">
          -9 39 -9 -21 294 38 258 38 -8 -20 hstemhm
          107 45 269 43 -23 45 hintmask 10110101
          486 169 rmoveto
          -1 94 -69 46 -97 11 rrcurveto
          hintmask 01101110
          80 17 65 49 0 93 0 129 -137 39 -220 -27 rrcurveto
          -620 vlineto
          213 -30 167 46 -1 153 rrcurveto
          -334 416 rmoveto
          hintmask 10110110
          160 18 109 -28 0 -106 0 -95 -75 -47 -194 5 rrcurveto
          hintmask 10110101
          -295 vmoveto
          257 vlineto
          191 6 98 -25 0 -111 rrcurveto
          0 -120 -119 -30 -170 23 rrcurveto
          endchar
        </CharString>
        <CharString name="C">
          -3 40 546 43 hstem
          72 45 vstem
          473 37 rmoveto
          -99 callsubr
          endchar
        </CharString>
        <CharString name="CR.1.0">
          endchar
        </CharString>
        <CharString name="CR.10.0">
          endchar
        </CharString>
        <CharString name="CR.100.0">
          endchar
        </CharString>
        <CharString name="CR.100.1">
          endchar
        </CharString>
        <CharString name="CR.101.0">
          endchar
        </CharString>
        <CharString name="CR.101.1">
          endchar
        </CharString>
        <CharString name="CR.102.0">
          endchar
        </CharString>
        <CharString name="CR.102.1">
          endchar
        </CharString>
        <CharString name="CR.103.0">
          endchar
        </CharString>
        <CharString name="CR.103.1">
          endchar
        </CharString>
        <CharString name="CR.104.0">
          endchar
        </CharString>
        <CharString name="CR.104.1">
          endchar
        </CharString>
        <CharString name="CR.105.0">
          endchar
        </CharString>
        <CharString name="CR.105.1">
          endchar
        </CharString>
        <CharString name="CR.106.0">
          endchar
        </CharString>
        <CharString name="CR.106.1">
          endchar
        </CharString>
        <CharString name="CR.107.0">
          endchar
        </CharString>
        <CharString name="CR.107.1">
          endchar
        </CharString>
        <CharString name="CR.108.0">
          endchar
        </CharString>
        <CharString name="CR.108.1">
          endchar
        </CharString>
        <CharString name="CR.109.0">
          endchar
        </CharString>
        <CharString name="CR.109.1">
          endchar
        </CharString>
        <CharString name="CR.11.0">
          endchar
        </CharString>
        <CharString name="CR.110.0">
          endchar
        </CharString>
        <CharString name="CR.110.1">
          endchar
        </CharString>
        <CharString name="CR.111.0">
          endchar
        </CharString>
        <CharString name="CR.111.1">
          endchar
        </CharString>
        <CharString name="CR.112.0">
          endchar
        </CharString>
        <CharString name="CR.112.1">
          endchar
        </CharString>
        <CharString name="CR.113.0">
          endchar
        </CharString>
        <CharString name="CR.113.1">
          endchar
        </CharString>
        <CharString name="CR.114.0">
          endchar
        </CharString>
        <CharString name="CR.114.1">
          endchar
        </CharString>
        <CharString name="CR.115.0">
          endchar
        </CharString>
        <CharString name="CR.115.1">
          endchar
        </CharString>
        <CharString name="CR.116.0">
          endchar
        </CharString>
        <CharString name="CR.116.1">
          endchar
        </CharString>
        <CharString name="CR.117.0">
          endchar
        </CharString>
        <CharString name="CR.117.1">
          endchar
        </CharString>
        <CharString name="CR.118.0">
          endchar
        </CharString>
        <CharString name="CR.118.1">
          endchar
        </CharString>
        <CharString name="CR.119.0">
          endchar
        </CharString>
        <CharString name="CR.119.1">
          endchar
        </CharString>
        <CharString name="CR.12.0">
          endchar
        </CharString>
        <CharString name="CR.120.0">
          endchar
        </CharString>
        <CharString name="CR.120.1">
          endchar
        </CharString>
        <CharString name="CR.121.0">
          endchar
        </CharString>
        <CharString name="CR.121.1">
          endchar
        </CharString>
        <CharString name="CR.122.0">
          endchar
        </CharString>
        <CharString name="CR.122.1">
          endchar
        </CharString>
        <CharString name="CR.123.0">
          endchar
        </CharString>
        <CharString name="CR.123.1">
          endchar
        </CharString>
        <CharString name="CR.124.0">
          endchar
        </CharString>
        <CharString name="CR.124.1">
          endchar
        </CharString>
        <CharString name="CR.125.0">
          endchar
        </CharString>
        <CharString name="CR.125.1">
          endchar
        </CharString>
        <CharString name="CR.126.0">
          endchar
        </CharString>
        <CharString name="CR.126.1">
          endchar
        </CharString>
        <CharString name="CR.126.2">
          endchar
        </CharString>
        <CharString name="CR.127.0">
          endchar
        </CharString>
        <CharString name="CR.127.1">
          endchar
        </CharString>
        <CharString name="CR.127.2">
          endchar
        </CharString>
        <CharString name="CR.128.0">
          endchar
        </CharString>
        <CharString name="CR.128.1">
          endchar
        </CharString>
        <CharString name="CR.128.2">
          endchar
        </CharString>
        <CharString name="CR.129.0">
          endchar
        </CharString>
        <CharString name="CR.129.1">
          endchar
        </CharString>
        <CharString name="CR.129.2">
          endchar
        </CharString>
        <CharString name="CR.13.0">
          endchar
        </CharString>
        <CharString name="CR.130.0">
          endchar
        </CharString>
        <CharString name="CR.130.1">
          endchar
        </CharString>
        <CharString name="CR.130.2">
          endchar
        </CharString>
        <CharString name="CR.14.0">
          endchar
        </CharString>
        <CharString name="CR.15.0">
          endchar
        </CharString>
        <CharString name="CR.16.0">
          endchar
        </CharString>
        <CharString name="CR.17.0">
          endchar
        </CharString>
        <CharString name="CR.18.0">
          endchar
        </CharString>
        <CharString name="CR.19.0">
          endchar
        </CharString>
        <CharString name="CR.2.0">
          endchar
        </CharString>
        <CharString name="CR.20.0">
          endchar
        </CharString>
        <CharString name="CR.21.0">
          endchar
        </CharString>
        <CharString name="CR.22.0">
          endchar
        </CharString>
        <CharString name="CR.23.0">
          endchar
        </CharString>
        <CharString name="CR.24.0">
          endchar
        </CharString>
        <CharString name="CR.25.0">
          endchar
        </CharString>
        <CharString name="CR.26.0">
          endchar
        </CharString>
        <CharString name="CR.27.0">
          endchar
        </CharString>
        <CharString name="CR.28.0">
          endchar
        </CharString>
        <CharString name="CR.29.0">
          endchar
        </CharString>
        <CharString name="CR.3.0">
          endchar
        </CharString>
        <CharString name="CR.30.0">
          endchar
        </CharString>
        <CharString name="CR.31.0">
          endchar
        </CharString>
        <CharString name="CR.32.0">
          endchar
        </CharString>
        <CharString name="CR.33.0">
          endchar
        </CharString>
        <CharString name="CR.34.0">
          endchar
        </CharString>
        <CharString name="CR.35.0">
          endchar
        </CharString>
        <CharString name="CR.36.0">
          endchar
        </CharString>
        <CharString name="CR.37.0">
          endchar
        </CharString>
        <CharString name="CR.38.0">
          endchar
        </CharString>
        <CharString name="CR.39.0">
          endchar
        </CharString>
        <CharString name="CR.4.0">
          endchar
        </CharString>
        <CharString name="CR.40.0">
          endchar
        </CharString>
        <CharString name="CR.41.0">
          endchar
        </CharString>
        <CharString name="CR.42.0">
          endchar
        </CharString>
        <CharString name="CR.43.0">
          endchar
        </CharString>
        <CharString name="CR.44.0">
          endchar
        </CharString>
        <CharString name="CR.45.0">
          endchar
        </CharString>
        <CharString name="CR.46.0">
          endchar
        </CharString>
        <CharString name="CR.47.0">
          endchar
        </CharString>
        <CharString name="CR.48.0">
          endchar
        </CharString>
        <CharString name="CR.49.0">
          endchar
        </CharString>
        <CharString name="CR.5.0">
          endchar
        </CharString>
        <CharString name="CR.50.0">
          endchar
        </CharString>
        <CharString name="CR.51.0">
          endchar
        </CharString>
        <CharString name="CR.52.0">
          endchar
        </CharString>
        <CharString name="CR.53.0">
          endchar
        </CharString>
        <CharString name="CR.54.0">
          endchar
        </CharString>
        <CharString name="CR.55.0">
          endchar
        </CharString>
        <CharString name="CR.56.0">
          endchar
        </CharString>
        <CharString name="CR.57.0">
          endchar
        </CharString>
        <CharString name="CR.58.0">
          endchar
        </CharString>
        <CharString name="CR.59.0">
          endchar
        </CharString>
        <CharString name="CR.6.0">
          endchar
        </CharString>
        <CharString name="CR.60.0">
          endchar
        </CharString>
        <CharString name="CR.61.0">
          endchar
        </CharString>
        <CharString name="CR.62.0">
          endchar
        </CharString>
        <CharString name="CR.63.0">
          endchar
        </CharString>
        <CharString name="CR.64.0">
          endchar
        </CharString>
        <CharString name="CR.65.0">
          endchar
        </CharString>
        <CharString name="CR.66.0">
          endchar
        </CharString>
        <CharString name="CR.67.0">
          endchar
        </CharString>
        <CharString name="CR.68.0">
          endchar
        </CharString>
        <CharString name="CR.69.0">
          endchar
        </CharString>
        <CharString name="CR.7.0">
          endchar
        </CharString>
        <CharString name="CR.70.0">
          endchar
        </CharString>
        <CharString name="CR.71.0">
          endchar
        </CharString>
        <CharString name="CR.72.0">
          endchar
        </CharString>
        <CharString name="CR.73.0">
          endchar
        </CharString>
        <CharString name="CR.74.0">
          endchar
        </CharString>
        <CharString name="CR.75.0">
          endchar
        </CharString>
        <CharString name="CR.75.1">
          endchar
        </CharString>
        <CharString name="CR.76.0">
          endchar
        </CharString>
        <CharString name="CR.76.1">
          endchar
        </CharString>
        <CharString name="CR.77.0">
          endchar
        </CharString>
        <CharString name="CR.77.1">
          endchar
        </CharString>
        <CharString name="CR.78.0">
          endchar
        </CharString>
        <CharString name="CR.78.1">
          endchar
        </CharString>
        <CharString name="CR.79.0">
          endchar
        </CharString>
        <CharString name="CR.79.1">
          endchar
        </CharString>
        <CharString name="CR.8.0">
          endchar
        </CharString>
        <CharString name="CR.80.0">
          endchar
        </CharString>
        <CharString name="CR.80.1">
          endchar
        </CharString>
        <CharString name="CR.81.0">
          endchar
        </CharString>
        <CharString name="CR.81.1">
          endchar
        </CharString>
        <CharString name="CR.82.0">
          endchar
        </CharString>
        <CharString name="CR.82.1">
          endchar
        </CharString>
        <CharString name="CR.83.0">
          endchar
        </CharString>
        <CharString name="CR.83.1">
          endchar
        </CharString>
        <CharString name="CR.84.0">
          endchar
        </CharString>
        <CharString name="CR.84.1">
          endchar
        </CharString>
        <CharString name="CR.85.0">
          endchar
        </CharString>
        <CharString name="CR.85.1">
          endchar
        </CharString>
        <CharString name="CR.86.0">
          endchar
        </CharString>
        <CharString name="CR.86.1">
          endchar
        </CharString>
        <CharString name="CR.87.0">
          endchar
        </CharString>
        <CharString name="CR.87.1">
          endchar
        </CharString>
        <CharString name="CR.88.0">
          endchar
        </CharString>
        <CharString name="CR.88.1">
          endchar
        </CharString>
        <CharString name="CR.89.0">
          endchar
        </CharString>
        <CharString name="CR.89.1">
          endchar
        </CharString>
        <CharString name="CR.9.0">
          endchar
        </CharString>
        <CharString name="CR.90.0">
          endchar
        </CharString>
        <CharString name="CR.90.1">
          endchar
        </CharString>
        <CharString name="CR.91.0">
          endchar
        </CharString>
        <CharString name="CR.91.1">
          endchar
        </CharString>
        <CharString name="CR.92.0">
          endchar
        </CharString>
        <CharString name="CR.92.1">
          endchar
        </CharString>
        <CharString name="CR.93.0">
          endchar
        </CharString>
        <CharString name="CR.93.1">
          endchar
        </CharString>
        <CharString name="CR.94.0">
          endchar
        </CharString>
        <CharString name="CR.94.1">
          endchar
        </CharString>
        <CharString name="CR.95.0">
          endchar
        </CharString>
        <CharString name="CR.95.1">
          endchar
        </CharString>
        <CharString name="CR.96.0">
          endchar
        </CharString>
        <CharString name="CR.96.1">
          endchar
        </CharString>
        <CharString name="CR.97.0">
          endchar
        </CharString>
        <CharString name="CR.97.1">
          endchar
        </CharString>
        <CharString name="CR.98.0">
          endchar
        </CharString>
        <CharString name="CR.98.1">
          endchar
        </CharString>
        <CharString name="CR.99.0">
          endchar
        </CharString>
        <CharString name="CR.99.1">
          endchar
        </CharString>
        <CharString name="Cacute">
          -3 40 546 43 hstem
          72 45 vstem
          227 717 rmoveto
          -32 callsubr
          246 -680 rmoveto
          -99 callsubr
          endchar
        </CharString>
        <CharString name="Ccaron">
          -3 40 546 43 hstem
          72 45 vstem
          320 695 rmoveto
          6 callsubr
          154 -658 rmoveto
          -99 callsubr
          endchar
        </CharString>
        <CharString name="Ccedilla">
          -3 40 -17 -21 584 43 hstemhm
          72 45 220 39 hintmask 10111000
          376 -110 rmoveto
          0 36 -34 40 -65 45 52 -13 63 -5 77 4 rrcurveto
          4 40 rlineto
          -285 -11 -71 107 0 172 0 151 61 115 289 12 rrcurveto
          -3 43 rlineto
          -299 -14 -93 -146 0 -168 rrcurveto
          hintmask 01111000
          0 -128 42 -106 135 -45 rrcurveto
          hintmask 10111000
          -12 -20 rlineto
          73 -48 27 -35 0 -24 0 -25 -36 -17 -90 -15 rrcurveto
          5 -38 rlineto
          106 17 54 31 0 45 rrcurveto
          endchar
        </CharString>
        <CharString name="Cdotaccent">
          -3 40 546 43 79 130 hstem
          72 45 175.5 45 vstem
          335 705 rmoveto
          5 callsubr
          182 -668 rmoveto
          -99 callsubr
          endchar
        </CharString>
        <CharString name="D">
          -9 41 -12 -21 590 41 -9 -20 hstemhm
          97 45 305 45 hintmask 10101100
          492 323 rmoveto
          hintmask 01011100
          -98 callsubr
          -45 -10 rmoveto
          -97 callsubr
          endchar
        </CharString>
        <CharString name="Dcaron">
          -9 41 -12 -21 590 41 -9 -20 hstemhm
          97 45 305 45 hintmask 10101100
          274 702 rmoveto
          6 callsubr
          219 -379 rmoveto
          hintmask 01011100
          -98 callsubr
          -45 -10 rmoveto
          -97 callsubr
          endchar
        </CharString>
        <CharString name="Dcroat">
          -9 41 -12 -21 299 35 256 41 -9 -20 hstemhm
          97 45 305 45 hintmask 10110110
          492 323 rmoveto
          hintmask 01101110
          -19 callsubr
          -350 -286 rmoveto
          -18 callsubr
          endchar
        </CharString>
        <CharString name="E">
          0 40 257 36 247 40 hstem
          115 45 vstem
          481 40 rmoveto
          -96 callsubr
          endchar
        </CharString>
        <CharString name="Eacute">
          0 40 257 36 247 40 hstem
          115 45 vstem
          213 717 rmoveto
          -32 callsubr
          268 -677 rmoveto
          -96 callsubr
          endchar
        </CharString>
        <CharString name="Ebreve">
          0 40 257 36 247 40 85 38 hstem
          115 45 vstem
          297 705 rmoveto
          3 callsubr
          184 -665 rmoveto
          -96 callsubr
          endchar
        </CharString>
        <CharString name="Ecaron">
          0 40 257 36 247 40 hstem
          115 45 vstem
          306 695 rmoveto
          6 callsubr
          176 -655 rmoveto
          -96 callsubr
          endchar
        </CharString>
        <CharString name="Ecircumflex">
          0 40 257 36 247 40 hstem
          115 45 vstem
          440 700 rmoveto
          -25 callsubr
          181 -787 rmoveto
          -96 callsubr
          endchar
        </CharString>
        <CharString name="Edieresis">
          0 40 257 36 247 40 85 130 hstem
          115 45 11.5 45.5 171.5 45.5 vstem
          433 705 rmoveto
          -37 callsubr
          -173 hmoveto
          -37 callsubr
          309 -665 rmoveto
          -96 callsubr
          endchar
        </CharString>
        <CharString name="Edotaccent">
          0 40 257 36 247 40 85 130 hstem
          115 45 118.5 45 vstem
          321 705 rmoveto
          5 callsubr
          204 -665 rmoveto
          -96 callsubr
          endchar
        </CharString>
        <CharString name="Egrave">
          0 40 257 36 247 40 hstem
          115 45 vstem
          387 708 rmoveto
          -77 callsubr
          110 -648 rmoveto
          -96 callsubr
          endchar
        </CharString>
        <CharString name="Emacron">
          0 40 257 36 247 40 134 39 hstem
          115 45 vstem
          460 793 rmoveto
          -35 callsubr
          21 -714 rmoveto
          -96 callsubr
          endchar
        </CharString>
        <CharString name="Eogonek">
          0 40 257 36 247 40 hstem
          115 45 134 40 vstem
          460 -167 rmoveto
          -91 11 -35 16 0 26 0 25 30 33 112 56 rrcurveto
          5 40 -321 0 0 257 278 0 0 36 -278 0 0 247 318 0 0 40 -363 0 0 -620 305 0 rlineto
          -94 -51 -32 -35 0 -36 0 -43 42 -26 119 -14 rrcurveto
          endchar
        </CharString>
        <CharString name="Eth">
          -9 41 -12 -21 299 35 256 41 -9 -20 hstemhm
          97 45 305 45 hintmask 10110110
          492 323 rmoveto
          hintmask 01101110
          -19 callsubr
          -350 -286 rmoveto
          -18 callsubr
          endchar
        </CharString>
        <CharString name="Euro">
          1 -21 228 38 -35 36 120 36 237 -20 hstemhm
          138 38 hintmask 10111100
          484 19 rmoveto
          -183 28 -84 63 -29 101 rrcurveto
          232 0 3 36 -243 0 rlineto
          -3 20 -1 21 0 22 0 20 1 19 2 18 rrcurveto
          243 0 2 36 -239 0 rlineto
          24 103 76 59 193 32 rrcurveto
          -9 43 rlineto
          -208 -40 -89 -78 -28 -117 rrcurveto
          -76 -38 70 hlineto
          hintmask 11011100
          -3 -19 -1 -21 0 -21 0 -21 1 -20 3 -19 rrcurveto
          -70 -38 77 hlineto
          32 -122 98 -79 202 -27 rrcurveto
          endchar
        </CharString>
        <CharString name="F">
          21 -21 287 36 257 40 hstem
          123 45 vstem
          448 287 rmoveto
          36 -280 257 322 40 -367 -620 45 287 vlineto
          endchar
        </CharString>
        <CharString name="G">
          -9 39 553 43 hstem
          60 45 316 45 vstem
          467 5 rmoveto
          -95 callsubr
          endchar
        </CharString>
        <CharString name="Gbreve">
          -9 39 553 43 79 38 hstem
          60 45 316 45 vstem
          286 705 rmoveto
          3 callsubr
          181 -700 rmoveto
          -95 callsubr
          endchar
        </CharString>
        <CharString name="Gcommaaccent">
          -9 39 553 43 hstem
          60 45 171 45 100 45 vstem
          467 5 rmoveto
          -95 callsubr
          -220 -275 rmoveto
          8 callsubr
          endchar
        </CharString>
        <CharString name="Gdotaccent">
          -9 39 553 43 79 130 hstem
          60 45 162.5 45 108.5 45 vstem
          310 705 rmoveto
          5 callsubr
          201 -700 rmoveto
          -95 callsubr
          endchar
        </CharString>
        <CharString name="H">
          21 -21 297 36 287 -20 hstem
          92 45 276 45 vstem
          413 hmoveto
          45 620 -45 -287 -276 287 -45 -620 45 297 276 hlineto
          endchar
        </CharString>
        <CharString name="Hbar">
          21 -21 287 36 130 35 -34 33 -33 166 hstemhm
          92 45 276 45 hintmask 11010110
          413 323 rmoveto
          -276 131 276 hlineto
          -454 vmoveto
          45 hlineto
          hintmask 11100110
          453 79 35 -79 vlineto
          hintmask 11001110
          132 -45 vlineto
          hintmask 11010110
          -133 -276 vlineto
          hintmask 11001110
          133 -45 vlineto
          hintmask 11100110
          -132 -79 -35 79 -453 45 287 276 vlineto
          endchar
        </CharString>
        <CharString name="I">
          0 37 546 37 hstem
          251 45 vstem
          296 583 rmoveto
          -94 callsubr
          endchar
        </CharString>
        <CharString name="Iacute">
          0 37 546 37 hstem
          251 45 vstem
          188 717 rmoveto
          -32 callsubr
          108 -134 rmoveto
          -94 callsubr
          endchar
        </CharString>
        <CharString name="Ibreve">
          0 37 546 37 85 38 hstem
          251 45 vstem
          272 705 rmoveto
          3 callsubr
          24 -122 rmoveto
          -94 callsubr
          endchar
        </CharString>
        <CharString name="Icircumflex">
          0 37 546 37 hstem
          251 45 vstem
          415 700 rmoveto
          -25 callsubr
          21 -244 rmoveto
          -94 callsubr
          endchar
        </CharString>
        <CharString name="Idieresis">
          0 37 546 37 85 130 hstem
          146.5 45.5 59 45 67.5 45.5 vstem
          408 705 rmoveto
          -37 callsubr
          -173 hmoveto
          -37 callsubr
          149 -122 rmoveto
          -94 callsubr
          endchar
        </CharString>
        <CharString name="Idotaccent">
          0 37 546 37 85 130 hstemhm
          251 45 -42.5 45 hintmask 11110000
          296 705 rmoveto
          hintmask 11101000
          5 callsubr
          hintmask 11110000
          44 -122 rmoveto
          -94 callsubr
          endchar
        </CharString>
        <CharString name="Igrave">
          0 37 546 37 hstem
          251 45 vstem
          361 708 rmoveto
          -77 callsubr
          -49 -105 rmoveto
          -94 callsubr
          endchar
        </CharString>
        <CharString name="Imacron">
          0 37 546 37 134 39 hstem
          251 45 vstem
          435 793 rmoveto
          -35 callsubr
          -139 -171 rmoveto
          -94 callsubr
          endchar
        </CharString>
        <CharString name="Iogonek">
          0 37 546 37 hstem
          168 40 43 45 vstem
          334 -167 rmoveto
          -91 11 -35 17 0 29 0 25 21 29 67 56 rrcurveto
          166 0 4 37 -170 0 0 546 166 0 0 37 -377 0 0 -37 166 0 0 -546 -166 0 0 -37 169 0 rlineto
          -62 -50 -24 -32 0 -36 0 -46 42 -27 119 -14 rrcurveto
          endchar
        </CharString>
        <CharString name="J">
          -11 43 551 37 hstem
          363 45 vstem
          137 620 rmoveto
          -37 226 -392 vlineto
          0 -133 -44 -34 -221 8 rrcurveto
          -43 vlineto
          238 -6 72 66 0 141 rrcurveto
          430 vlineto
          endchar
        </CharString>
        <CharString name="K">
          17 -21 25 -21 24 -21 292 35 290 -20 hstemhm
          107 45 hintmask 10011100
          457 -4 rmoveto
          hintmask 00111100
          -93 callsubr
          hintmask 01011100
          -620 45 295 75 vlineto
          endchar
        </CharString>
        <CharString name="Kcommaaccent">
          17 -21 25 -21 24 -21 292 35 290 -20 hstemhm
          107 45 108 45 hintmask 10011110
          457 -4 rmoveto
          hintmask 00111110
          -93 callsubr
          hintmask 01011110
          -620 45 295 75 vlineto
          4 -560 rmoveto
          8 callsubr
          endchar
        </CharString>
        <CharString name="L">
          0 40 580 -20 hstem
          125 45 vstem
          492 hmoveto
          -92 callsubr
          endchar
        </CharString>
        <CharString name="Lacute">
          0 40 580 -20 hstem
          125 45 vstem
          222 717 rmoveto
          -32 callsubr
          270 -717 rmoveto
          -92 callsubr
          endchar
        </CharString>
        <CharString name="Lcaron">
          0 40 580 -20 96 -20 hstem
          125 45 255 46 vstem
          389 459 rmoveto
          7 callsubr
          103 -459 rmoveto
          -92 callsubr
          endchar
        </CharString>
        <CharString name="Lcommaaccent">
          0 40 580 -20 hstem
          125 45 126 45 vstem
          492 hmoveto
          -92 callsubr
          142 -261 rmoveto
          8 callsubr
          endchar
        </CharString>
        <CharString name="Ldot">
          0 40 232 85 263 -20 hstem
          125 45 218 69 vstem
          492 hmoveto
          -92 callsubr
          330 272 rmoveto
          4 85 -69 0 -4 -85 rlineto
          endchar
        </CharString>
        <CharString name="Lslash">
          0 40 580 -20 hstem
          125 45 vstem
          492 hmoveto
          4 40 -326 0 0 298 174 92 -9 34 -165 -87 0 243 -45 0 0 -267 -88 -46 9 -34 79 42 0 -315 rlineto
          endchar
        </CharString>
        <CharString name="M">
          21 -21 90 64 408 58 hstem
          75 42.5 312 44.5 vstem
          403 620 rmoveto
          0 0 -102 -381 -23 -85 rrcurveto
          -4 hlineto
          -23 85 -104 381 0 0 rrcurveto
          -72 -620 43 hlineto
          -1 562 4 0 131 -472 47 0 127 472 4 0 -1 -562 45 0 0 620 rlineto
          endchar
        </CharString>
        <CharString name="N">
          0 71 492 57 hstem
          92 42.5 281 42.5 vstem
          404 hmoveto
          -91 callsubr
          endchar
        </CharString>
        <CharString name="NUL">
          0 endchar
        </CharString>
        <CharString name="Nacute">
          0 71 492 57 hstem
          92 42.5 281 42.5 vstem
          184 717 rmoveto
          -32 callsubr
          220 -717 rmoveto
          -91 callsubr
          endchar
        </CharString>
        <CharString name="Ncaron">
          0 71 492 57 hstem
          92 42.5 281 42.5 vstem
          277 695 rmoveto
          6 callsubr
          128 -695 rmoveto
          -91 callsubr
          endchar
        </CharString>
        <CharString name="Ncommaaccent">
          0 71 492 57 hstem
          92 42.5 123.5 45 112.5 42.5 vstem
          404 hmoveto
          -91 callsubr
          90 -824 rmoveto
          8 callsubr
          endchar
        </CharString>
        <CharString name="Ntilde">
          0 71 492 57 85 39 79 39 hstem
          92 42.5 281 42.5 vstem
          349 705 rmoveto
          -17 callsubr
          55 -705 rmoveto
          -91 callsubr
          endchar
        </CharString>
        <CharString name="O">
          -15 39 572 39 hstem
          52 45 356 45 vstem
          268 -15 rmoveto
          -90 callsubr
          6 611 rmoveto
          -89 callsubr
          endchar
        </CharString>
        <CharString name="OE">
          0 40 257 36 247 40 hstem
          45 45 189 45 vstem
          90 307 rmoveto
          0 182 62 87 127 3 rrcurveto
          -538 vlineto
          -131 3 -58 79 0 184 rrcurveto
          412 -267 rmoveto
          -178 257 152 36 -152 247 175 40 -199 hlineto
          -176 -79 -118 -204 -199 78 -99 175 hvcurveto
          200 hlineto
          endchar
        </CharString>
        <CharString name="Oacute">
          -15 39 572 39 hstem
          52 45 356 45 vstem
          189 724 rmoveto
          -32 callsubr
          79 -739 rmoveto
          -90 callsubr
          6 611 rmoveto
          -89 callsubr
          endchar
        </CharString>
        <CharString name="Obreve">
          -15 39 572 39 77 38 hstem
          52 45 356 45 vstem
          273 712 rmoveto
          3 callsubr
          -5 -727 rmoveto
          -90 callsubr
          6 611 rmoveto
          -89 callsubr
          endchar
        </CharString>
        <CharString name="Ocircumflex">
          -15 39 572 39 hstem
          52 45 356 45 vstem
          416 707 rmoveto
          -25 callsubr
          -8 -849 rmoveto
          -90 callsubr
          6 611 rmoveto
          -89 callsubr
          endchar
        </CharString>
        <CharString name="Odieresis">
          -15 39 572 39 77 130 hstem
          52 45 50.5 45.5 171.5 45.5 43 45 vstem
          409 712 rmoveto
          -37 callsubr
          -173 hmoveto
          -37 callsubr
          120 -727 rmoveto
          -90 callsubr
          6 611 rmoveto
          -89 callsubr
          endchar
        </CharString>
        <CharString name="Ograve">
          -15 39 572 39 hstem
          52 45 356 45 vstem
          363 715 rmoveto
          -77 callsubr
          -79 -710 rmoveto
          -90 callsubr
          6 611 rmoveto
          -89 callsubr
          endchar
        </CharString>
        <CharString name="Ohungarumlaut">
          -15 39 572 39 hstem
          52 45 356 45 vstem
          144 719 rmoveto
          11 callsubr
          205 -1 rmoveto
          12 callsubr
          -81 -733 rmoveto
          -90 callsubr
          6 611 rmoveto
          -89 callsubr
          endchar
        </CharString>
        <CharString name="Omacron">
          -15 39 572 39 126 39 hstem
          52 45 356 45 vstem
          436 800 rmoveto
          -35 callsubr
          -168 -776 rmoveto
          -90 callsubr
          6 611 rmoveto
          -89 callsubr
          endchar
        </CharString>
        <CharString name="Omega">
          0 37 554 42 hstem
          78 42 309 44 vstem
          218 4 rmoveto
          -67 149 -31 126 0 98 rrcurveto
          133 55 81 100 100 54 -81 -134 vhcurveto
          0 -98 -29 -126 -67 -148 rrcurveto
          1 -4 170 0 0 37 -120 0 rlineto
          60 132 29 116 0 95 rrcurveto
          154 -68 99 -127 -128 -72 -100 -154 vhcurveto
          0 -95 28 -116 60 -131 rrcurveto
          -119 -37 169 hlineto
          endchar
        </CharString>
        <CharString name="Oslash">
          -15 39 -13 -21 606 39 -5 -20 hstemhm
          52 45 356 45 hintmask 10101100
          97 310 rmoveto
          -16 callsubr
          179 -286 rmoveto
          -15 callsubr
          -8 -39 rmoveto
          -14 callsubr
          hintmask 10011100
          -13 callsubr
          hintmask 01101100
          -12 callsubr
          hintmask 10101100
          -11 callsubr
          endchar
        </CharString>
        <CharString name="Oslashacute">
          -15 39 -13 -21 606 39 -5 -20 hstemhm
          52 45 356 45 hintmask 10101100
          187 724 rmoveto
          -32 callsubr
          -90 -414 rmoveto
          -16 callsubr
          179 -286 rmoveto
          -15 callsubr
          -8 -39 rmoveto
          -14 callsubr
          hintmask 10011100
          -13 callsubr
          hintmask 01101100
          -12 callsubr
          hintmask 10101100
          -11 callsubr
          endchar
        </CharString>
        <CharString name="Otilde">
          -15 39 572 39 77 39 79 39 hstem
          52 45 356 45 vstem
          354 712 rmoveto
          -17 callsubr
          -86 -727 rmoveto
          -90 callsubr
          6 611 rmoveto
          -89 callsubr
          endchar
        </CharString>
        <CharString name="P">
          21 -21 220 43 326 29 -29 40 hstemhm
          112 45 289 45 hintmask 11011100
          157 hmoveto
          220 vlineto
          205 6 129 65 0 143 rrcurveto
          hintmask 11101100
          0 146 -132 80 -247 -42 rrcurveto
          -618 vlineto
          hintmask 11011100
          334 427 rmoveto
          0 -125 -106 -47 -183 8 rrcurveto
          320 vlineto
          196 28 93 -67 0 -117 rrcurveto
          endchar
        </CharString>
        <CharString name="Q">
          -14 38 572 39 hstem
          52 45 356 45 vstem
          451 -123 rmoveto
          15 39 -176 68 1 2 rlineto
          128 12 80 120 -1 201 -1 202 -79 114 -135 0 -141 0 -90 -120 0 -214 0 -190 72 -113 122 -12 rrcurveto
          -10 -26 rlineto
          38 636 rmoveto
          -89 callsubr
          endchar
        </CharString>
        <CharString name="R">
          11 -21 31 -21 245 35.5 309.5 28 -28 40 hstemhm
          106 45 265 45 hintmask 10101110
          455 -10 rmoveto
          hintmask 01110110
          -88 callsubr
          -162 336 rmoveto
          hintmask 01101110
          -87 callsubr
          endchar
        </CharString>
        <CharString name="R_p">
          -148 -21 158 37 -11 -21 24 -21 24 -21 25 -21 242 33.5 173.5 36 -9 -20 128 39 -9 -20 hstemhm
          52 43 116 43 61 42 121 41 hintmask 1001001101011110
          235 -3 rmoveto
          hintmask 1000011100111110
          32 callsubr
          hintmask 1000101101011110
          -618 43 244 vlineto
          61 4 rlineto
          -61 337 rmoveto
          33 callsubr
          hintmask 1100001101011110
          308 -252 rmoveto
          -16 0 -14 1 -16 8 0 172 -1 105 -2 97 18 24 23 20 22 0 rrcurveto
          43 18 -73 -136 hvcurveto
          -151 -21 -67 -54 vhcurveto
          -46 -190 rmoveto
          hintmask 1010001101011110
          158 vlineto
          hintmask 1100001101011110
          11 -3 10 -2 11 0 rrcurveto
          83 47 80 196 141 -26 83 -60 hvcurveto
          -34 0 -28 -22 -19 -24 rrcurveto
          hintmask 1100001011011110
          -3 37 -38 -3 rlineto
          3 -107 1 -163 0 -207 rrcurveto
          -169 vlineto
          endchar
        </CharString>
        <CharString name="Racute">
          11 -21 31 -21 245 35.5 309.5 28 -28 40 hstemhm
          106 45 265 45 hintmask 01101110
          180 727 rmoveto
          -32 callsubr
          hintmask 10101110
          275 -737 rmoveto
          hintmask 01110110
          -88 callsubr
          -162 336 rmoveto
          hintmask 01101110
          -87 callsubr
          endchar
        </CharString>
        <CharString name="Rcaron">
          11 -21 31 -21 245 35.5 309.5 28 -28 40 hstemhm
          106 45 265 45 hintmask 01101110
          273 705 rmoveto
          6 callsubr
          hintmask 10101110
          183 -715 rmoveto
          hintmask 01110110
          -88 callsubr
          -162 336 rmoveto
          hintmask 01101110
          -87 callsubr
          endchar
        </CharString>
        <CharString name="Rcommaaccent">
          11 -21 31 -21 245 35.5 309.5 28 -28 40 hstemhm
          106 45 138 45 82 45 hintmask 10101111
          455 -10 rmoveto
          hintmask 01110111
          -88 callsubr
          -162 336 rmoveto
          hintmask 01101111
          -87 callsubr
          109 -550 rmoveto
          8 callsubr
          endchar
        </CharString>
        <CharString name="S">
          -5 41 547 41 hstem
          94 44 289 44 vstem
          92 40 rmoveto
          -86 callsubr
          endchar
        </CharString>
        <CharString name="Sacute">
          -5 41 547 41 hstem
          94 44 289 44 vstem
          210 719 rmoveto
          -32 callsubr
          -118 -679 rmoveto
          -86 callsubr
          endchar
        </CharString>
        <CharString name="Scaron">
          -5 41 547 41 hstem
          94 44 289 44 vstem
          303 697 rmoveto
          6 callsubr
          -210 -657 rmoveto
          -86 callsubr
          endchar
        </CharString>
        <CharString name="Scedilla">
          -6 42 -38 38 547 41 hstemhm
          94 44 172 39 78 44 hintmask 10111100
          189 -216 rmoveto
          106 17 54 31 0 45 rrcurveto
          hintmask 01111100
          0 36 -34 40 -65 45 156 21 65 74 0 70 0 150 -333 44 0 124 0 60 65 54 235 -15 rrcurveto
          -3 44 rlineto
          -252 15 -89 -84 0 -83 0 -146 333 -42 0 -129 rrcurveto
          hintmask 10111100
          0 -69 -89 -69 -246 23 rrcurveto
          -1 -45 rlineto
          46 -3 41 0 37 2 rrcurveto
          -5 -8 rlineto
          73 -48 27 -35 0 -24 0 -25 -36 -17 -90 -15 rrcurveto
          endchar
        </CharString>
        <CharString name="Scommaaccent">
          -5 41 547 41 hstem
          94 44 126 45 118 44 vstem
          92 40 rmoveto
          -86 callsubr
          143 -314 rmoveto
          8 callsubr
          endchar
        </CharString>
        <CharString name="T">
          21 -21 580 40 hstem
          253 45 vstem
          298 580 rmoveto
          -85 callsubr
          endchar
        </CharString>
        <CharString name="Tcaron">
          21 -21 580 40 hstem
          253 45 vstem
          279 695 rmoveto
          6 callsubr
          20 -115 rmoveto
          -85 callsubr
          endchar
        </CharString>
        <CharString name="Tcommaaccent">
          21 -21 580 40 hstemhm
          253 45 -38 45 hintmask 11100000
          298 580 rmoveto
          -85 callsubr
          hintmask 11010000
          -67 -261 rmoveto
          10 callsubr
          endchar
        </CharString>
        <CharString name="Thorn">
          21 -21 113 43 322 41 -41 142 hstemhm
          113 45 292 45 hintmask 11101100
          158 hmoveto
          113 vlineto
          206 6 131 64 0 142 0 138 -122 76 -215 -25 rrcurveto
          hintmask 11011100
          106 -45 -620 vlineto
          hintmask 11101100
          337 318 rmoveto
          0 -123 -108 -46 -184 7 rrcurveto
          316 vlineto
          192 27 100 -65 0 -116 rrcurveto
          endchar
        </CharString>
        <CharString name="U">
          -15 40 595 -20 hstem
          87 45 285 45 vstem
          270 -15 rmoveto
          -84 callsubr
          endchar
        </CharString>
        <CharString name="Uacute">
          -15 40 595 -20 hstem
          87 45 285 45 vstem
          187 717 rmoveto
          -32 callsubr
          83 -732 rmoveto
          -84 callsubr
          endchar
        </CharString>
        <CharString name="Ubreve">
          -15 40 595 -20 105 38 hstem
          87 45 285 45 vstem
          270 705 rmoveto
          3 callsubr
          -720 vmoveto
          -84 callsubr
          endchar
        </CharString>
        <CharString name="Ucircumflex">
          -15 40 595 -20 hstem
          87 45 285 45 vstem
          413 700 rmoveto
          -25 callsubr
          -3 -842 rmoveto
          -84 callsubr
          endchar
        </CharString>
        <CharString name="Udieresis">
          -15 40 595 -20 105 130 hstem
          87 45 12.5 45.5 171.5 45.5 10 45 vstem
          406 705 rmoveto
          -37 callsubr
          -173 hmoveto
          -37 callsubr
          125 -720 rmoveto
          -84 callsubr
          endchar
        </CharString>
        <CharString name="Ugrave">
          -15 40 595 -20 hstem
          87 45 285 45 vstem
          360 708 rmoveto
          -77 callsubr
          -74 -703 rmoveto
          -84 callsubr
          endchar
        </CharString>
        <CharString name="Uhungarumlaut">
          -15 40 595 -20 hstem
          87 45 285 45 vstem
          142 712 rmoveto
          11 callsubr
          205 -1 rmoveto
          12 callsubr
          -77 -726 rmoveto
          -84 callsubr
          endchar
        </CharString>
        <CharString name="Umacron">
          -15 40 595 -20 154 39 hstem
          87 45 285 45 vstem
          433 793 rmoveto
          -35 callsubr
          -163 -769 rmoveto
          -84 callsubr
          endchar
        </CharString>
        <CharString name="Uogonek">
          -16 41 595 -20 hstem
          87 45 67 40 178 45 vstem
          360 -205 rmoveto
          5 38 rlineto
          -91 11 -35 16 0 26 0 25 24 34 96 58 75 44 28 52 0 92 rrcurveto
          429 -45 -433 vlineto
          -112 -46 -50 -94 -90 -55 56 120 vhcurveto
          419 -45 -428 vlineto
          0 -134 68 -73 126 -1 -62 -42 -20 -31 0 -33 0 -43 42 -26 119 -14 rrcurveto
          endchar
        </CharString>
        <CharString name="Uring">
          -15 40 595 -20 83 31 144 31 hstem
          87 45 12 36 186 36 15 45 vstem
          273 889 rmoveto
          13 callsubr
          -31 vmoveto
          -22 callsubr
          -3 -873 rmoveto
          -84 callsubr
          endchar
        </CharString>
        <CharString name="V">
          -2 41 581 -20 22 -20 hstemhm
          50 450 hintmask 10110000
          309 -2 rmoveto
          hintmask 11010000
          68 210 63 205 60 207 rrcurveto
          -43 hlineto
          -56 -196 -58 -190 -62 -195 rrcurveto
          -9 hlineto
          hintmask 10110000
          -62 195 -59 192 -56 196 rrcurveto
          -45 -4 rlineto
          60 -207 63 -203 68 -210 rrcurveto
          endchar
        </CharString>
        <CharString name="W">
          0 51 569 -20 hstem
          66 46 330 43 vstem
          377 hmoveto
          -83 callsubr
          endchar
        </CharString>
        <CharString name="Wacute">
          0 51 569 -20 hstem
          66 46 330 43 vstem
          191 717 rmoveto
          -32 callsubr
          186 -717 rmoveto
          -83 callsubr
          endchar
        </CharString>
        <CharString name="Wcircumflex">
          0 51 569 -20 hstem
          66 46 330 43 vstem
          418 700 rmoveto
          -25 callsubr
          99 -827 rmoveto
          -83 callsubr
          endchar
        </CharString>
        <CharString name="Wdieresis">
          0 51 569 -20 105 130 hstem
          66 46 37.5 45.5 171.5 45.5 30 43 vstem
          411 705 rmoveto
          -37 callsubr
          -173 hmoveto
          -37 callsubr
          227 -705 rmoveto
          -83 callsubr
          endchar
        </CharString>
        <CharString name="Wgrave">
          0 51 569 -20 hstem
          66 46 330 43 vstem
          365 708 rmoveto
          -77 callsubr
          28 -688 rmoveto
          -83 callsubr
          endchar
        </CharString>
        <CharString name="X">
          18 -21 24 -21 24 -21 617 -20 23 -20 hstemhm
          54 445 hintmask 10001100
          451 -3 rmoveto
          hintmask 00110100
          47 6 -195 308 196 309 -49 0 -172 -278 rlineto
          hintmask 01001100
          -176 281 -48 -6 195 -308 -195 -309 48 0 173 278 rlineto
          endchar
        </CharString>
        <CharString name="Y">
          21 -21 620 -20 21 -20 hstemhm
          253 45 hintmask 10110000
          298 hmoveto
          0 207 rlineto
          hintmask 11010000
          -82 callsubr
          hintmask 10110000
          -81 callsubr
          endchar
        </CharString>
        <CharString name="Yacute">
          21 -21 620 -20 21 -20 hstemhm
          253 45 hintmask 10110000
          190 718 rmoveto
          -32 callsubr
          108 -718 rmoveto
          0 207 rlineto
          hintmask 11010000
          -82 callsubr
          hintmask 10110000
          -81 callsubr
          endchar
        </CharString>
        <CharString name="Ycircumflex">
          21 -21 620 -20 21 -20 hstemhm
          253 45 hintmask 10110000
          417 701 rmoveto
          -25 callsubr
          21 -828 rmoveto
          0 207 rlineto
          hintmask 11010000
          -82 callsubr
          hintmask 10110000
          -81 callsubr
          endchar
        </CharString>
        <CharString name="Ydieresis">
          21 -21 620 -20 21 -20 105 130 hstemhm
          148.5 45.5 59 45 67.5 45.5 hintmask 10111110
          410 706 rmoveto
          -37 callsubr
          -173 hmoveto
          -37 callsubr
          149 -706 rmoveto
          0 207 rlineto
          hintmask 11011110
          -82 callsubr
          hintmask 10111110
          -81 callsubr
          endchar
        </CharString>
        <CharString name="Ygrave">
          21 -21 620 -20 21 -20 hstemhm
          253 45 hintmask 10110000
          364 709 rmoveto
          -77 callsubr
          -50 -689 rmoveto
          0 207 rlineto
          hintmask 11010000
          -82 callsubr
          hintmask 10110000
          -81 callsubr
          endchar
        </CharString>
        <CharString name="Z">
          0 40.5 539 40.5 hstem
          72 408 vstem
          476 hmoveto
          -80 callsubr
          endchar
        </CharString>
        <CharString name="Zacute">
          0 40.5 539 40.5 hstem
          72 408 vstem
          198 717 rmoveto
          -32 callsubr
          278 -717 rmoveto
          -80 callsubr
          endchar
        </CharString>
        <CharString name="Zcaron">
          0 40.5 539 40.5 hstem
          72 408 vstem
          291 695 rmoveto
          6 callsubr
          186 -695 rmoveto
          -80 callsubr
          endchar
        </CharString>
        <CharString name="Zdotaccent">
          0 40.5 539 40.5 85 130 hstem
          263.5 45 vstem
          306 705 rmoveto
          5 callsubr
          214 -705 rmoveto
          -80 callsubr
          endchar
        </CharString>
        <CharString name="a">
          -12 39 -8 -21 24 -21 233 37 177 40 hstemhm
          76 44 289 44 hintmask 10011110
          241 27 rmoveto
          -72 -49 34 61 hvcurveto
          0 83 80 46 209 -22 0 -59 1 -38 1 -36 rrcurveto
          -43 -38 -64 -31 -63 0 rrcurveto
          hintmask 01011110
          178 -29 rmoveto
          hintmask 00111110
          -76 callsubr
          hintmask 10011110
          -75 callsubr
          endchar
        </CharString>
        <CharString name="aacute">
          -12 39 -8 -21 24 -21 233 37 177 40 hstemhm
          76 44 289 44 hintmask 10011110
          188 577 rmoveto
          -32 callsubr
          53 -550 rmoveto
          -10 callsubr
          hintmask 01011110
          178 -29 rmoveto
          hintmask 00111110
          -76 callsubr
          hintmask 10011110
          -75 callsubr
          endchar
        </CharString>
        <CharString name="abreve">
          -12 39 -8 -21 24 -21 233 37 177 40 77 38 hstemhm
          76 44 289 44 hintmask 10011111
          272 565 rmoveto
          3 callsubr
          -31 -538 rmoveto
          -10 callsubr
          hintmask 01011111
          178 -29 rmoveto
          hintmask 00111111
          -76 callsubr
          hintmask 10011111
          -75 callsubr
          endchar
        </CharString>
        <CharString name="acircumflex">
          -12 39 -8 -21 24 -21 233 37 177 40 hstemhm
          76 44 289 44 hintmask 10011110
          415 560 rmoveto
          -25 callsubr
          -34 -660 rmoveto
          -10 callsubr
          hintmask 01011110
          178 -29 rmoveto
          hintmask 00111110
          -76 callsubr
          hintmask 10011110
          -75 callsubr
          endchar
        </CharString>
        <CharString name="acute">
          556 200 hstem
          185 221 vstem
          185 577 rmoveto
          -32 callsubr
          endchar
        </CharString>
        <CharString name="adieresis">
          -12 39 -8 -21 24 -21 233 37 177 40 77 130 hstemhm
          76 44 26.5 45.5 171.5 45.5 0 44 hintmask 1001110110000000
          408 565 rmoveto
          -37 callsubr
          -173 hmoveto
          -37 callsubr
          94 -538 rmoveto
          hintmask 1001111101000000
          -10 callsubr
          hintmask 0101110101000000
          178 -29 rmoveto
          hintmask 0011111101000000
          -76 callsubr
          hintmask 1001111101000000
          -75 callsubr
          endchar
        </CharString>
        <CharString name="ae">
          -6 40 192 34 -29 31 181 40 -37 39 hstemhm
          43 44 160 42 172 42 hintmask 10101111
          487 -6 rmoveto
          -7 callsubr
          hintmask 11010111
          -24 70 -59 25 -117 7 rrcurveto
          -5 -40 rlineto
          141 -11 39 -33 3 -139 -128 -4 -76 -52 0 -93 0 -76 45 -41 56 0 62 0 46 43 27 43 rrcurveto
          33 -53 63 -28 112 -5 rrcurveto
          -107 452 rmoveto
          -6 callsubr
          -222 -412 rmoveto
          -40 -31 26 61 hvcurveto
          hintmask 11001111
          -5 callsubr
          endchar
        </CharString>
        <CharString name="aeacute">
          -6 40 192 34 -29 31 181 40 -37 39 hstemhm
          43 44 160 42 172 42 hintmask 10101111
          186 577 rmoveto
          -32 callsubr
          301 -583 rmoveto
          -7 callsubr
          hintmask 11010111
          -24 70 -59 25 -117 7 rrcurveto
          -5 -40 rlineto
          141 -11 39 -33 3 -139 -128 -4 -76 -52 0 -93 0 -76 45 -41 56 0 62 0 46 43 27 43 33 -53 63 -28 112 -5 rrcurveto
          -107 452 rmoveto
          -6 callsubr
          -222 -412 rmoveto
          -40 -31 26 61 hvcurveto
          hintmask 11001111
          -5 callsubr
          endchar
        </CharString>
        <CharString name="agrave">
          -12 39 -8 -21 24 -21 233 37 177 40 hstemhm
          76 44 289 44 hintmask 10011110
          362 568 rmoveto
          -77 callsubr
          -105 -521 rmoveto
          -10 callsubr
          hintmask 01011110
          178 -29 rmoveto
          hintmask 00111110
          -76 callsubr
          hintmask 10011110
          -75 callsubr
          endchar
        </CharString>
        <CharString name="amacron">
          -12 39 -8 -21 24 -21 233 37 177 40 126 39 hstemhm
          76 44 289 44 hintmask 10011111
          435 653 rmoveto
          -35 callsubr
          -194 -587 rmoveto
          -10 callsubr
          hintmask 01011111
          178 -29 rmoveto
          hintmask 00111111
          -76 callsubr
          hintmask 10011111
          -75 callsubr
          endchar
        </CharString>
        <CharString name="ampersand">
          -11 68 296 67 216 63 hstemhm
          15 82 -46 82 235 77 hintmask 11110100
          240 699 rmoveto
          hintmask 11101100
          -117 -72 -77 -88 hvcurveto
          0 -62 30 -61 90 -21 rrcurveto
          -3 vlineto
          hintmask 11110100
          -100 -21 -56 -68 0 -103 0 -103 67 -103 156 0 115 0 62 54 30 38 rrcurveto
          272 90 67 -278 vlineto
          hintmask 11101100
          -70 -54 53 61 59 35 43 71 hvcurveto
          50 0 33 -19 35 -39 rrcurveto
          50 46 rlineto
          -55 61 -52 14 -60 0 rrcurveto
          128 -346 rmoveto
          -244 vlineto
          -27 -34 -46 -18 -55 0 rrcurveto
          -101 -42 68 73 71 44 84 103 hvcurveto
          endchar
        </CharString>
        <CharString name="aogonek">
          9 -21 0 39 -5 -21 233 37 177 40 hstemhm
          76 44 155 40 93 45 hintmask 01011111
          436 -204 rmoveto
          4 callsubr
          hintmask 00111111
          0 25 30 33 113 56 -3 71 -2 58 0 109 0 181 -78 56 -262 12 rrcurveto
          -6 -40 rlineto
          224 -10 71 -37 6 -133 -224 19 -108 -72 0 -103 rrcurveto
          hintmask 01011111
          -77 58 -47 82 vhcurveto
          86 0 67 55 43 52 rrcurveto
          hintmask 10011111
          1 -22 3 -40 2 -23 -107 -56 -36 -37 0 -38 rrcurveto
          0 -43 42 -26 119 -14 rrcurveto
          -205 231 rmoveto
          -66 -45 34 61 hvcurveto
          0 83 80 46 209 -22 0 -52 0 -19 1 -30 -45 -55 -67 -46 -67 0 rrcurveto
          endchar
        </CharString>
        <CharString name="approxequal">
          106 37 85 37 45 37 85 37 hstem
          63 422 vstem
          365 310 rmoveto
          39 callsubr
          -204 vmoveto
          39 callsubr
          endchar
        </CharString>
        <CharString name="aring">
          -12 39 -8 -21 24 -21 233 37 177 40 55 31 144 31 hstemhm
          76 44 26 36 186 36 5 44 hintmask 1001111111000000
          275 749 rmoveto
          -23 callsubr
          -31 vmoveto
          -22 callsubr
          -34 -691 rmoveto
          hintmask 1001111100100000
          -10 callsubr
          hintmask 0101111100100000
          178 -29 rmoveto
          hintmask 0011111100100000
          -76 callsubr
          hintmask 1001111100100000
          -75 callsubr
          endchar
        </CharString>
        <CharString name="aringacute">
          -12 39 -8 -21 24 -21 233 37 177 40 55 31 144 31 hstemhm
          76 44 26 36 186 36 5 44 hintmask 1001111100100000
          188 821 rmoveto
          -32 callsubr
          hintmask 1001111111000000
          87 -72 rmoveto
          -23 callsubr
          -31 vmoveto
          -22 callsubr
          -34 -691 rmoveto
          hintmask 1001111100100000
          -10 callsubr
          hintmask 0101111100100000
          178 -29 rmoveto
          hintmask 0011111100100000
          -76 callsubr
          hintmask 1001111100100000
          -75 callsubr
          endchar
        </CharString>
        <CharString name="asciicircum">
          527 313 hstem
          49 452 vstem
          312 840 rmoveto
          -74 0 -189 -313 90 0 135 237 136 -237 91 0 rlineto
          endchar
        </CharString>
        <CharString name="asciitilde">
          228 73 27 73 hstem
          18 514 vstem
          180 401 rmoveto
          -89 0 -43 -70 -30 -58 rrcurveto
          60 -30 rlineto
          26 48 30 37 43 0 64 0 35 -100 94 0 rrcurveto
          88 0 44 69 30 57 rrcurveto
          -60 32 rlineto
          -26 -48 -32 -37 -41 0 -61 0 -32 100 -100 0 rrcurveto
          endchar
        </CharString>
        <CharString name="asterisk">
          98 480 hstem
          23 504 vstem
          233 578 rmoveto
          84 0 -6 -202 190 68 26 -79 -194 -58 123 -160 -67 -49 -114 168 -114 -168 -67 49 123 160 -194 58 26 79 190 -68 rlineto
          endchar
        </CharString>
        <CharString name="asterisk.alt">
          631 -20 hstemhm
          256 20.5 -1 20.5 hintmask 10100000
          296 561 rmoveto
          29 124 -48 7 -3 -128 rlineto
          -47 -20 rmoveto
          -93 87 -30 -38 109 -67 rlineto
          132 -17 rmoveto
          122 37 -18 45 -112 -61 rlineto
          -130 -55 rmoveto
          -122 -37 18 -44 112 60 rlineto
          110 -13 rmoveto
          94 -88 29 38 -108 68 rlineto
          hintmask 11000000
          -84 -35 rmoveto
          -29 -125 48 -6 3 128 rlineto
          endchar
        </CharString>
        <CharString name="at">
          -157 39 177 38 343 36 166 38 hstem
          65 40 119 42 169 41 vstem
          444 -152 rmoveto
          38 vlineto
          -270 -33 -69 154 0 246 0 251 85 138 121 0 80 0 38 -58 5 -108 -129 16 -81 -89 0 -154 0 -119 49 -71 68 0 42 0 28 21 28 30 rrcurveto
          1 -14 2 -14 1 -14 rrcurveto
          38 4 rlineto
          -3 104 -2 86 0 183 rrcurveto
          151 -49 84 -111 -145 -106 -168 -264 vhcurveto
          0 -260 87 -178 292 38 rrcurveto
          -92 249 rmoveto
          -56 -30 57 104 hvcurveto
          0 129 43 76 126 -29 rrcurveto
          -295 vlineto
          -22 -23 -27 -19 -34 0 rrcurveto
          endchar
        </CharString>
        <CharString name="atilde">
          -12 39 -8 -21 24 -21 233 37 177 40 77 39 97 -20 2 39 hstemhm
          76 44 289 44 hintmask 1001110111000000
          353 565 rmoveto
          hintmask 1001111011000000
          -9 callsubr
          hintmask 1001110111000000
          -8 callsubr
          -112 -538 rmoveto
          -10 callsubr
          hintmask 0101110111000000
          178 -29 rmoveto
          hintmask 0011110111000000
          -76 callsubr
          hintmask 1001110111000000
          -75 callsubr
          endchar
        </CharString>
        <CharString name="b">
          -10 38 424 38 207 -20 24 -20 hstemhm
          105 44 294 43 hintmask 11011100
          240 -10 rmoveto
          127 119 102 167 141 -79 90 -105 hvcurveto
          -63 0 -51 -26 -39 -31 rrcurveto
          0 268 rlineto
          hintmask 11101100
          -44 -4 0 -684 rlineto
          42 -15 47 -8 46 0 rrcurveto
          15 38 rmoveto
          -33 0 -36 6 -37 14 rrcurveto
          353 vlineto
          38 30 49 21 51 0 rrcurveto
          89 67 -74 -130 -140 -85 -80 -103 hvcurveto
          endchar
        </CharString>
        <CharString name="backslash">
          -103 912 hstem
          28 494 vstem
          28 777 rmoveto
          426 -880 68 30 -428 882 rlineto
          endchar
        </CharString>
        <CharString name="bar">
          -102 909 hstem
          237 75 vstem
          312 807 rmoveto
          -75 -909 75 hlineto
          endchar
        </CharString>
        <CharString name="braceleft">
          240 34 hstemhm
          163 42 -39 45 50 41 -36 40 hintmask 10110000
          465 -205 rmoveto
          -43 callsubr
          hintmask 11001000
          -42 callsubr
          hintmask 11010000
          122 -6 50 -37 0 -41 rrcurveto
          hintmask 10110000
          -41 callsubr
          endchar
        </CharString>
        <CharString name="braceleft.cap">
          289 34 hstemhm
          163 42 -39 45 50 41 -36 40 hintmask 10110000
          465 -156 rmoveto
          -43 callsubr
          hintmask 11001000
          -42 callsubr
          hintmask 11010000
          122 -6 50 -37 0 -41 rrcurveto
          hintmask 10110000
          -41 callsubr
          endchar
        </CharString>
        <CharString name="braceright">
          241 33 hstemhm
          246 39 -36 41 51 44 -39 42 hintmask 10110000
          84 -204 rmoveto
          hintmask 11001000
          -40 callsubr
          hintmask 10101000
          -123 6 -50 37 0 41 rrcurveto
          hintmask 10110000
          -39 callsubr
          hintmask 11001000
          -38 callsubr
          endchar
        </CharString>
        <CharString name="braceright.cap">
          289 33 hstemhm
          246 39 -36 41 51 44 -39 42 hintmask 10110000
          84 -156 rmoveto
          hintmask 11001000
          -40 callsubr
          hintmask 10101000
          -123 6 -50 37 0 41 rrcurveto
          hintmask 10110000
          -39 callsubr
          hintmask 11001000
          -38 callsubr
          endchar
        </CharString>
        <CharString name="bracketleft">
          -178 38 792 38 hstem
          148 42 vstem
          148 -178 rmoveto
          -79 callsubr
          endchar
        </CharString>
        <CharString name="bracketleft.cap">
          -129 38 792 38 hstem
          148 42 vstem
          148 -129 rmoveto
          -79 callsubr
          endchar
        </CharString>
        <CharString name="bracketright">
          -177 38 791 39 hstem
          362 41 vstem
          88 -139 rmoveto
          -78 callsubr
          endchar
        </CharString>
        <CharString name="bracketright.cap">
          -129 38 791 39 hstem
          362 41 vstem
          88 -91 rmoveto
          -78 callsubr
          endchar
        </CharString>
        <CharString name="breve">
          565 38 hstem
          97 358 vstem
          271 565 rmoveto
          3 callsubr
          endchar
        </CharString>
        <CharString name="bullet">
          189 218 hstem
          163 224 vstem
          387 299 rmoveto
          62 -47 46 -65 -63 -49 -43 -66 -63 48 -46 65 63 48 43 67 vhcurveto
          endchar
        </CharString>
        <CharString name="bullet.alt">
          204 184 hstem
          186 177 vstem
          362 204 rmoveto
          2 184 -177 0 -2 -184 rlineto
          endchar
        </CharString>
        <CharString name="c">
          -4 38 411 43 hstem
          89 44 vstem
          89 233 rmoveto
          -74 callsubr
          endchar
        </CharString>
        <CharString name="cacute">
          -4 38 411 43 hstem
          89 44 vstem
          220 577 rmoveto
          -32 callsubr
          -131 -344 rmoveto
          -74 callsubr
          endchar
        </CharString>
        <CharString name="caron">
          555 175 hstem
          107 336 vstem
          274 555 rmoveto
          6 callsubr
          endchar
        </CharString>
        <CharString name="caron.alt">
          554 246 hstem
          250 46 vstem
          214 563 rmoveto
          7 callsubr
          endchar
        </CharString>
        <CharString name="ccaron">
          -4 38 411 43 hstem
          89 44 vstem
          313 555 rmoveto
          6 callsubr
          -223 -322 rmoveto
          -74 callsubr
          endchar
        </CharString>
        <CharString name="ccedilla">
          -149 -21 166 38 -9 -21 441 43 hstemhm
          89 44 217 39 hintmask 11011100
          389 -115 rmoveto
          hintmask 10111100
          0 35 -33 40 -64 44 rrcurveto
          hintmask 11011100
          45 -8 54 -3 64 3 rrcurveto
          6 38 rlineto
          -260 -9 -68 83 0 131 0 114 64 85 256 7 rrcurveto
          -3 43 rlineto
          -270 -12 -91 -114 0 -129 0 -104 43 -83 128 -34 rrcurveto
          -10 -18 rlineto
          73 -48 27 -35 0 -24 0 -25 -36 -17 -90 -15 rrcurveto
          5 -38 rlineto
          106 17 54 31 0 45 rrcurveto
          endchar
        </CharString>
        <CharString name="cdotaccent">
          -4 38 411 43 77 130 hstem
          89 44 152.5 45 vstem
          328 565 rmoveto
          5 callsubr
          -195 -332 rmoveto
          -74 callsubr
          endchar
        </CharString>
        <CharString name="cedilla">
          20 -21 hstem
          339 39 vstem
          239 -1 rmoveto
          73 -48 27 -35 0 -24 0 -25 -36 -17 -90 -15 rrcurveto
          5 -38 rlineto
          106 17 54 31 0 45 0 40 -42 45 -81 52 rrcurveto
          endchar
        </CharString>
        <CharString name="cent">
          39 39 358 42 142 -20 hstem
          85 41 vstem
          126 264 rmoveto
          0 77 41 68 145 21 rrcurveto
          -41 -328 rlineto
          -108 31 -37 58 0 73 rrcurveto
          312 -225 rmoveto
          5 39 rlineto
          -54 2 -45 5 -38 8 rrcurveto
          42 341 rlineto
          33 3 37 1 42 -2 rrcurveto
          6 42 rlineto
          -41 1 -36 -1 -34 -3 rrcurveto
          20 145 -40 0 -19 -150 rlineto
          -176 -28 -55 -89 0 -95 0 -87 45 -74 133 -36 rrcurveto
          -19 -147 40 0 17 139 rlineto
          39 -8 46 -4 52 -2 rrcurveto
          endchar
        </CharString>
        <CharString name="check.1">
          -29 706 hstem
          85 412 vstem
          497 660 rmoveto
          -46 17 rlineto
          -82 -195 -68 -217 -52 -230 rrcurveto
          -2 0 -123 302 -39 -18 145 -348 40 5 rlineto
          58 244 76 232 93 208 rrcurveto
          endchar
        </CharString>
        <CharString name="check.2">
          12 -21 27 -21 27 -21 486 -20 hstemhm
          99 379 hintmask 01011000
          373 -3 rmoveto
          43 10 -138 264 200 389 -45 19 -178 -372 -94 182 -41 -16 110 -206 rlineto
          hintmask 00111000
          -131 -264 rlineto
          hintmask 10011000
          29 -12 125 243 rlineto
          endchar
        </CharString>
        <CharString name="circumflex">
          560 176 hstem
          107 336 vstem
          414 560 rmoveto
          -25 callsubr
          endchar
        </CharString>
        <CharString name="colon">
          -11 162 198 162 hstem
          194 161 vstem
          194 431 rmoveto
          -45 34 -37 46 47 34 37 45 44 -34 36 -47 -46 -34 -36 -44 vhcurveto
          -361 vmoveto
          -46 34 -35 46 47 34 35 46 44 -34 37 -47 -46 -34 -37 -44 vhcurveto
          endchar
        </CharString>
        <CharString name="colon.alt">
          96 87 254 87 hstemhm
          237.5 78 -75 78 hintmask 11010000
          318 437 rmoveto
          1 87 -78 0 -1 -87 rlineto
          hintmask 11100000
          75 -341 rmoveto
          1 87 -78 0 -1 -87 rlineto
          endchar
        </CharString>
        <CharString name="colonmonetary">
          24 39 486 36 -30 41 hstemhm
          74 40 88.5 36.5 18 38.5 31.5 36.5 21.5 37.5 hintmask 10111010
          337 80 rmoveto
          -33 7 -30 8 -25 11 rrcurveto
          hintmask 11011010
          37 417 rlineto
          27 9 31 7 35 5 rrcurveto
          -265 -237 rmoveto
          0 91 38 70 99 42 rrcurveto
          -34 -389 rlineto
          -73 41 -30 61 0 84 rrcurveto
          208 -381 rmoveto
          37 0 9 108 rlineto
          hintmask 10111111
          32 -5 34 -3 37 -2 rrcurveto
          8 39 rlineto
          -40 2 -36 4 -33 5 rrcurveto
          42 475 rlineto
          26 3 29 2 31 1 rrcurveto
          -3 41 rlineto
          -27 -1 -26 -2 -24 -3 rrcurveto
          9 103 -37 0 -10 -108 rlineto
          -33 -5 -30 -7 -27 -9 rrcurveto
          11 129 -38 0 -12 -143 rlineto
          -126 -51 -51 -91 0 -108 0 -101 41 -74 95 -46 rrcurveto
          hintmask 10111010
          -15 -153 38 0 12 137 rlineto
          26 -9 29 -8 32 -6 rrcurveto
          endchar
        </CharString>
        <CharString name="comma">
          -202 292 hstem
          265 51 vstem
          203 -193 rmoveto
          -104 callsubr
          endchar
        </CharString>
        <CharString name="commaaccent">
          -268 198 hstem
          254 45 vstem
          225 -261 rmoveto
          8 callsubr
          endchar
        </CharString>
        <CharString name="commaaccent.rot">
          562 198 hstem
          241 45 vstem
          315 753 rmoveto
          9 callsubr
          endchar
        </CharString>
        <CharString name="copyright">
          7 30 96 36 287 38 89 30 hstem
          49 32 98 38 252 32 vstem
          501 314 rmoveto
          187 -93 112 -124 -129 -106 -123 -184 -187 99 -112 130 125 98 113 194 vhcurveto
          -420 -5 rmoveto
          163 88 111 113 107 80 -106 -166 -170 -83 -104 -105 -113 -87 104 168 vhcurveto
          267 -140 rmoveto
          -104 -6 -27 54 0 94 0 82 17 58 112 5 rrcurveto
          -4 38 rlineto
          -120 -10 -43 -80 0 -95 0 -109 41 -76 124 9 rrcurveto
          endchar
        </CharString>
        <CharString name="d">
          -11 38 -8 -21 24 -21 451 38 -7 -20 234 -20 24 -20 hstemhm
          64 44 291 44 hintmask 1001001110000000
          265 27 rmoveto
          -73 callsubr
          hintmask 0101001110000000
          142 -29 rmoveto
          hintmask 0011001110000000
          -72 callsubr
          hintmask 1000110110000000
          -44 -4 0 -214 rlineto
          hintmask 1001001110000000
          -71 callsubr
          endchar
        </CharString>
        <CharString name="dagger">
          483.5 36 -32 36 hstemhm
          253.5 38.5 -37.5 45 hintmask 10100000
          286 116 rmoveto
          12 369 188 -3 2 36 rlineto
          hintmask 10010000
          -189 3 1 171 -45 1 rlineto
          hintmask 01010000
          -1 -171 -183 3 -2 -36 rlineto
          hintmask 01100000
          185 -3 -1 -380 7 -6 rlineto
          endchar
        </CharString>
        <CharString name="daggerdbl">
          283.5 36 -32 36 160 36 -32 36 hstemhm
          253.5 36.5 -36 42.5 -42 45 hintmask 10101000
          287 66 rmoveto
          6 219 187 -3 2 36 rlineto
          hintmask 10100100
          -188 3 5 164 187 -3 2 36 rlineto
          hintmask 01100010
          -189 3 1 171 -45 1 rlineto
          hintmask 01010010
          -1 -171 -183 3 -2 -36 rlineto
          hintmask 01010100
          185 -3 0 -164 -189 3 -2 -36 rlineto
          hintmask 01101000
          191 -3 -1 -231 7 -5 rlineto
          endchar
        </CharString>
        <CharString name="dcaron">
          -11 38 -8 -21 24 -21 451 38 -7 -20 234 -20 24 -20 hstemhm
          64 44 291 44 103 46 hintmask 1001001111000000
          510 563 rmoveto
          7 callsubr
          -245 -536 rmoveto
          -91 -66 70 132 143 90 80 109 hvcurveto
          32 0 28 -6 32 -9 0 -162 1 -95 2 -98 -37 -30 -50 -25 -50 0 rrcurveto
          hintmask 0101001111000000
          142 -29 rmoveto
          hintmask 0011001111000000
          -72 callsubr
          hintmask 1000110111000000
          -44 -4 0 -214 rlineto
          hintmask 1001001111000000
          -71 callsubr
          endchar
        </CharString>
        <CharString name="dcroat">
          -11 38 -8 -21 24 -21 451 38 -7 -20 125 33 -33 113 -4 -20 hstemhm
          64 44 291 44 hintmask 1001010111000000
          265 27 rmoveto
          -73 callsubr
          hintmask 0101010111000000
          142 -29 rmoveto
          hintmask 0011010111000000
          43 3 rlineto
          -5 113 -2 157 0 203 rrcurveto
          114 78 33 -78 vlineto
          hintmask 1001001011000000
          0 80 rlineto
          hintmask 1000110111000000
          -44 -4 0 -76 -143 0 0 -33 143 0 0 -105 rlineto
          hintmask 1001010111000000
          -71 callsubr
          endchar
        </CharString>
        <CharString name="degree">
          328 35 270 35 hstem
          112 39 248 39 vstem
          438 502 rmoveto
          102 -68 64 -89 -89 -80 -68 -106 -102 68 -64 89 89 80 68 106 vhcurveto
          -39 1 rmoveto
          -1 -85 -54 -55 -71 0 -73 0 -51 58 2 76 1 82 54 54 71 0 74 0 50 -57 -2 -73 rrcurveto
          endchar
        </CharString>
        <CharString name="dieresis">
          565 130 hstem
          145.5 45.5 171.5 45.5 vstem
          407 565 rmoveto
          -37 callsubr
          -173 hmoveto
          -37 callsubr
          endchar
        </CharString>
        <CharString name="divide">
          71 72 125 38 125 72 hstem
          244.5 60 vstem
          cntrmask 11100000
          304 431 rmoveto
          1 72 -60 0 -1 -72 rlineto
          240 -125 rmoveto
          -418 -38 417 hlineto
          -179 -197 rmoveto
          1 72 -60 0 -1 -72 rlineto
          endchar
        </CharString>
        <CharString name="dollar">
          20 40 497 40 hstem
          108 43 267 43 vstem
          151 475 rmoveto
          0 43 43 37 117 2 rrcurveto
          -37 -209 rlineto
          -66 40 -57 39 0 48 rrcurveto
          267 -318 rmoveto
          0 -48 -48 -43 -115 -6 rrcurveto
          40 226 rlineto
          66 -40 57 -40 0 -49 rrcurveto
          -187 -247 rmoveto
          19 112 rlineto
          146 10 65 64 0 66 0 69 -79 51 -78 47 rrcurveto
          42 228 rlineto
          31 -1 37 -3 41 -6 rrcurveto
          4 43 rlineto
          -38 5 -34 2 -31 0 rrcurveto
          22 112 -41 0 -19 -112 rlineto
          -149 -7 -61 -58 0 -64 0 -67 78 -50 78 -46 rrcurveto
          -44 -245 rlineto
          -36 0 -41 4 -47 8 rrcurveto
          -8 -43 rlineto
          45 -6 41 -3 36 0 rrcurveto
          -20 -110 rlineto
          endchar
        </CharString>
        <CharString name="dotaccent">
          565 130 hstem
          251.5 45 vstem
          294 565 rmoveto
          5 callsubr
          endchar
        </CharString>
        <CharString name="dotlessi">
          0 35 411 34 hstem
          272 44 vstem
          509 hmoveto
          -4 callsubr
          endchar
        </CharString>
        <CharString name="e">
          -11 40 204 31.5 188.5 38 hstem
          76 43 312 43 vstem
          446 -11 rmoveto
          -70 callsubr
          -160 464 rmoveto
          -69 callsubr
          endchar
        </CharString>
        <CharString name="eacute">
          -11 40 204 31.5 188.5 38 hstem
          76 43 312 43 vstem
          198 584 rmoveto
          -32 callsubr
          248 -595 rmoveto
          -70 callsubr
          -160 464 rmoveto
          -69 callsubr
          endchar
        </CharString>
        <CharString name="ebreve">
          -11 40 204 31.5 188.5 38 81 38 hstem
          76 43 312 43 vstem
          282 572 rmoveto
          3 callsubr
          164 -583 rmoveto
          -70 callsubr
          -160 464 rmoveto
          -69 callsubr
          endchar
        </CharString>
        <CharString name="ecaron">
          -11 40 204 31.5 188.5 38 hstem
          76 43 312 43 vstem
          291 562 rmoveto
          6 callsubr
          156 -573 rmoveto
          -70 callsubr
          -160 464 rmoveto
          -69 callsubr
          endchar
        </CharString>
        <CharString name="ecircumflex">
          -11 40 204 31.5 188.5 38 hstem
          76 43 312 43 vstem
          425 567 rmoveto
          -25 callsubr
          161 -705 rmoveto
          -70 callsubr
          -160 464 rmoveto
          -69 callsubr
          endchar
        </CharString>
        <CharString name="edieresis">
          -11 40 204 31.5 188.5 38 81 130 hstem
          76 43 37.5 45.5 171.5 45.5 12 43 vstem
          418 572 rmoveto
          -37 callsubr
          -173 hmoveto
          -37 callsubr
          289 -583 rmoveto
          -70 callsubr
          -160 464 rmoveto
          -69 callsubr
          endchar
        </CharString>
        <CharString name="edotaccent">
          -11 40 204 31.5 188.5 38 81 130 hstem
          76 43 144.5 45 122.5 43 vstem
          306 572 rmoveto
          5 callsubr
          184 -583 rmoveto
          -70 callsubr
          -160 464 rmoveto
          -69 callsubr
          endchar
        </CharString>
        <CharString name="egrave">
          -11 40 204 31.5 188.5 38 hstem
          76 43 312 43 vstem
          372 575 rmoveto
          -77 callsubr
          90 -566 rmoveto
          -70 callsubr
          -160 464 rmoveto
          -69 callsubr
          endchar
        </CharString>
        <CharString name="eight">
          -11 38 566 38 hstemhm
          81 45 -33 44 278 44 -34 44 hintmask 11100100
          264 -11 rmoveto
          123 82 70 89 hvcurveto
          0 80 -78 47 -81 44 rrcurveto
          hintmask 11011000
          91 43 58 51 0 79 rrcurveto
          84 -76 55 -100 -121 -69 -77 -74 vhcurveto
          0 -75 67 -47 74 -42 rrcurveto
          hintmask 11100100
          -93 -44 -60 -62 0 -78 rrcurveto
          -87 76 -56 107 vhcurveto
          hintmask 11011000
          -127 498 rmoveto
          55 47 51 93 87 51 -46 -64 vhcurveto
          0 -64 -50 -46 -84 -38 rrcurveto
          -75 41 -69 43 0 68 rrcurveto
          hintmask 11100100
          136 -460 rmoveto
          -93 -54 48 69 hvcurveto
          0 63 50 53 88 39 81 -45 80 -43 0 -71 rrcurveto
          -65 -59 -48 -93 vhcurveto
          endchar
        </CharString>
        <CharString name="eight.den">
          -220 32 198 -21 23 -21 169 33 hstemhm
          133 38 -30 39 193 37 -32 39 hintmask 10111001
          267 -220 rmoveto
          25 callsubr
          hintmask 10110110
          37 callsubr
          hintmask 11010101
          38 callsubr
          hintmask 10111001
          27 callsubr
          hintmask 10110110
          -87 318 rmoveto
          28 callsubr
          hintmask 10111001
          93 -286 rmoveto
          29 callsubr
          endchar
        </CharString>
        <CharString name="eight.inf">
          -160 32 348 33 hstemhm
          133 38 -30 39 193 37 -32 39 hintmask 11100100
          267 -160 rmoveto
          25 callsubr
          hintmask 11011000
          26 callsubr
          hintmask 11100100
          27 callsubr
          hintmask 11011000
          -87 318 rmoveto
          28 callsubr
          hintmask 11100100
          93 -286 rmoveto
          29 callsubr
          endchar
        </CharString>
        <CharString name="eight.num">
          415 32 177 -20 22 -20 34 -20 175 33 hstemhm
          133 38 -30 39 193 37 -32 39 hintmask 1001110010000000
          267 415 rmoveto
          91 59 48 56 hvcurveto
          hintmask 1010110010000000
          0 50 -53 30 -56 27 rrcurveto
          hintmask 1100101100000000
          26 callsubr
          hintmask 1100110010000000
          27 callsubr
          hintmask 1001101100000000
          -87 318 rmoveto
          28 callsubr
          hintmask 1001110010000000
          93 -286 rmoveto
          29 callsubr
          endchar
        </CharString>
        <CharString name="eight.small">
          -10 32 348 33 hstemhm
          133 38 -30 39 193 37 -32 39 hintmask 11100100
          267 -10 rmoveto
          25 callsubr
          hintmask 11011000
          26 callsubr
          hintmask 11100100
          27 callsubr
          hintmask 11011000
          -87 318 rmoveto
          28 callsubr
          hintmask 11100100
          93 -286 rmoveto
          29 callsubr
          endchar
        </CharString>
        <CharString name="eight.sup">
          315 32 348 33 hstemhm
          133 38 -30 39 193 37 -32 39 hintmask 11100100
          267 315 rmoveto
          25 callsubr
          hintmask 11011000
          26 callsubr
          hintmask 11100100
          27 callsubr
          hintmask 11011000
          -87 318 rmoveto
          28 callsubr
          hintmask 11100100
          93 -286 rmoveto
          29 callsubr
          endchar
        </CharString>
        <CharString name="ellipsis">
          0 86 hstem
          52 79 104 79 104 79 vstem
          cntrmask 01110000
          495 hmoveto
          16 callsubr
          -104 hmoveto
          16 callsubr
          -104 hmoveto
          16 callsubr
          endchar
        </CharString>
        <CharString name="emacron">
          -11 40 204 31.5 188.5 38 130 39 hstem
          76 43 312 43 vstem
          445 660 rmoveto
          -35 callsubr
          1 -632 rmoveto
          -70 callsubr
          -160 464 rmoveto
          -69 callsubr
          endchar
        </CharString>
        <CharString name="emdash">
          270 34 hstem
          56 441 vstem
          497 304 rmoveto
          -441 -34 437 hlineto
          endchar
        </CharString>
        <CharString name="endash">
          270 34 hstem
          79 396 vstem
          475 304 rmoveto
          -396 -34 393 hlineto
          endchar
        </CharString>
        <CharString name="eogonek">
          11 -21 4 35 204 31.5 188.5 38 hstemhm
          76 43 144 40 128 43 hintmask 01111110
          424 -205 rmoveto
          5 38 rlineto
          -91 11 -35 18 0 25 rrcurveto
          hintmask 10111110
          0 24 30 32 113 47 rrcurveto
          hintmask 01111110
          6 39 rlineto
          -256 8 -73 59 -4 132 rrcurveto
          352 10 rlineto
          18 147 -68 106 -127 0 -122 0 -96 -112 0 -144 0 -145 71 -83 246 -13 -97 -45 -33 -35 0 -36 rrcurveto
          0 -41 42 -28 119 -14 rrcurveto
          -138 658 rmoveto
          -69 callsubr
          endchar
        </CharString>
        <CharString name="equal">
          180 72 118 72 hstem
          81 388 vstem
          469 442 rmoveto
          -388 -72 388 hlineto
          -118 vmoveto
          -388 -72 388 hlineto
          endchar
        </CharString>
        <CharString name="eth">
          -11 38 396 38 156 -20 hstem
          64 43 334 42 vstem
          266 -11 rmoveto
          116 101 85 166 hvcurveto
          0 133 -53 117 -116 104 rrcurveto
          109 63 -14 30 -121 -70 rlineto
          -35 29 -41 29 -46 27 rrcurveto
          -25 -31 rlineto
          42 -24 36 -25 33 -26 rrcurveto
          -122 -70 15 -29 133 77 rlineto
          45 -40 34 -41 26 -42 -154 40 -165 -84 0 -188 rrcurveto
          -143 90 -87 112 vhcurveto
          6 38 rmoveto
          -99 -66 79 117 hvcurveto
          0 148 112 99 190 -70 22 -52 10 -53 0 -56 rrcurveto
          -136 -69 -76 -100 vhcurveto
          endchar
        </CharString>
        <CharString name="exclam">
          -11 134 566 -20 hstemhm
          208 134 -110 84.5 hintmask 11010000
          321 689 rmoveto
          -94 0 10 -462 75 0 rlineto
          hintmask 11100000
          -37 -104 rmoveto
          -107 callsubr
          endchar
        </CharString>
        <CharString name="exclamdown">
          535 85 hstemhm
          237.5 77 -58.5 28 hintmask 11000000
          238 620 rmoveto
          -1 -85 77 0 1 85 rlineto
          hintmask 10100000
          -59 -220 rmoveto
          -4 -140 -9 -168 -7 -147 rrcurveto
          56 hlineto
          -3 147 -5 168 0 140 rrcurveto
          endchar
        </CharString>
        <CharString name="f">
          0 34 411 35 177 43 hstem
          231 44 vstem
          473 34 rmoveto
          -198 411 207 35 -207 4 hlineto
          0 123 34 38 204 12 rrcurveto
          -4 43 rlineto
          -214 -11 -63 -79 -1 -130 rrcurveto
          -146 0 -5 -35 151 0 0 -411 -145 0 0 -34 383 0 rlineto
          endchar
        </CharString>
        <CharString name="five">
          11 -21 590 40 hstem
          121 40.5 260.5 42 vstem
          464 201 rmoveto
          0 81 -73 69 -237 19 rrcurveto
          15 210 271 0 4 40 -313 0 -20 -284 rlineto
          239 -14 72 -55 0 -66 0 -87 -88 -59 -236 -23 rrcurveto
          3 -42 rlineto
          250 22 113 81 0 108 rrcurveto
          endchar
        </CharString>
        <CharString name="five.den">
          -220 37 181 30 122 35 hstem
          162 34 181 36 vstem
          413 -83 rmoveto
          21 callsubr
          endchar
        </CharString>
        <CharString name="five.inf">
          -160 37 181 30 122 35 hstem
          162 34 181 36 vstem
          413 -23 rmoveto
          21 callsubr
          endchar
        </CharString>
        <CharString name="five.num">
          415 37 181 30 122 35 hstem
          162 34 181 36 vstem
          413 552 rmoveto
          21 callsubr
          endchar
        </CharString>
        <CharString name="five.small">
          11 -21 0 37 181 30 122 35 hstemhm
          162 34 181 36 hintmask 10111100
          413 127 rmoveto
          0 53 -52 45 -170 13 rrcurveto
          10 122 195 0 4 35 -231 0 -14 -187 rlineto
          170 -10 52 -32 0 -39 rrcurveto
          hintmask 01111100
          0 -51 -63 -35 -169 -14 rrcurveto
          3 -37 rlineto
          183 15 82 52 0 70 rrcurveto
          endchar
        </CharString>
        <CharString name="five.sup">
          315 37 181 30 122 35 hstem
          162 34 181 36 vstem
          413 452 rmoveto
          21 callsubr
          endchar
        </CharString>
        <CharString name="fiveeighths">
          -220 32 198 -21 23 -21 169 33 95 33 94 37 181 30 122 35 hstemhm
          133 38 -30 39 -18 34 177 37 -33 36 -35 39 hintmask 1011111100101000
          413 552 rmoveto
          21 callsubr
          -350 -264 rmoveto
          -29 callsubr
          hintmask 1011111110000100
          204 -541 rmoveto
          25 callsubr
          hintmask 1011111101010000
          37 callsubr
          hintmask 1101111101001000
          38 callsubr
          hintmask 1011111110001000
          27 callsubr
          hintmask 1011111101010000
          -87 318 rmoveto
          28 callsubr
          hintmask 1011111110000100
          93 -286 rmoveto
          29 callsubr
          endchar
        </CharString>
        <CharString name="fivesixths">
          -219 34 184 31 258 33 94 37 181 30 122 35 hstemhm
          132 36 -6 34 181 36 -29 37 hintmask 1111110110000000
          413 552 rmoveto
          21 callsubr
          -350 -264 rmoveto
          -29 callsubr
          hintmask 1110011001000000
          212 -540 rmoveto
          22 callsubr
          5 34 rmoveto
          23 callsubr
          endchar
        </CharString>
        <CharString name="four">
          0 182 -40 40 442 -20 24 -20 hstemhm
          93 35 254 42 hintmask 01011100
          501 142 rmoveto
          5 40 -82 0 0 236 -42 -5 0 -231 -254 0 rlineto
          hintmask 01101100
          7 91 42 202 36 149 rrcurveto
          hintmask 01011100
          -49 4 rlineto
          -46 -189 -26 -190 1 -107 rrcurveto
          289 hlineto
          hintmask 10011100
          -142 42 vlineto
          hintmask 01011100
          142 vlineto
          endchar
        </CharString>
        <CharString name="four.den">
          -121.5 33.5 hstem
          141 32 175.5 36 vstem
          441 -122 rmoveto
          -28 callsubr
          endchar
        </CharString>
        <CharString name="four.inf">
          -61.5 33.5 hstem
          141 32 175.5 36 vstem
          441 -62 rmoveto
          -28 callsubr
          endchar
        </CharString>
        <CharString name="four.num">
          513.5 33.5 hstem
          141 32 175.5 36 vstem
          441 513 rmoveto
          -28 callsubr
          endchar
        </CharString>
        <CharString name="four.small">
          0 122 -33.5 33.5 hstemhm
          141 32 175.5 36 hintmask 01110000
          441 88 rmoveto
          3 34 -60 0 1 146 -37 -3 1 -143 -176 0 rlineto
          4 50 33 145 24 82 rrcurveto
          -41 4 rlineto
          -33 -122 -19 -123 0 -70 rrcurveto
          208 1 rlineto
          hintmask 10110000
          -1 -89 37 0 rlineto
          hintmask 01110000
          -1 89 rlineto
          endchar
        </CharString>
        <CharString name="four.sup">
          413.5 33.5 hstem
          141 32 175.5 36 vstem
          441 413 rmoveto
          -28 callsubr
          endchar
        </CharString>
        <CharString name="fourfifths">
          -220 37 181 30 122 35 103 33 192.5 33.5 hstemhm
          141 32 -11 34 152.5 36 -7.5 36 hintmask 1111101100000000
          441 513 rmoveto
          3 34 -60 0 1 146 -37 -3 1 -143 rlineto
          hintmask 1111110100000000
          -176 hlineto
          4 50 33 145 24 82 rrcurveto
          -41 4 rlineto
          -33 -122 -19 -123 0 -70 rrcurveto
          208 1 -1 -89 37 0 -1 89 rlineto
          -321 -226 rmoveto
          -29 callsubr
          hintmask 1111101010000000
          350 -404 rmoveto
          21 callsubr
          endchar
        </CharString>
        <CharString name="fraction">
          -160 910 hstem
          48 446 vstem
          85 -160 rmoveto
          409 893 -37 17 -409 -893 rlineto
          endchar
        </CharString>
        <CharString name="fraction.afrc">
          288 33 hstem
          63 424 vstem
          63 288 rmoveto
          -29 callsubr
          endchar
        </CharString>
        <CharString name="g">
          -170 42 158 38 384 38 hstem
          66 44 297 44 vstem
          130 -170 rmoveto
          -68 callsubr
          142 196 rmoveto
          -67 callsubr
          endchar
        </CharString>
        <CharString name="gbreve">
          -170 42 158 38 384 38 81 38 hstem
          66 44 297 44 vstem
          282 571 rmoveto
          3 callsubr
          -152 -741 rmoveto
          -68 callsubr
          142 196 rmoveto
          -67 callsubr
          endchar
        </CharString>
        <CharString name="gcommaaccent">
          -170 42 158 38 384 38 hstem
          66 44 139 45 113 44 vstem
          323 759 rmoveto
          9 callsubr
          -193 -929 rmoveto
          -68 callsubr
          142 196 rmoveto
          -67 callsubr
          endchar
        </CharString>
        <CharString name="gdotaccent">
          -170 42 158 38 384 38 81 130 hstem
          66 44 153.5 45 98.5 44 vstem
          306 571 rmoveto
          5 callsubr
          -132 -741 rmoveto
          -68 callsubr
          142 196 rmoveto
          -67 callsubr
          endchar
        </CharString>
        <CharString name="germandbls">
          -4 39 -14 -21 661 39 hstemhm
          101 43 122 43 74 44 34 42 hintmask 10111110
          309 353 rmoveto
          0 62 118 47 0 112 rrcurveto
          62 -43 64 -95 -121 -67 -97 -138 vhcurveto
          hintmask 01111110
          -465 43 476 vlineto
          116 46 69 89 71 33 -46 -48 vhcurveto
          0 -89 -117 -52 0 -77 rrcurveto
          hintmask 10111110
          0 -105 195 -38 0 -85 0 -51 -56 -49 -139 18 rrcurveto
          -2 -43 rlineto
          174 -15 65 74 0 72 rrcurveto
          0 109 -194 39 0 78 rrcurveto
          endchar
        </CharString>
        <CharString name="grave">
          548 200 hstem
          148 220 vstem
          368 568 rmoveto
          -77 callsubr
          endchar
        </CharString>
        <CharString name="greater">
          530 -20 hstem
          415 72 vstem
          103 594 rmoveto
          -41 -64 353 -217 -353 -218 45 -62 380 237 0 86 rlineto
          endchar
        </CharString>
        <CharString name="greaterequal">
          24 39 hstem
          412 44.5 vstem
          412 343 rmoveto
          0 -8 -309 -177 17 -35 337 194 -1 41 -331 217 -20 -33 rlineto
          -22 -479 rmoveto
          -39 384 39 vlineto
          endchar
        </CharString>
        <CharString name="guillemotleft">
          7 -21 506 -20 hstem
          58.5 32.5 198.5 32.5 vstem
          231 -14 rmoveto
          -36 callsubr
          405 -232 rmoveto
          -36 callsubr
          endchar
        </CharString>
        <CharString name="guillemotleft.cap">
          56 506 hstem
          58.5 32.5 198.5 32.5 vstem
          231 56 rmoveto
          -36 callsubr
          405 -232 rmoveto
          -36 callsubr
          endchar
        </CharString>
        <CharString name="guillemotright">
          7 -21 506 -20 hstem
          229 32.5 198.5 32.5 vstem
          318 -14 rmoveto
          -30 callsubr
          -197 -29 rmoveto
          -30 callsubr
          endchar
        </CharString>
        <CharString name="guillemotright.cap">
          56 506 hstem
          229 32.5 198.5 32.5 vstem
          318 56 rmoveto
          -30 callsubr
          -197 -29 rmoveto
          -30 callsubr
          endchar
        </CharString>
        <CharString name="guilsinglleft">
          7 -21 508 -20 hstem
          134.5 34.5 vstem
          387 -14 rmoveto
          17 callsubr
          endchar
        </CharString>
        <CharString name="guilsinglleft.cap">
          56 508 hstem
          134.5 34.5 vstem
          387 56 rmoveto
          17 callsubr
          endchar
        </CharString>
        <CharString name="guilsinglright">
          7 -21 508 -20 hstem
          382 34.5 vstem
          159 -14 rmoveto
          18 callsubr
          endchar
        </CharString>
        <CharString name="guilsinglright.cap">
          56 508 hstem
          382 34.5 vstem
          159 56 rmoveto
          18 callsubr
          endchar
        </CharString>
        <CharString name="h">
          21 -21 452 38 207 -20 24 -20 hstemhm
          102 44 269 44 hintmask 11011100
          297 452 rmoveto
          75 43 -39 -102 hvcurveto
          -311 44 323 vlineto
          118 -60 49 -90 vhcurveto
          -67 0 -53 -28 -43 -31 rrcurveto
          0 270 rlineto
          hintmask 11101100
          -44 -4 0 -697 44 0 0 400 rlineto
          46 31 48 21 57 0 rrcurveto
          endchar
        </CharString>
        <CharString name="hbar">
          21 -21 452 38 98 33 -33 113 -4 -20 hstemhm
          102 44 269 44 hintmask 11101110
          297 452 rmoveto
          75 43 -39 -102 hvcurveto
          -311 44 323 vlineto
          118 -60 49 -90 vhcurveto
          -67 0 -53 -28 -43 -31 rrcurveto
          157 142 33 -142 vlineto
          hintmask 11010110
          0 80 rlineto
          hintmask 11101110
          -44 -4 0 -76 -79 0 0 -33 79 0 0 -588 44 0 0 400 rlineto
          46 31 48 21 57 0 rrcurveto
          endchar
        </CharString>
        <CharString name="hcoslug">
          -100 75 4 9 -8 10 -10 14 -4 11 -10 10 -9 7 0 12 -11 11 -7 15 -15 26 -25 26 -15 15 -15 39 -36 12 0 14 -9 10 -10 19 -9 11 2 8 -7 32 71.5 22.5 hstemhm
          50 64 10 16 -3 8 5 40 -35 12 -1 12 14 10 -2 10 -10 42 -31 9 -1 7 3 12 -6 11 9 40 -29 13 -9 10 0 12 -4 11 -2 12 -5 16 18 11 10 8 hintmask 001000000000000010000010000010000010000010010000
          500 700 rmoveto
          -450 hlineto
          hintmask 100000000000000000001110000000100000001000000000
          -800 450 vlineto
          -300 396 rmoveto
          0 -17 11 -11 17 -16 9 13 5 12 0 12 rrcurveto
          18 -9 11 -13 -12 -8 -9 -13 vhcurveto
          49 -64 rmoveto
          12 -12 9 -12 9 -11 15 25 3 18 -17 17 -7 -7 -10 -9 -14 -9 rrcurveto
          -39 -93 rmoveto
          12 0 9 3 8 6 -21 27 -21 22 -14 13 -8 -8 -4 -11 0 -11 0 -23 17 -18 22 0 rrcurveto
          91 34 rmoveto
          19 -22 13 -9 15 0 15 0 9 9 8 13 rrcurveto
          5 -1 rlineto
          -1 -44 -27 -27 -32 0 -22 0 -17 8 -25 26 -21 -23 -25 -11 -32 0 -45 0 -36 30 0 40 0 31 21 24 40 13 -16 17 -7 13 0 22 rrcurveto
          32 31 32 51 46 25 -30 -26 vhcurveto
          0 -10 -2 -8 -5 -7 20 0 15 -8 2 -20 12 18 14 10 19 0 rrcurveto
          21 16 -15 -24 -23 -16 -17 -21 hvcurveto
          -14 0 -12 7 -6 12 -12 -7 -12 -10 -11 -15 rrcurveto
          hintmask 000000000000000000001000000000000100000000000000
          -72 -105 rmoveto
          -8 10 -5 -10 vlineto
          hintmask 000000000000000001000000000000000100000000000000
          -15 vlineto
          -3 1 -1 2 vhcurveto
          2 0 1 1 1 4 rrcurveto
          4 -1 rlineto
          -2 -7 -3 -3 -6 0 rrcurveto
          -6 -3 4 6 hvcurveto
          hintmask 000000000000000000100000000000010000000000000000
          15 -5 5 5 7 vlineto
          hintmask 000000000000000010000000100000000000000000000000
          -75 -21 rmoveto
          40 callsubr
          hintmask 000000000000000010000010000000000000000000000000
          22 hmoveto
          41 callsubr
          hintmask 000000000000000100000000000000000000000100000000
          132 -1 rmoveto
          6 -2 4 -3 -5 -1 -5 -5 -6 1 -4 5 vhcurveto
          3 2 4 6 hvcurveto
          hintmask 000000000000000010000010000000000000000000000000
          -120 -9 rmoveto
          4 hlineto
          hintmask 000000000000000000100010000000000000000000000000
          19 -4 5 vlineto
          hintmask 000000000000000000001000000010000000000000000000
          13 -6 hlineto
          2 4 3 3 5 0 rrcurveto
          7 2 -5 -6 hvcurveto
          hintmask 000000000000000010000000000000010000000000000000
          -14 5 -5 vlineto
          hintmask 000000000001000000000000000010000000000000000000
          -17 5 3 hlineto
          hintmask 000000000000000000100000000010000000000000000000
          13 vlineto
          3 -1 3 -3 -3 -3 -3 -5 vhcurveto
          -11 3 -5 vlineto
          hintmask 000000000000000010000010000000000000000000000000
          -16 hlineto
          -71 5 rmoveto
          6 hlineto
          hintmask 000000000000000000010010000000000000000000000000
          31 -6 5 vlineto
          hintmask 000000000000000000001000001000000000000000000000
          38 hlineto
          hintmask 000000000000000000100000001000000000000000000000
          -15 -5 vlineto
          -2 8 -1 2 -6 0 rrcurveto
          -8 hlineto
          hintmask 000000000000000000010001000000000000000000000000
          -14 3 vlineto
          4 0 0 1 1 5 rrcurveto
          5 hlineto
          hintmask 000000000000000010000000100000000000000000000000
          -17 -5 vlineto
          -1 5 0 1 -4 0 rrcurveto
          -3 hlineto
          hintmask 000000000000000010000001000000000000000000000000
          -12 7 -5 vlineto
          hintmask 000000000000000010000010000000000000000000000000
          -23 hlineto
          hintmask 000000000000000001000000000000000100000000000000
          133 10 rmoveto
          5 hlineto
          3 -4 3 -3 3 0 3 0 1 2 0 1 rrcurveto
          hintmask 000000000000000000010000000000000100000000000000
          0 7 -18 -4 0 12 0 4 4 5 7 0 3 0 3 -1 2 -3 rrcurveto
          1 4 5 0 0 -10 -5 0 rlineto
          -3 4 -2 1 -3 0 -2 0 -2 -1 0 -2 rrcurveto
          hintmask 000000000001000000000000000000000000100000000000
          0 -5 18 2 0 -11 0 -5 -3 -4 -7 0 -5 0 -3 2 -2 2 rrcurveto
          -1 -3 -5 0 rlineto
          hintmask 000000000000000000010000000000000000100000000000
          38 38 rmoveto
          -5 5 hlineto
          hintmask 000000000000000000001000000000000000000100000000
          14 hlineto
          hintmask 000000000000000000010000000000000000000100000000
          -20 vlineto
          1 4 4 3 4 0 rrcurveto
          hintmask 000000000010000000000000000000000000000010000000
          7 5 -6 -9 -7 -3 -9 -9 hvcurveto
          -6 0 -3 2 -2 4 rrcurveto
          -3 -6 -4 0 rlineto
          hintmask 000000000000010000000000000000000000000010000000
          39 -6 rmoveto
          3 3 2 4 hvcurveto
          -3 7 -9 18 0 0 rrcurveto
          -3 5 hlineto
          hintmask 000000000000000000001000000000000000000010000000
          18 -5 -4 hlineto
          hintmask 000000000000010000000000000000000000000010000000
          7 -15 6 15 -4 0 0 5 rlineto
          hintmask 000000000100000000001000000000000000000010000000
          13 -5 -4 hlineto
          -10 -24 rlineto
          -3 -7 -4 -5 -6 0 rrcurveto
          -6 -3 3 4 3 2 2 3 hvcurveto
          5 0 1 -5 -2 -2 rrcurveto
          hintmask 000000001000000000000000000000000000000000000000
          45 -24 rmoveto
          -6 -4 vlineto
          -2 -4 -2 -3 -3 -3 2 -2 2 -2 1 0 1 0 1 1 1 3 rrcurveto
          3 -1 rlineto
          -1 -5 -2 -4 -6 0 rrcurveto
          hintmask 100000000000000000000000000000000000000001000000
          -4 0 -2 2 -3 3 -3 -3 -4 -2 -6 0 -7 0 -5 4 0 6 0 6 4 3 6 2 -3 3 -2 3 0 4 rrcurveto
          hintmask 000000000000010000000000000000000000000000100000
          5 4 6 9 6 4 -4 -5 vhcurveto
          0 -5 -3 -2 -5 -3 2 -2 4 -5 3 -3 2 2 2 3 1 2 rrcurveto
          -5 6 hlineto
          hintmask 000000000010000000000000000000000010000000000000
          -114 4 rmoveto
          11 4 hlineto
          -3 -2 2 2 2 1 1 0 hvcurveto
          0 -1 1 -2 -2 -2 -2 -6 vhcurveto
          hintmask 100000000000000000000000000000000000000000010000
          132 -13 rmoveto
          hintmask 000010000000000000000000000000000000000000010000
          15 9 8 11 vhcurveto
          hintmask 000010000000000000000000000000000000000000000000
          5 0 4 -2 3 -3 rrcurveto
          4 6 -16 -6 vlineto
          hintmask 000000010000000000000000000000000000000000000000
          -3 9 -2 3 -6 0 rrcurveto
          -6 -4 -5 -12 hvcurveto
          hintmask 010000000000000000000000000000000000000000000000
          -11 4 -6 8 vhcurveto
          hintmask 000001000000000000000000000000000000000000000000
          6 0 3 6 1 6 rrcurveto
          6 hlineto
          hintmask 100000000000000000000000000000000000000000000000
          -1 -10 -6 -7 -11 0 rrcurveto
          -13 -8 7 14 hvcurveto
          hintmask 000000010000000000000000000000000000000000100000
          -29 4 rmoveto
          2 1 2 3 0 3 rrcurveto
          3 -2 2 -3 -2 -2 -1 -3 vhcurveto
          0 -2 2 -3 3 -3 rrcurveto
          hintmask 001000000000000000000000000000000000010000000000
          -68 -11 rmoveto
          42 callsubr
          hintmask 100000000000000000000000000000000000010000000000
          -1 -6 -4 -5 -8 0 rrcurveto
          -10 -6 6 9 hvcurveto
          hintmask 000000000001000000000000000000000000010000000000
          10 7 6 8 vhcurveto
          11 0 4 -7 -1 -10 rrcurveto
          hintmask 001000000000000000000000000001000000000000000000
          -89 hmoveto
          42 callsubr
          hintmask 100000000000000000000000000000001000000000000000
          -1 -6 -4 -5 -8 0 rrcurveto
          hintmask 100000000000000000000000010000000000000000000000
          -10 -6 6 9 hvcurveto
          hintmask 000000000001000000000000010000000000000000000000
          10 7 6 8 vhcurveto
          hintmask 000000000001000000000000000000001000000000000000
          11 0 4 -7 -1 -10 rrcurveto
          hintmask 001000000000000000000010000001000000000000000000
          -63 2 rmoveto
          40 callsubr
          252 hmoveto
          hintmask 001000000000000000000000000000000000000000000000
          9 7 6 9 9 7 -6 -9 vhcurveto
          hintmask 001000000000000000000010000001000000000000000000
          -9 -7 -7 -9 -9 -7 6 10 vhcurveto
          hintmask 000000100000000000000000000001000000010000000000
          -138 2 rmoveto
          10 hlineto
          6 -1 3 -4 vhcurveto
          -3 -2 -2 -7 hvcurveto
          -70 hmoveto
          10 hlineto
          6 -1 3 -4 -3 -2 -2 -7 vhcurveto
          hintmask 001000000000000000000000000100000000000000000000
          -22 -2 rmoveto
          41 callsubr
          hintmask 001000000000000000000000000000000000000000000000
          252 hmoveto
          41 callsubr
          hintmask 100000000000000000000000000000001000000000000000
          -208 -10 rmoveto
          4 hlineto
          hintmask 000000100000000000000000000000001000000000000000
          19 -5 5 5 1 vlineto
          hintmask 000000000000001000000000000000001000000000000000
          10 7 4 6 vhcurveto
          4 0 2 -1 2 -1 rrcurveto
          8 2 rlineto
          hintmask 001000000000000000000000000000000000100000000000
          -39 4 -5 vlineto
          hintmask 100000000000000000000000000000000010000000000000
          -17 5 4 hlineto
          hintmask 000000100000000000000000000000000010000000000000
          19 -11 vlineto
          hintmask 001000000000000000000000000000000010000000000000
          -19 4 -5 vlineto
          hintmask 100000000000000000000000000000001000000000000000
          -17 hlineto
          hintmask 100000000000000000000000000000000001000000000000
          69 5 rmoveto
          4 hlineto
          hintmask 000000100000000000000000000000000001000000000000
          19 -4 5 vlineto
          hintmask 000000000001000000000000000000000000000001000000
          13 -6 hlineto
          2 5 3 2 4 0 rrcurveto
          4 2 -2 -4 -3 -2 -2 -3 -2 -3 1 3 hvcurveto
          1 vlineto
          -1 0 -3 -3 -1 -4 rrcurveto
          hintmask 001000000000000000000000000000000000000001000000
          -12 6 -5 vlineto
          hintmask 100000000000000000000000000000000001000000000000
          -19 hlineto
          hintmask 100000000000000000000010000000000000000000000000
          -183 5 rmoveto
          6 hlineto
          hintmask 000000010000000000000010000000000000000000000000
          31 -6 5 vlineto
          hintmask 000000000000100000000001000000000000000000000000
          21 -5 -5 hlineto
          hintmask 000000010000000000000001000000000000000000000000
          -12 16 12 -5 5 vlineto
          hintmask 000000000000100000000000000100000000000000000000
          21 -5 -6 hlineto
          hintmask 001000000000000000000000000100000000000000000000
          -31 6 -5 vlineto
          hintmask 100000000000000000000001000000000000000000000000
          -21 5 5 hlineto
          hintmask 000100000000000000000001000000000000000000000000
          14 -16 vlineto
          hintmask 001000000000000000000001000000000000000000000000
          -14 5 -5 vlineto
          hintmask 100000000000000000000010000000000000000000000000
          -21 hlineto
          hintmask 001000000000000000000000000000000000000000100000
          234 7 rmoveto
          -2 2 -4 5 -4 4 -2 -2 -1 -2 0 -3 0 -4 3 -3 4 0 rrcurveto
          2 0 2 1 2 2 rrcurveto
          hintmask 100000000000000000000000000000000000000000000000
          111 -2 rmoveto
          -3 -2 -3 -4 -4 -2 3 3 3 2 3 4 vhcurveto
          4 2 -3 -3 hvcurveto
          endchar
        </CharString>
        <CharString name="hungarumlaut">
          556 212 hstem
          135 365 vstem
          135 572 rmoveto
          11 callsubr
          205 -1 rmoveto
          12 callsubr
          endchar
        </CharString>
        <CharString name="hyphen">
          277 72 hstem
          75 400 vstem
          75 277 rmoveto
          400 72 -400 hlineto
          endchar
        </CharString>
        <CharString name="i">
          0 35 411 34 85 130 hstemhm
          269 45 -42 44 hintmask 11110000
          310 565 rmoveto
          8 130 -47 0 -4 -130 rlineto
          242 -565 rmoveto
          3 35 rlineto
          hintmask 11101000
          -196 445 -233 hlineto
          -4 -30 193 -8 0 -407 -196 0 0 -35 rlineto
          endchar
        </CharString>
        <CharString name="iacute">
          0 35 411 34 hstem
          272 44 vstem
          206 577 rmoveto
          -32 callsubr
          303 -577 rmoveto
          -4 callsubr
          endchar
        </CharString>
        <CharString name="ibreve">
          0 35 411 34 85 38 hstem
          272 44 vstem
          290 565 rmoveto
          3 callsubr
          219 -565 rmoveto
          -4 callsubr
          endchar
        </CharString>
        <CharString name="icircumflex">
          0 35 411 34 hstem
          272 44 vstem
          433 560 rmoveto
          -25 callsubr
          216 -687 rmoveto
          -4 callsubr
          endchar
        </CharString>
        <CharString name="idieresis">
          0 35 411 34 85 130 hstem
          164.5 45.5 62 44 65.5 45.5 vstem
          426 565 rmoveto
          -37 callsubr
          -173 hmoveto
          -37 callsubr
          344 -565 rmoveto
          -4 callsubr
          endchar
        </CharString>
        <CharString name="igrave">
          0 35 411 34 hstem
          272 44 vstem
          380 568 rmoveto
          -77 callsubr
          145 -548 rmoveto
          -4 callsubr
          endchar
        </CharString>
        <CharString name="imacron">
          0 35 411 34 134 39 hstem
          272 44 vstem
          453 653 rmoveto
          -35 callsubr
          56 -614 rmoveto
          -4 callsubr
          endchar
        </CharString>
        <CharString name="iogonek">
          0 35 411 34 85 130 hstemhm
          185 40 44 45 -42 44 hintmask 11111000
          310 565 rmoveto
          8 130 -47 0 -4 -130 rlineto
          84 -732 rmoveto
          -91 11 -35 17 0 29 0 25 21 29 67 56 rrcurveto
          196 0 3 35 rlineto
          hintmask 11110100
          -196 445 -233 hlineto
          -4 -30 193 -8 0 -407 -196 0 0 -35 195 0 rlineto
          -62 -50 -24 -32 0 -36 0 -46 42 -27 119 -14 rrcurveto
          endchar
        </CharString>
        <CharString name="j">
          -175 43 578 34 85 130 hstemhm
          312.5 43.5 -40 44 hintmask 11110000
          353 565 rmoveto
          6 130 -45 0 -3 -130 rlineto
          hintmask 11101000
          49 -532 rmoveto
          447 -268 vlineto
          -3 -30 227 -8 0 -416 rlineto
          0 -112 -41 -35 -234 -11 rrcurveto
          -1 -43 rlineto
          249 11 71 59 0 138 rrcurveto
          endchar
        </CharString>
        <CharString name="k">
          17 -21 25 -21 25 -21 222 35 217 -20 24 -20 235 -20 24 -20 hstemhm
          117 44 hintmask 1001010110000000
          455 -4 rmoveto
          hintmask 0011100110000000
          -66 callsubr
          hintmask 0011010110000000
          -65 callsubr
          hintmask 0101011010000000
          -64 callsubr
          endchar
        </CharString>
        <CharString name="kcommaaccent">
          17 -21 25 -21 25 -21 222 35 217 -20 24 -20 235 -20 24 -20 hstemhm
          117 44 121 45 hintmask 1001010111000000
          455 -4 rmoveto
          hintmask 0011100111000000
          -66 callsubr
          hintmask 0011010111000000
          -65 callsubr
          hintmask 0101011011000000
          -64 callsubr
          2 -492 rmoveto
          8 callsubr
          endchar
        </CharString>
        <CharString name="l">
          0 35 626.5 34.5 hstem
          255 44 vstem
          462 hmoveto
          -63 callsubr
          endchar
        </CharString>
        <CharString name="lacute">
          0 35 626.5 34.5 hstem
          255 44 vstem
          190 793 rmoveto
          -32 callsubr
          272 -793 rmoveto
          -63 callsubr
          endchar
        </CharString>
        <CharString name="lcaron">
          0 35 626.5 34.5 hstem
          255 44 183 46 vstem
          446 563 rmoveto
          7 callsubr
          16 -563 rmoveto
          -63 callsubr
          endchar
        </CharString>
        <CharString name="lcommaaccent">
          0 35 626.5 34.5 hstemhm
          255 44 -35 45 hintmask 11010000
          462 hmoveto
          4 35 rlineto
          hintmask 11100000
          -167 661 -194 hlineto
          -4 -31 154 -7 0 -623 -166 0 0 -35 rlineto
          hintmask 11010000
          146 -261 rmoveto
          10 callsubr
          endchar
        </CharString>
        <CharString name="ldot">
          0 35 237 85 304.5 34.5 hstem
          255 44 218 69 vstem
          462 hmoveto
          -63 callsubr
          495 272 rmoveto
          4 85 -69 0 -4 -85 rlineto
          endchar
        </CharString>
        <CharString name="less">
          530 -20 hstem
          62 72 vstem
          446 594 rmoveto
          -384 -237 0 -87 380 -237 45 61 -353 219 353 217 rlineto
          endchar
        </CharString>
        <CharString name="lessequal">
          24 39 hstem
          93.5 44.5 vstem
          138 343 rmoveto
          307 199 -20 33 -331 -217 -1 -41 337 -194 17 35 -309 177 rlineto
          329 -272 rmoveto
          -384 -39 384 hlineto
          endchar
        </CharString>
        <CharString name="lig.1">
          -11 68 296 67 216 63 hstemhm
          -454.66699 75.16699 -42.16699 75.16699 215.41699 70.58301 64.16699 75.16602 -42.16602 75.16602 215.41699 70.58301 hintmask 1110110110000000
          225.5 420 rmoveto
          -64.16699 -49.5 53 61 59 32.08398 43 65.08301 hvcurveto
          45.83301 0 30.25 -19 32.08398 -39 rrcurveto
          45.83301 46 rlineto
          -50.41699 61 -47.66602 14 -55 0 -107.25 0 -66 -77 0 -88 0 -43 12.83301 -42 35.75 -29 rrcurveto
          -318.08301 hlineto
          -64.16699 -49.5 53 61 59 32.08301 43 65.08398 hvcurveto
          45.83301 0 30.25 -19 32.08301 -39 rrcurveto
          45.83398 46 rlineto
          -50.41699 61 -47.66699 14 -55 0 -107.25 0 -66 -77 0 -88 0 -62 27.5 -61 82.5 -21 rrcurveto
          -3 vlineto
          hintmask 1111011010000000
          -91.66602 -21 -51.33398 -68 0 -103 0 -103 61.41699 -103 143 0 105.41699 0 56.83301 54 27.5 38 rrcurveto
          272 132 vlineto
          -44 -34 -23.83301 -54 0 -70 0 -103 61.41602 -103 143 0 105.41699 0 56.83301 54 27.5 38 rrcurveto
          272 82.5 67 vlineto
          -611.41602 -311 rmoveto
          -24.75 -34 -42.16699 -18 -50.41699 0 rrcurveto
          -92.58301 -38.5 68 73 71 40.33301 84 94.41699 hvcurveto
          113.66699 hlineto
          458.33301 -244 rmoveto
          -24.75 -34 -42.16699 -18 -50.41602 0 rrcurveto
          -92.58398 -38.5 68 73 71 40.33398 84 94.41602 hvcurveto
          113.66699 hlineto
          endchar
        </CharString>
        <CharString name="lig.10">
          34.83301 -103 rmoveto
          47 callsubr
          -253 675 rmoveto
          48 callsubr
          endchar
        </CharString>
        <CharString name="lig.100">
          26 -21 626 -20 hstemhm
          -314.41699 81.58398 -71.5 61.41602 hintmask 11100000
          -314.41699 631 rmoveto
          hintmask 11010000
          10.08398 -261 -223.66699 89 -27.5 -85 231.91699 -68 -139.33398 -197 68.75 -52 121.91699 210 135.66699 -216 66.91602 56 -152.16602 199 227.33301 69 -22.91699 84 -225.5 -88 rlineto
          hintmask 11100000
          10.08398 260 rlineto
          -305.25 -12 rmoveto
          97 callsubr
          527.08301 89 rmoveto
          98 callsubr
          endchar
        </CharString>
        <CharString name="lig.101">
          -292.41699 69.66699 296.08301 69.66699 vstem
          -292.41699 712 rmoveto
          -528.91602 -356 0 -86 528.91602 -359 69.66699 0 0 801 rlineto
          296.08301 hmoveto
          99 callsubr
          -435.41699 -711 rmoveto
          -462.91602 312 462.91602 310 rlineto
          endchar
        </CharString>
        <CharString name="lig.102">
          5 -21 657 -20 hstem
          -309.83301 68.75 vstem
          -241.08301 724 rmoveto
          -68.75 -826 68.75 hlineto
          -174.16699 743 rmoveto
          -420.75 -284 0 -87 420.75 -286 0 90 -354.75 239 354.75 239 rlineto
          279.58301 89 rmoveto
          0 -89 356.58398 -239 -356.58398 -240 0 -90 422.58398 287 0 86 rlineto
          endchar
        </CharString>
        <CharString name="lig.103">
          -57 77 616 66 hstem
          -462.91699 81.58398 86.16602 62.33398 115.5 83.41602 vstem
          -11 619 rmoveto
          -62.33301 44 -87.08398 31 -72.41602 8 rrcurveto
          146 -62.33398 -145 vlineto
          -112.75 -12 -55 -83 0 -80 0 -93 60.5 -59 107.25 -39 rrcurveto
          -317 vlineto
          -60.5 -4 -47.66602 8 -107.25 70 rrcurveto
          -323.58398 219 272.25 181 13.75 100 -352 -237 0 -87 389.58398 -265 rlineto
          90.75 -53 44.91602 -12 79.75 3 rrcurveto
          -96 62.33398 98 vlineto
          113.66602 18 85.25 88 0 126 0 124 -107.25 67 -91.66602 33 rrcurveto
          235 vlineto
          45.83301 -6 66 -23 110 -77 rrcurveto
          323.58301 -217 -253 -168 -20.16602 -108 339.16602 233 0 86 rlineto
          -673.75 67 rmoveto
          -66.91602 29 -19.25 30 0 47 0 57 36.66602 39 49.5 9 rrcurveto
          177.83398 -457 rmoveto
          58 callsubr
          endchar
        </CharString>
        <CharString name="lig.104">
          180 72 118 72 hstem
          433.58301 370 rmoveto
          72 -1275.08301 vlineto
          27.5 18 15.58301 17 13.75 17 rrcurveto
          57.75 68 -57.75 54 -248.41602 -305 248.41602 -305 57.75 54 -57.75 69 rlineto
          -13.75 17 -15.58301 16 -27.5 18 rrcurveto
          1275.08301 72 -1321.83301 hlineto
          -48.58301 59 48.58301 59 rlineto
          endchar
        </CharString>
        <CharString name="lig.105">
          180 72 118 72 hstem
          234.66699 616 rmoveto
          -57.75 -54 57.75 -68 rlineto
          13.75 -17 15.58301 -17 27.5 -18 rrcurveto
          -1133 hlineto
          27.5 18 15.58301 17 13.75 17 rrcurveto
          57.75 68 -57.75 54 -248.41602 -305 248.41602 -305 57.75 54 -57.75 69 rlineto
          -13.75 17 -15.58301 16 -27.5 18 rrcurveto
          1133 hlineto
          -27.5 -18 -15.58301 -16 -13.75 -17 rrcurveto
          -57.75 -69 57.75 -54 248.41602 305 rlineto
          -1371.33301 -59 rmoveto
          -48.58301 59 48.58301 59 1226.5 0 48.58301 -59 -48.58301 -59 rlineto
          endchar
        </CharString>
        <CharString name="lig.106">
          180 72 118 72 hstem
          -842.41699 252 rmoveto
          -48.58301 59 48.58301 59 1101.83398 0 160.41602 192 -57.75 54 -141.16602 -174 -1016.58398 0 rlineto
          27.5 18 15.58398 17 13.75 17 rrcurveto
          57.75 68 -57.75 54 -248.41699 -305 248.41699 -305 57.75 54 -57.75 69 rlineto
          -13.75 17 -15.58398 16 -27.5 18 rrcurveto
          1016.58398 0 141.16602 -174 57.75 54 -160.41602 192 rlineto
          endchar
        </CharString>
        <CharString name="lig.107">
          276 74 268 -20 hstem
          188.83301 618 rmoveto
          -57.75 -54 131.08398 -156 rlineto
          25.66602 -31 6.41699 -9 26.58301 -18 rrcurveto
          -1191.66602 hlineto
          26.58301 18 6.41699 9 25.66602 31 rrcurveto
          131.08398 156 -57.75 54 -248.41699 -305 248.41699 -305 57.75 54 -131.08398 156 rlineto
          -18.33301 22 -18.33301 20 -22 16 rrcurveto
          1191.66602 hlineto
          -22 -16 -18.33301 -20 -18.33301 -22 rrcurveto
          -131.08398 -156 57.75 -54 248.41699 305 rlineto
          endchar
        </CharString>
        <CharString name="lig.108">
          276 74 268 -20 hstem
          -738.83301 618 rmoveto
          -248.41699 -305 248.41699 -305 57.75 54 -131.08398 156 rlineto
          -18.33301 22 -18.33301 20 -22 16 rrcurveto
          1306.25 74 -1306.25 hlineto
          26.58301 18 6.41699 9 25.66602 31 rrcurveto
          131.08398 156 rlineto
          endchar
        </CharString>
        <CharString name="lig.109">
          276 74 268 -20 hstem
          418.91699 564 rmoveto
          -57.75 54 -218.16699 -268 -1028.5 0 rlineto
          25.66699 18 7.33301 9 25.66699 31 rrcurveto
          137.5 163 -50.41699 47 -249.33301 -305 249.33301 -305 50.41699 47 -137.5 163 rlineto
          -18.33398 22 -18.33301 20 -22 16 rrcurveto
          1028.5 0 218.16699 -268 57.75 54 -209.91699 251 rlineto
          endchar
        </CharString>
        <CharString name="lig.11">
          -199.83301 68.75 261.25 68.75 vstem
          -131.08301 807 rmoveto
          49 callsubr
          330 909 rmoveto
          49 callsubr
          endchar
        </CharString>
        <CharString name="lig.110">
          180 72 118 72 hstem
          -681.08301 562 rmoveto
          95 callsubr
          1324.58301 59 rmoveto
          72 -997.33301 vlineto
          27.5 18 15.58301 17 13.75 17 rrcurveto
          57.75 68 -57.75 54 -248.41602 -305 248.41602 -305 57.75 54 -57.75 69 rlineto
          -13.75 17 -15.58301 16 -27.5 18 rrcurveto
          997.33301 72 -1044.08301 hlineto
          -48.58301 59 48.58301 59 rlineto
          endchar
        </CharString>
        <CharString name="lig.111">
          276 74 268 -20 hstem
          -738.83301 618 rmoveto
          93 callsubr
          220.91602 54 rmoveto
          -249.33301 -305 249.33301 -305 56.83398 54 -131.08398 156 rlineto
          -17.41602 22 -18.33398 20 -22.91602 16 rrcurveto
          1028.5 74 -1027.58398 hlineto
          25.66699 18 7.33301 9 24.75 31 rrcurveto
          131.08398 156 rlineto
          endchar
        </CharString>
        <CharString name="lig.112">
          -523.41699 582 rmoveto
          71 callsubr
          428.08398 65 rmoveto
          70 callsubr
          428.08301 65 rmoveto
          70 callsubr
          endchar
        </CharString>
        <CharString name="lig.113">
          26 -21 271 70 273 -20 hstem
          -311.66699 71.5 vstem
          -538.08301 619 rmoveto
          97 callsubr
          527.08301 89 rmoveto
          98 callsubr
          -618.75 239 rmoveto
          -71.5 -249 -223.66602 -70 223.66602 -249 71.5 249 225.5 70 -225.5 hlineto
          endchar
        </CharString>
        <CharString name="lig.114">
          -93.5 675 rmoveto
          44.91699 102 -61.41699 32 -343.75 -772 -407.91699 276 323.58398 217 -37.58398 64 -352 -237 0 -87 443.66699 -301 -38.5 -87 62.33301 -30 336.41699 755 436.33301 -294 -323.58301 -218 41.25 -62 rlineto
          348.33301 237 0 86 rlineto
          endchar
        </CharString>
        <CharString name="lig.115">
          21 -21 170 64 222 66 hstem
          501.41699 456 rmoveto
          66 -73.33398 vlineto
          21.08398 167 -65.08398 0 -21.08301 -167 -133.83301 0 21.08301 167 -65.08301 0 -21.08398 -167 -286 0 21.08398 167 -65.08398 0 -21.08301 -167 -133.83301 0 21.08301 167 -65.08301 0 -21.08398 -167 rlineto
          -286 0 21.08398 167 -65.08398 0 -21.08301 -167 -133.83301 0 21.08301 167 -65.08301 0 -21.08398 -167 -81.58301 0 0 -66 74.25 0 -28.41699 -222 -79.75 0 0 -64 72.41699 0 rlineto
          -20.16699 -170 65.08398 0 21.08301 170 132.91699 0 -20.16699 -170 65.08301 0 19.25 170 286.91699 0 -20.16699 -170 65.08398 0 21.08301 170 132.91699 0 -20.16699 -170 65.08301 0 19.25 170 rlineto
          286.91699 0 -20.16699 -170 65.08398 0 21.08301 170 132.91699 0 -20.16699 -170 65.08301 0 19.25 170 83.41699 0 0 64 -74.25 0 26.58301 222 rlineto
          -1192.58301 -222 rmoveto
          51 callsubr
          322.66602 -222 rmoveto
          76 callsubr
          170.5 -222 rmoveto
          51 callsubr
          322.66602 -222 rmoveto
          76 callsubr
          170.5 -222 rmoveto
          51 callsubr
          endchar
        </CharString>
        <CharString name="lig.116">
          -182 74 129 -21 170 64 222 66 hstem
          114.58301 80.66699 vstem
          429.91699 -139 rmoveto
          -134.75 120 -106.33398 148 6.41699 221 6.41699 210 56.83301 106 132 128 rrcurveto
          -39.41699 46 rlineto
          -149.41602 -133 -89.83398 -129 2.75 -228 1.83398 -209 83.41602 -140 111.83398 -109 rrcurveto
          -1003.75 0 31.16602 278 83.41699 0 0 64 -74.25 0 26.58301 222 81.58398 0 0 66 -73.33398 0 21.08398 167 -65.08398 0 -21.08301 -167 -133.83301 0 21.08301 167 -65.08301 0 rlineto
          -21.08398 -167 -81.58301 0 0 -66 74.25 0 -28.41699 -222 -79.75 0 0 -64 72.41699 0 -20.16699 -170 65.08398 0 21.08301 170 132.91699 0 -41.25 -352 1160.5 1 0 1 rlineto
          0.91602 -1 rlineto
          -1245.75 415 rmoveto
          77 callsubr
          endchar
        </CharString>
        <CharString name="lig.117">
          180 72 -65 243 -60 72 hstemhm
          -936.83301 223.66602 188.83398 223.66602 hintmask 00111000
          452.83301 442 rmoveto
          -550 -72 550 hlineto
          hintmask 01011000
          -1277.83301 -183 rmoveto
          64.16699 47.66602 51 70 70 -47.66602 52 -64.16699 -64.16699 -47.66602 -51 -70 hvcurveto
          -70 47.66602 -52 64.16699 vhcurveto
          412.5 hmoveto
          64.16699 47.66602 51 70 70 -47.66602 52 -64.16699 -64.16699 -47.66602 -51 -70 -70 47.66602 -52 64.16699 hvcurveto
          hintmask 10011000
          865.33301 65 rmoveto
          -550 -72 550 hlineto
          endchar
        </CharString>
        <CharString name="lig.118">
          -11 176 hstem
          -732.41699 161.33398 168.66602 161.33398 vstem
          249.33301 594 rmoveto
          96 callsubr
          -1019.33398 -453 rmoveto
          100 callsubr
          330 hmoveto
          100 callsubr
          endchar
        </CharString>
        <CharString name="lig.119">
          -11 176 hstem
          -722.33301 161.33301 205.33301 161.33398 205.33301 161.33301 vstem
          cntrmask 01110000
          -722.33301 77 rmoveto
          79 callsubr
          366.66602 hmoveto
          100 callsubr
          366.66699 hmoveto
          -50 34.83301 -38 45.83398 46.75 33.91602 38 50 49 -33.91602 39 -46.75 -45.83398 -34.83301 -39 -49 vhcurveto
          endchar
        </CharString>
        <CharString name="lig.12">
          -138 66 388 68 388 66 hstem
          -267.66699 68.75 417.08398 71.5 vstem
          cntrmask 11100000
          -267.66699 838 rmoveto
          -976 68.75 976 vlineto
          320.83398 hmoveto
          -253 -66 253 hlineto
          66.91602 29.33398 -16 -61 hvcurveto
          -211 vlineto
          0 -84 22.91602 -37 62.33398 -13 -64.16699 -13 -21.08301 -33 0 -88 rrcurveto
          -208 vlineto
          -63 -28.41699 -17 -67.83301 vhcurveto
          -253 -66 253 hlineto
          102.66602 65.08398 33 123 hvcurveto
          192 vlineto
          69 15.58301 37 122.83301 vhcurveto
          68 vlineto
          -122.83301 -15.58301 36 68 hvcurveto
          -0.91699 199 rlineto
          -0.91699 124 -63.25 27 -102.66602 0 rrcurveto
          endchar
        </CharString>
        <CharString name="lig.120">
          276 70 hstem
          -770 71.5 386.83301 71.5 386.83398 71.5 vstem
          -240.16699 276 rmoveto
          386.83398 -199 71.5 199 179.66602 70 -179.66602 199 -71.5 -199 -386.83398 199 -71.5 -199 -386.83301 hlineto
          199 -71.5 -199 -177.83301 -70 177.83301 -199 71.5 199 386.83301 -199 71.5 vlineto
          endchar
        </CharString>
        <CharString name="lig.121">
          180 72 118 72 hstem
          -943.25 -103 rmoveto
          84 callsubr
          862.58301 515 rmoveto
          85 callsubr
          595.83301 72 rmoveto
          -528 -72 528 hlineto
          -595.83301 -118 rmoveto
          86 callsubr
          595.83301 72 rmoveto
          -528 -72 528 hlineto
          endchar
        </CharString>
        <CharString name="lig.122">
          -897.41699 -103 rmoveto
          47 callsubr
          520.66699 -30 rmoveto
          390.5 880 -61.41699 32 -391.41699 -882 rlineto
          520.66699 -30 rmoveto
          84 callsubr
          endchar
        </CharString>
        <CharString name="lig.123">
          -182 74 hstem
          -309.83301 68.75 vstem
          -241.08301 -108 rmoveto
          832 -68.75 -832 -606.83398 -74 1283.33398 74 vlineto
          endchar
        </CharString>
        <CharString name="lig.124">
          -11 134 hstemhm
          -841.5 122.83301 -105.41602 86.16602 -77 68.75 408.83398 122.83301 -105.41699 86.16699 -77 68.75 410.66699 122.83301 hintmask 10100001
          -737.91699 689 rmoveto
          -86.16602 0 rlineto
          hintmask 10010001
          9.16602 -462 68.75 0 rlineto
          hintmask 10000101
          512.41699 462 rmoveto
          60 callsubr
          hintmask 10000011
          61 callsubr
          -538.08301 -104 rmoveto
          hintmask 11000001
          81 callsubr
          504.16602 hmoveto
          hintmask 10001001
          62 callsubr
          505.08398 hmoveto
          -34.83398 -25.66602 -30 -37 -38 25.66602 -29 34.83398 35.75 26.58301 29 38 37 -26.58301 30 -35.75 hvcurveto
          endchar
        </CharString>
        <CharString name="lig.125">
          21 -21 hstem
          -1010.16699 78.83398 1316.33301 75.16699 vstem
          385 527 rmoveto
          -61.41699 -475 -72.41602 408 -90.75 0 -87.08398 -408 -64.16602 408 -92.58398 0 -71.5 -408 -69.66602 408 -91.66699 0 -75.16699 -408 -71.5 408 -92.58301 0 -75.16699 -408 -71.5 408 -90.75 0 rlineto
          -77 -408 -61.41602 475 -78.83398 0 88 -527 106.33398 0 66.91602 386 61.41699 -386 113.66699 0 63.25 386 62.33301 -386 110 0 66 386 60.5 -386 113.66699 0 59.58301 386 rlineto
          55.91699 -386 110.91602 0 76.08398 386 62.33301 -386 109.08301 0 84.33398 527 rlineto
          endchar
        </CharString>
        <CharString name="lig.126">
          -1198.08301 69.66602 352 69.66699 333.66699 69.66602 vstem
          -1128.41699 712 rmoveto
          -69.66602 -801 69.66602 hlineto
          421.66699 801 rmoveto
          87 callsubr
          403.33301 801 rmoveto
          -69.66602 -801 69.66602 hlineto
          528.91699 359 0 86 rlineto
          -528.91699 -355 rmoveto
          50 callsubr
          endchar
        </CharString>
        <CharString name="lig.127">
          -796.58301 69.66602 333.66699 69.66699 352 69.66602 vstem
          -796.58301 712 rmoveto
          -528.91699 -356 0 -86 528.91699 -359 69.66602 0 0 801 rlineto
          333.66699 hmoveto
          99 callsubr
          352 hmoveto
          -801 69.66602 801 vlineto
          -894.66602 -711 rmoveto
          67 callsubr
          endchar
        </CharString>
        <CharString name="lig.128">
          -11 134 154 72 269 -20 hstemhm
          -1162.33301 122.83301 -105.41699 86.16699 -77 68.75 hintmask 11101000
          -1058.75 689 rmoveto
          60 callsubr
          hintmask 11100100
          61 callsubr
          -313.5 391 rmoveto
          -248.41699 -305 248.41699 -305 57.75 54 -131.08301 156 rlineto
          -18.33398 22 -18.33301 20 -22 16 rrcurveto
          276.83301 74 -276.83301 hlineto
          26.58301 18 6.41699 9 25.66699 31 rrcurveto
          131.08301 156 rlineto
          365.75 -287 rmoveto
          1392.41699 72 -1392.41699 hlineto
          -143.91699 -226 rmoveto
          hintmask 11110000
          62 callsubr
          endchar
        </CharString>
        <CharString name="lig.129">
          21 -21 170 64 222 66 hstem
          501.41699 456 rmoveto
          66 -73.33398 vlineto
          21.08398 167 -65.08398 0 -21.08301 -167 -133.83301 0 21.08301 167 -65.08301 0 -21.08398 -167 -286 0 21.08398 167 -65.08398 0 -21.08301 -167 -133.83301 0 21.08301 167 -65.08301 0 -21.08398 -167 rlineto
          -286 0 21.08398 167 -65.08398 0 -21.08301 -167 -133.83301 0 21.08301 167 -65.08301 0 -21.08398 -167 -286 0 21.08398 167 -65.08398 0 -21.08301 -167 -133.83301 0 21.08301 167 -65.08301 0 rlineto
          -21.08398 -167 -81.58301 0 0 -66 74.25 0 -28.41699 -222 -79.75 0 0 -64 72.41699 0 -20.16699 -170 65.08398 0 21.08301 170 132.91699 0 -20.16699 -170 65.08301 0 19.25 170 rlineto
          286.91699 0 -20.16699 -170 65.08398 0 21.08301 170 132.91699 0 -20.16699 -170 65.08301 0 19.25 170 286.91699 0 -20.16699 -170 65.08398 0 21.08301 170 132.91699 0 -20.16699 -170 65.08301 0 rlineto
          19.25 170 286.91699 0 -20.16699 -170 65.08398 0 21.08301 170 132.91699 0 -20.16699 -170 65.08301 0 19.25 170 83.41699 0 0 64 -74.25 0 26.58301 222 rlineto
          -1742.58301 -222 rmoveto
          51 callsubr
          322.66602 -222 rmoveto
          76 callsubr
          170.5 -222 rmoveto
          51 callsubr
          322.66602 -222 rmoveto
          76 callsubr
          170.5 -222 rmoveto
          51 callsubr
          322.66602 -222 rmoveto
          76 callsubr
          170.5 -222 rmoveto
          51 callsubr
          endchar
        </CharString>
        <CharString name="lig.13">
          -115 71 787 72 hstem
          -267.66699 68.75 415.25 73.33398 vstem
          -267.66699 815 rmoveto
          -930 68.75 930 vlineto
          488.58398 -930 rmoveto
          930 -419.83398 -72 346.5 -787 -346.5 -71 vlineto
          endchar
        </CharString>
        <CharString name="lig.130">
          180 72 118 72 hstem
          234.66699 616 rmoveto
          -57.75 -54 57.75 -68 rlineto
          13.75 -17 15.58301 -17 27.5 -18 rrcurveto
          -1683 hlineto
          27.5 18 15.58301 17 13.75 17 rrcurveto
          57.75 68 -57.75 54 -248.41602 -305 248.41602 -305 57.75 54 -57.75 69 rlineto
          -13.75 17 -15.58301 16 -27.5 18 rrcurveto
          1683 hlineto
          -27.5 -18 -15.58301 -16 -13.75 -17 rrcurveto
          -57.75 -69 57.75 -54 248.41602 305 rlineto
          -1921.33301 -59 rmoveto
          -48.58301 59 48.58301 59 1776.5 0 48.58301 -59 -48.58301 -59 rlineto
          endchar
        </CharString>
        <CharString name="lig.14">
          180 72 118 72 hstem
          -309.83301 68.75 vstem
          361.16699 370 rmoveto
          72 -602.25 282 -68.75 -826 68.75 282 602.25 72 -602.25 118 vlineto
          endchar
        </CharString>
        <CharString name="lig.15">
          -281.41699 69.66699 vstem
          -211.75 712 rmoveto
          -69.66699 -801 69.66699 hlineto
          528.91699 359 0 86 rlineto
          -528.91699 -355 rmoveto
          50 callsubr
          endchar
        </CharString>
        <CharString name="lig.16">
          277 72 hstem
          -309.83301 68.75 vstem
          360.25 349 rmoveto
          -601.33301 375 -68.75 -826 68.75 379 601.33301 hlineto
          endchar
        </CharString>
        <CharString name="lig.17">
          -138 66 388 68 388 66 hstem
          -289.66699 71.5 417.08398 68.75 vstem
          cntrmask 11100000
          -121.91699 838 rmoveto
          -102.66602 0 -63.25 -27 -0.91699 -124 rrcurveto
          -0.91699 -199 rlineto
          -68 -15.58301 -36 -122.83301 vhcurveto
          -68 vlineto
          122.83301 15.58301 -37 -69 hvcurveto
          -192 vlineto
          -123 65.08398 -33 102.66602 vhcurveto
          253 66 -253 hlineto
          -67.83301 -28.41699 17 63 hvcurveto
          208 vlineto
          0 88 -21.08301 33 -64.16699 13 62.33398 13 22.91602 37 0 84 rrcurveto
          211 vlineto
          61 29.33398 16 66.91602 vhcurveto
          253 66 hlineto
          136.58398 hmoveto
          -68.75 -976 68.75 hlineto
          endchar
        </CharString>
        <CharString name="lig.18">
          -115 71 787 72 hstem
          -289.66699 73.33398 415.25 68.75 vstem
          -289.66699 -115 rmoveto
          419.83398 71 -346.5 787 346.5 72 -419.83398 hlineto
          557.33398 hmoveto
          -68.75 -930 68.75 hlineto
          endchar
        </CharString>
        <CharString name="lig.19">
          -115 71 65 -21 170 64 222 66 221 72 hstemhm
          -398.75 230.08301 -73.33301 73.33301 hintmask 11111010
          446.41699 456 rmoveto
          66 -73.33398 vlineto
          21.08398 167 -65.08398 0 -21.08301 -167 -133.83301 0 21.08301 167 -65.08301 0 -21.08398 -167 -277.75 0 rlineto
          hintmask 11111100
          293 -230.08301 -72 vlineto
          hintmask 11111010
          156.75 -787 hlineto
          hintmask 11111100
          -156.75 -71 230.08301 hlineto
          hintmask 11111010
          285 234.66699 vlineto
          -20.16699 -170 65.08398 0 21.08301 170 132.91699 0 -20.16699 -170 65.08301 0 19.25 170 83.41699 0 0 64 -74.25 0 26.58301 222 rlineto
          -291.5 -222 rmoveto
          -242 222 270.41699 hlineto
          170.5 -222 rmoveto
          51 callsubr
          endchar
        </CharString>
        <CharString name="lig.2">
          180 72 118 72 hstem
          -18.33301 442 rmoveto
          -176.91699 318 -67.83301 0 -173.25 -313 82.5 0 123.75 237 165 -314 472.08301 0 0 72 rlineto
          -472.08301 -262 rmoveto
          472.08301 72 -472.08301 hlineto
          endchar
        </CharString>
        <CharString name="lig.20">
          -11 162 198 162 hstem
          -257.58301 147.58301 219.08301 147.58398 vstem
          -257.58301 431 rmoveto
          -45 31.16602 -37 42.16699 43.08301 31.16699 37 45 44 -31.16699 36 -43.08301 -42.16699 -31.16602 -36 -44 vhcurveto
          366.66602 hmoveto
          52 callsubr
          -366.66602 -361 rmoveto
          -46 31.16602 -35 42.16699 43.08301 31.16699 35 46 44 -31.16699 37 -43.08301 -42.16699 -31.16602 -37 -44 vhcurveto
          366.66602 hmoveto
          53 callsubr
          endchar
        </CharString>
        <CharString name="lig.21">
          107 162 -89 72 100 162 -144 72 hstemhm
          -352 148.5 hintmask 00101000
          -352 434 rmoveto
          -45 32.08301 -37 41.25 43.08398 32.08301 37 45 45 -32.08301 35 -43.08398 vhcurveto
          -41.25 -32.08301 -35 -45 hvcurveto
          hintmask 00011000
          804.83301 8 rmoveto
          54 callsubr
          -804.83301 -182 rmoveto
          hintmask 10001000
          -46 32.08301 -35 41.25 43.08398 32.08301 35 46 44 -32.08301 37 -43.08398 -41.25 -32.08301 -37 -44 vhcurveto
          hintmask 01001000
          804.83301 64 rmoveto
          54 callsubr
          endchar
        </CharString>
        <CharString name="lig.22">
          47 162 198 162 hstem
          -371.25 147.58301 vstem
          10.08301 598 rmoveto
          0 -81 363 -204 -363 -204 0 -81 435.41699 242 0 85 rlineto
          -816.75 134 rmoveto
          55 callsubr
          -361 vmoveto
          56 callsubr
          endchar
        </CharString>
        <CharString name="lig.23">
          -57 77 616 66 hstem
          -371.25 81.58301 86.16699 62.33301 115.5 83.41699 vstem
          80.66699 619 rmoveto
          -62.33398 44 -87.08301 31 -72.41699 8 rrcurveto
          146 -62.33301 -145 vlineto
          -112.75 -12 -55 -83 0 -80 0 -93 60.5 -59 107.25 -39 rrcurveto
          -317 vlineto
          -60.5 -4 -47.66699 8 -107.25 70 rrcurveto
          -89 vlineto
          90.75 -53 44.91699 -12 79.75 3 rrcurveto
          -96 62.33301 98 vlineto
          113.66699 18 85.25 88 0 126 0 124 -107.25 67 -91.66699 33 rrcurveto
          235 vlineto
          45.83398 -6 66 -23 110 -77 rrcurveto
          323.58301 -217 -253 -168 -20.16699 -108 339.16699 233 0 86 rlineto
          -673.75 67 rmoveto
          57 callsubr
          177.83301 -457 rmoveto
          58 callsubr
          endchar
        </CharString>
        <CharString name="lig.24">
          180 72 118 72 hstem
          452.83301 442 rmoveto
          59 callsubr
          -118 vmoveto
          59 callsubr
          endchar
        </CharString>
        <CharString name="lig.25">
          180 72 118 72 hstem
          234.66699 616 rmoveto
          -57.75 -54 57.75 -68 rlineto
          13.75 -17 15.58301 -17 27.5 -18 rrcurveto
          -725.08301 -72 771.83301 hlineto
          48.58301 -59 -48.58301 -59 -771.83301 0 0 -72 725.08301 0 rlineto
          -27.5 -18 -15.58301 -16 -13.75 -17 rrcurveto
          -57.75 -69 57.75 -54 248.41602 305 rlineto
          endchar
        </CharString>
        <CharString name="lig.26">
          -1 -21 202 72 118 72 hstem
          452.83301 370 rmoveto
          72 -344.66602 vlineto
          98.08301 180 -59.58301 33 -117.33398 -213 -482.16602 0 0 -72 442.75 0 -64.16699 -118 -378.58301 0 0 -72 339.16602 0 -92.58301 -168 61.41699 -34 110 202 487.66602 0 0 72 rlineto
          -448.25 0 64.16699 118 rlineto
          endchar
        </CharString>
        <CharString name="lig.27">
          -11 134 hstemhm
          -227.33301 122.83301 -105.41699 86.16699 -77 68.75 234.66699 122.83301 -105.41699 86.16699 -77 68.75 hintmask 10100000
          -123.75 689 rmoveto
          60 callsubr
          hintmask 10010000
          61 callsubr
          hintmask 10000100
          338.25 462 rmoveto
          60 callsubr
          hintmask 10000010
          61 callsubr
          -363.91699 -104 rmoveto
          hintmask 11000000
          62 callsubr
          330 hmoveto
          hintmask 10001000
          62 callsubr
          endchar
        </CharString>
        <CharString name="lig.28">
          -237.41699 117 rmoveto
          503.25 244 0 80 -503.25 244 -27.5 -68 451 -216 -451 -216 rlineto
          519.75 9 rmoveto
          -502.33301 -241 27.5 -68 502.33301 244 rlineto
          endchar
        </CharString>
        <CharString name="lig.29">
          -439.08301 582 rmoveto
          63 callsubr
          53.16699 227 rmoveto
          64 callsubr
          endchar
        </CharString>
        <CharString name="lig.3">
          228 73 27 73 hstem
          355.66699 386 rmoveto
          43 callsubr
          endchar
        </CharString>
        <CharString name="lig.30">
          277 72 269 -20 hstem
          435.41699 349 rmoveto
          -596.75 0 -219.08398 269 -57.75 -54 209.91699 -251 -209.91699 -251 57.75 -54 219.08398 269 596.75 0 rlineto
          endchar
        </CharString>
        <CharString name="lig.31">
          228 73 -24 72 -21 73 hstemhm
          hintmask 10100000
          382.25 386 rmoveto
          -23.83301 -48 -29.33398 -37 -37.58301 0 -55.91699 0 -29.33301 100 -91.66699 0 rrcurveto
          hintmask 01000000
          -75.16602 0 -4.58398 -51 -73.33301 -1 rrcurveto
          -396.91699 -72 411.58398 hlineto
          hintmask 10100000
          68.75 0 9.16602 51 57.75 0 58.66699 0 32.08301 -100 86.16699 0 80.66699 0 40.33301 69 27.5 57 rrcurveto
          endchar
        </CharString>
        <CharString name="lig.32">
          277 72 hstem
          241.08301 68.75 vstem
          241.08301 724 rmoveto
          -375 -601.33301 -72 601.33301 -379 68.75 826 vlineto
          endchar
        </CharString>
        <CharString name="lig.33">
          276 74 268 -20 hstem
          188.83301 618 rmoveto
          -57.75 -54 131.08398 -156 rlineto
          25.66602 -31 6.41699 -9 26.58301 -18 rrcurveto
          -756.25 -74 756.25 hlineto
          -22 -16 -18.33301 -20 -18.33301 -22 rrcurveto
          -131.08398 -156 57.75 -54 248.41699 305 rlineto
          endchar
        </CharString>
        <CharString name="lig.34">
          277 72 hstem
          -388.66699 277 rmoveto
          65 callsubr
          429 -72 rmoveto
          65 callsubr
          endchar
        </CharString>
        <CharString name="lig.35">
          277 72 269 -20 hstem
          438.16699 564 rmoveto
          -57.75 54 -219.08398 -269 -596.75 0 0 -72 596.75 0 219.08398 -269 57.75 54 -209.91699 251 rlineto
          endchar
        </CharString>
        <CharString name="lig.36">
          229 72 28 78 211 -20 hstem
          235.58301 401 rmoveto
          -105.41602 0 -15.58398 -100 -62.33301 0 -62.33301 0 -15.58398 106 -105.41602 0 -103.58398 0 -1.83301 -72 -76.08301 -8 rrcurveto
          23 vlineto
          22 16 18.33301 20 18.33301 22 rrcurveto
          131.08398 156 -57.75 54 -248.41699 -305 248.41699 -305 57.75 54 -131.08398 156 rlineto
          -10.08301 13 -7.33301 9 -7.33398 7 77.91699 13 14.66699 69 55 0 62.33301 0 15.58301 -100 105.41699 0 105.41699 0 15.58301 100 62.33301 0 33.91699 0 33.91699 -36 21.08301 -46 rrcurveto
          65.08301 35 rlineto
          -18.33301 49 -68.75 70 -66.91699 0 rrcurveto
          endchar
        </CharString>
        <CharString name="lig.37">
          26 -21 626 -20 hstemhm
          189.75 81.58301 -71.5 61.41699 hintmask 11100000
          189.75 631 rmoveto
          hintmask 11010000
          10.08301 -261 -223.66602 89 -27.5 -85 231.91602 -68 -139.33301 -197 68.75 -52 121.91699 210 135.66602 -216 66.91699 56 -152.16699 199 227.33398 69 -22.91699 84 -225.5 -88 rlineto
          hintmask 11100000
          10.08301 260 rlineto
          -305.25 -12 rmoveto
          66 callsubr
          endchar
        </CharString>
        <CharString name="lig.38">
          211.75 69.66699 vstem
          211.75 712 rmoveto
          -528.91699 -356 0 -86 528.91699 -359 69.66699 0 0 801 rlineto
          -69.66699 -711 rmoveto
          67 callsubr
          endchar
        </CharString>
        <CharString name="lig.39">
          47 162 198 162 hstem
          223.66699 147.58301 vstem
          -10.08301 598 rmoveto
          -435.41699 -243 0 -85 435.41699 -242 0 81 -363 204 363 204 rlineto
          381.33301 -28 rmoveto
          68 callsubr
          -361 vmoveto
          69 callsubr
          endchar
        </CharString>
        <CharString name="lig.4">
          -91 68 -23 63 211 73 27 73 -22 62 185 74 hstemhm
          27.5 74.25 166.83301 67.83398 121 79.75 hintmask 1011011110000000
          260.33301 700 rmoveto
          -45.83301 0 -142.08301 -4 -66 -91 -53.16699 -72 -31.16699 -116 -16.5 -31 -23.83301 -48 -29.33301 -37 -37.58398 0 -55.91602 0 -29.33398 100 -91.66602 0 -81.58398 0 -39.41602 -70 -27.5 -58 rrcurveto
          55 -30 rlineto
          23.83301 48 27.5 37 39.41699 0 58.66602 0 32.08398 -100 86.16602 0 80.66699 0 40.33301 69 27.5 57 15.58398 33 26.58301 103 49.5 64 53.16699 70 122.83301 2 33 0 rrcurveto
          167.75 28.41699 -151 -191 -172 0.91602 -135 -57.75 -35.75 -28.41602 24 107 hvcurveto
          296 vlineto
          hintmask 0110111110000000
          -51.33398 30 -35.75 7 -42.16602 0 rrcurveto
          -113.66699 -66 -83 -175 -132 37.58301 -97 99.91699 hvcurveto
          73.33301 0 34.83398 51 17.41602 47 rrcurveto
          3.66699 hlineto
          hintmask 1011011110000000
          -0.91699 -49 32.08398 -94 77 0 rrcurveto
          110 24.75 124 252 hvcurveto
          204 -40.33398 211 -236.5 vhcurveto
          8.25 -595 rmoveto
          hintmask 0110111110000000
          -11 -28 -19.25 -60 -64.16602 0 rrcurveto
          -55 -17.41699 69 97 130 24.75 66 83.41699 hvcurveto
          22 0 17.41602 -4 19.25 -10 rrcurveto
          endchar
        </CharString>
        <CharString name="lig.40">
          -57 77 616 66 hstem
          -4.58301 81.58301 86.16699 62.33301 115.5 83.41699 vstem
          447.33301 530 rmoveto
          89 vlineto
          -62.33301 44 -87.08301 31 -72.41699 8 rrcurveto
          146 -62.33301 -145 vlineto
          -112.75 -12 -55 -83 0 -80 0 -93 60.5 -59 107.25 -39 rrcurveto
          -317 vlineto
          -60.5 -4 -47.66699 8 -107.25 70 rrcurveto
          -323.58301 219 272.25 181 13.75 100 -352 -237 0 -87 389.58301 -265 rlineto
          90.75 -53 44.91699 -12 79.75 3 rrcurveto
          -96 62.33301 98 vlineto
          113.66699 18 85.25 88 0 126 0 124 -107.25 67 -91.66699 33 rrcurveto
          235 vlineto
          45.83301 -6 66 -23 110 -77 rrcurveto
          -284.16602 -107 rmoveto
          57 callsubr
          177.83301 -457 rmoveto
          58 callsubr
          endchar
        </CharString>
        <CharString name="lig.41">
          264.91699 617 rmoveto
          -27.5 68 -503.25 -244 0 -80 503.25 -244 27.5 68 -451 216 rlineto
          -96.25 -272 rmoveto
          502.33301 -244 27.5 68 -502.33301 241 rlineto
          endchar
        </CharString>
        <CharString name="lig.42">
          2 -21 661 -20 hstem
          642 vmoveto
          -423.5 -285 0 -87 423.5 -289 424.41699 289 0 86 rlineto
          -424.41699 -285 rmoveto
          -357.5 242 357.5 240 358.41699 -240 rlineto
          endchar
        </CharString>
        <CharString name="lig.43">
          276 74 268 -20 hstem
          -188.83301 618 rmoveto
          -248.41699 -305 248.41699 -305 57.75 54 -131.08398 156 rlineto
          -18.33301 22 -18.33301 20 -22 16 rrcurveto
          756.25 74 -756.25 hlineto
          26.58301 18 6.41699 9 25.66602 31 rrcurveto
          131.08398 156 rlineto
          endchar
        </CharString>
        <CharString name="lig.44">
          -19.25 582 rmoveto
          70 callsubr
          428.08301 65 rmoveto
          71 callsubr
          endchar
        </CharString>
        <CharString name="lig.45">
          26 -21 271 70 273 -20 hstem
          192.5 71.5 vstem
          -33.91699 619 rmoveto
          66 callsubr
          297.91699 65 rmoveto
          72 callsubr
          endchar
        </CharString>
        <CharString name="lig.46">
          348.33301 809 rmoveto
          -343.75 -772 -407.91602 276 323.58301 217 -37.58301 64 -352 -237 0 -87 443.66602 -301 -38.5 -87 62.33398 -30 411.58301 925 rlineto
          endchar
        </CharString>
        <CharString name="lig.47">
          -136 67 90 -21 170 64 82 68 72 66 247 67 hstem
          413.41699 769 rmoveto
          67 vlineto
          -102.66699 0 -95.33301 -34 11.91602 -122 rrcurveto
          15.58398 -158 -309.83398 0 21.08398 167 -65.08398 0 -21.08301 -167 -133.83301 0 21.08301 167 -65.08301 0 -21.08398 -167 -81.58301 0 0 -66 74.25 0 -28.41699 -222 -79.75 0 0 -64 rlineto
          72.41699 0 -20.16699 -170 65.08398 0 21.08301 170 132.91699 0 -20.16699 -170 65.08301 0 19.25 170 353.83398 0 -15.58398 -150 rlineto
          -11.91602 -122 95.33301 -34 102.66699 0 rrcurveto
          67 vlineto
          -66.91699 0 -53.16699 17 5.5 63 rrcurveto
          18.33398 205 rlineto
          8.25 88 -29.33398 33 -64.16602 13 63.25 13 30.25 37 -8.25 84 rrcurveto
          -18.33398 205 rlineto
          -5.5 62 53.16699 18 66.91699 0 rrcurveto
          -581.16699 -535 rmoveto
          51 callsubr
          386.83301 -222 rmoveto
          -349.25 0 26.58301 222 321.75 0 rlineto
          -3.66602 -47 -33 -25 -102.66699 0 rrcurveto
          -68 vlineto
          108.16699 0 30.25 -28 1.83301 -54 rrcurveto
          endchar
        </CharString>
        <CharString name="lig.48">
          -115 71 65 -21 170 64 222 66 221 72 hstemhm
          168.66699 230.08301 -230.08301 73.33301 hintmask 11111100
          398.75 743 rmoveto
          72 -230.08301 vlineto
          hintmask 11111010
          -293 -235.58398 vlineto
          21.08398 167 -65.08398 0 -21.08301 -167 -133.83301 0 21.08301 167 -65.08301 0 -21.08398 -167 -81.58301 0 0 -66 74.25 0 -28.41699 -222 -79.75 0 0 -64 72.41699 0 -20.16699 -170 rlineto
          65.08398 0 21.08301 170 132.91699 0 -20.16699 -170 65.08301 0 19.25 170 279.58398 0 rlineto
          hintmask 11111100
          -285 230.08301 71 vlineto
          hintmask 11111010
          -156.75 787 hlineto
          -409.75 -509 rmoveto
          51 callsubr
          37.58301 -222 rmoveto
          26.58301 222 243.83398 0 0 -222 rlineto
          endchar
        </CharString>
        <CharString name="lig.49">
          21 -21 188 65 -55 65 112 65 -55 66 hstemhm
          hintmask 11001000
          -139.33301 385 rmoveto
          81.58301 66 -73.33301 hlineto
          30.25 238 -65.08398 0 -30.25 -238 -133.83301 0 30.25 238 -65.08301 0 -30.25 -238 -81.58398 0 0 -66 74.25 0 -17.41602 -132 -79.75 0 0 -65 72.41602 0 -22 -188 rlineto
          65.08398 0 22 188 133.83301 0 -22 -188 65.08301 0 21.08398 188 83.41602 0 0 65 -74.25 0 rlineto
          hintmask 10010000
          599.5 187 rmoveto
          73 callsubr
          hintmask 11001000
          -798.41602 -122 rmoveto
          15.58301 132 134.75 0 -17.41699 -132 rlineto
          hintmask 10100000
          642.58398 10 rmoveto
          73 callsubr
          endchar
        </CharString>
        <CharString name="lig.5">
          180 72 68 70 41 71 hstem
          -137.5 502 rmoveto
          -103.58301 0 -58.66699 -81 -27.5 -58 rrcurveto
          55 -28 rlineto
          23.83301 48 46.75 48 61.41699 0 74.25 0 82.5 -111 103.58301 0 105.41699 0 74.25 69 27.5 57 rrcurveto
          -55 29 rlineto
          -23.83301 -47 -62.33398 -38 -63.25 0 -73.33301 0 -78.83301 112 -108.16699 0 rrcurveto
          452.83301 -250 rmoveto
          -630.66602 -72 630.66602 hlineto
          endchar
        </CharString>
        <CharString name="lig.50">
          0 128 42 64 222 66 hstem
          -38.5 456 rmoveto
          74 callsubr
          341.91602 2 rmoveto
          55 453 -84.33301 0 -55 -453 rlineto
          -456.5 -2 rmoveto
          75 callsubr
          387.75 -234 rmoveto
          17.41602 128 -102.66602 0 -17.41699 -128 rlineto
          endchar
        </CharString>
        <CharString name="lig.51">
          21 -21 170 64 222 66 hstem
          501.41699 456 rmoveto
          66 -73.33398 vlineto
          21.08398 167 -65.08398 0 -21.08301 -167 -133.83301 0 21.08301 167 -65.08301 0 -21.08398 -167 -286 0 21.08398 167 -65.08398 0 -21.08301 -167 -133.83301 0 21.08301 167 -65.08301 0 -21.08398 -167 rlineto
          -81.58301 -66 74.25 hlineto
          -28.41699 -222 -79.75 0 0 -64 72.41699 0 -20.16699 -170 65.08398 0 21.08301 170 132.91699 0 -20.16699 -170 65.08301 0 19.25 170 286.91699 0 -20.16699 -170 65.08398 0 21.08301 170 rlineto
          132.91699 0 -20.16699 -170 65.08301 0 19.25 170 83.41699 0 0 64 -74.25 0 26.58301 222 rlineto
          -642.58301 -222 rmoveto
          51 callsubr
          322.66602 -222 rmoveto
          76 callsubr
          170.5 -222 rmoveto
          51 callsubr
          endchar
        </CharString>
        <CharString name="lig.52">
          21 -21 170 64 222 66 hstem
          114.58301 80.66699 vstem
          195.25 350 rmoveto
          0 210 63.25 106 132 128 rrcurveto
          -39.41699 46 rlineto
          -107.25 -95 -75.16602 -94 -33.91699 -129 rrcurveto
          -201.66699 0 21.08398 167 -65.08398 0 -21.08301 -167 -133.83301 0 21.08301 167 -65.08301 0 -21.08398 -167 -81.58301 0 0 -66 74.25 0 -28.41699 -222 -79.75 0 0 -64 72.41699 0 rlineto
          -20.16699 -170 65.08398 0 21.08301 170 132.91699 0 -20.16699 -170 65.08301 0 19.25 170 248.41699 0 rlineto
          34.83301 -125 74.25 -92 104.5 -93 rrcurveto
          39.41699 46 rlineto
          -130.16699 127 -65.08301 108 0 209 rrcurveto
          -363 -116 rmoveto
          51 callsubr
          37.58301 -222 rmoveto
          26.58301 222 197.08398 0 rlineto
          -4.58398 -33 -2.75 -35 0 -38 0 -42 2.75 -38 5.5 -36 rrcurveto
          endchar
        </CharString>
</ttFont>
